blackcompressed_sans_ik.ufo
<glyph name="exclam" format="1">
  <advance width="264.0"/>
  <unicode hex="0021"/>
  <outline>
    <contour>
      <point x="219.0" y="62.0" type="curve"/>
      <point x="219.0" y="110.0"/>
      <point x="182.0" y="134.0"/>
      <point x="132.0" y="134.0" type="curve"/>
      <point x="83.0" y="134.0"/>
      <point x="46.0" y="108.0"/>
      <point x="46.0" y="62.0" type="curve"/>
      <point x="219.0" y="62.0"/>
      <point x="46.0" y="62.0"/>
      <point x="219.0" y="62.0" type="curve"/>
      <point x="219.0" y="13.0"/>
      <point x="183.0" y="-9.0"/>
      <point x="132.0" y="-9.0" type="curve"/>
      <point x="82.0" y="-9.0"/>
      <point x="46.0" y="16.0"/>
      <point x="46.0" y="62.0" type="curve"/>
      <point x="219.0" y="62.0"/>
      <point x="46.0" y="62.0"/>
    </contour>
    <contour>
      <point x="203.0" y="229.0" type="curve"/>
      <point x="203.0" y="393.0"/>
      <point x="203.0" y="558.0"/>
      <point x="203.0" y="722.0" type="curve"/>
      <point x="60.0" y="722.0"/>
      <point x="203.0" y="722.0"/>
      <point x="60.0" y="722.0" type="curve"/>
      <point x="60.0" y="558.0"/>
      <point x="60.0" y="393.0"/>
      <point x="60.0" y="229.0" type="curve"/>
      <point x="203.0" y="229.0"/>
      <point x="60.0" y="229.0"/>
    </contour>
  </outline>
</glyph>
<glyph name="quotedbl" format="1">
  <advance width="406.0"/>
  <unicode hex="0022"/>
  <outline>
    <contour>
      <point x="181.0" y="658.0" type="curve"/>
      <point x="181.0" y="720.66604"/>
      <point x="181.0" y="783.33396"/>
      <point x="181.0" y="846.0" type="curve"/>
      <point x="38.0" y="846.0"/>
      <point x="181.0" y="846.0"/>
      <point x="38.0" y="846.0" type="curve"/>
      <point x="38.0" y="783.33396"/>
      <point x="38.0" y="720.66604"/>
      <point x="38.0" y="658.0" type="curve"/>
      <point x="181.0" y="658.0"/>
      <point x="38.0" y="658.0"/>
    </contour>
    <contour>
      <point x="368.0" y="658.0" type="curve"/>
      <point x="368.0" y="721.0"/>
      <point x="368.0" y="783.0"/>
      <point x="368.0" y="846.0" type="curve"/>
      <point x="231.0" y="846.0"/>
      <point x="368.0" y="846.0"/>
      <point x="231.0" y="846.0" type="curve"/>
      <point x="231.0" y="783.0"/>
      <point x="231.0" y="721.0"/>
      <point x="231.0" y="658.0" type="curve"/>
      <point x="368.0" y="658.0"/>
      <point x="231.0" y="658.0"/>
    </contour>
  </outline>
</glyph>
<glyph name="numbersign" format="1">
  <advance width="564.0"/>
  <unicode hex="0023"/>
  <outline>
    <contour>
      <point x="39.0" y="217.0" type="curve"/>
      <point x="162.0" y="217.0"/>
      <point x="322.0" y="217.0"/>
      <point x="444.0" y="217.0" type="curve"/>
      <point x="472.0" y="328.0"/>
      <point x="444.0" y="217.0"/>
      <point x="472.0" y="328.0" type="curve"/>
      <point x="363.0" y="328.0"/>
      <point x="205.0" y="328.0"/>
      <point x="67.0" y="328.0" type="curve"/>
      <point x="39.0" y="217.0"/>
      <point x="67.0" y="328.0"/>
    </contour>
    <contour>
      <point x="89.0" y="429.0" type="curve"/>
      <point x="212.0" y="429.0"/>
      <point x="372.0" y="429.0"/>
      <point x="494.0" y="429.0" type="curve"/>
      <point x="522.0" y="540.0"/>
      <point x="494.0" y="429.0"/>
      <point x="522.0" y="540.0" type="curve"/>
      <point x="413.0" y="540.0"/>
      <point x="255.0" y="540.0"/>
      <point x="115.0" y="540.0" type="curve"/>
      <point x="89.0" y="429.0"/>
      <point x="115.0" y="540.0"/>
    </contour>
    <contour>
      <point x="378.0" y="39.0" type="curve"/>
      <point x="378.0" y="39.0"/>
      <point x="540.0" y="722.0"/>
      <point x="540.0" y="722.0" type="curve"/>
      <point x="397.0" y="722.0"/>
      <point x="540.0" y="722.0"/>
      <point x="397.0" y="722.0" type="curve"/>
      <point x="397.0" y="722.0"/>
      <point x="235.0" y="39.0"/>
      <point x="235.0" y="39.0" type="curve"/>
      <point x="378.0" y="39.0"/>
      <point x="235.0" y="39.0"/>
    </contour>
    <contour>
      <point x="165.0" y="46.0" type="curve"/>
      <point x="165.0" y="46.0"/>
      <point x="327.0" y="722.0"/>
      <point x="327.0" y="722.0" type="curve"/>
      <point x="184.0" y="722.0"/>
      <point x="327.0" y="722.0"/>
      <point x="184.0" y="722.0" type="curve"/>
      <point x="184.0" y="722.0"/>
      <point x="28.0" y="46.0"/>
      <point x="28.0" y="46.0" type="curve"/>
      <point x="165.0" y="46.0"/>
      <point x="28.0" y="46.0"/>
    </contour>
  </outline>
</glyph>
<glyph name="dollar" format="1">
  <advance width="480.0"/>
  <unicode hex="0024"/>
  <outline>
    <contour>
      <point x="294.0" y="-42.0" type="curve"/>
      <point x="294.0" y="-12.0"/>
      <point x="294.0" y="67.0"/>
      <point x="294.0" y="97.0" type="curve"/>
      <point x="151.0" y="97.0"/>
      <point x="294.0" y="97.0"/>
      <point x="151.0" y="97.0" type="curve"/>
      <point x="151.0" y="67.0"/>
      <point x="151.0" y="-12.0"/>
      <point x="151.0" y="-42.0" type="curve"/>
      <point x="294.0" y="-42.0"/>
      <point x="151.0" y="-42.0"/>
    </contour>
    <contour>
      <point x="303.0" y="632.0" type="curve"/>
      <point x="303.0" y="662.0"/>
      <point x="303.0" y="743.0"/>
      <point x="303.0" y="773.0" type="curve"/>
      <point x="160.0" y="773.0"/>
      <point x="303.0" y="773.0"/>
      <point x="160.0" y="773.0" type="curve"/>
      <point x="160.0" y="743.0"/>
      <point x="160.0" y="662.0"/>
      <point x="160.0" y="632.0" type="curve"/>
      <point x="303.0" y="632.0"/>
      <point x="160.0" y="632.0"/>
    </contour>
    <contour>
      <point x="40" y="105" type="curve"/>
      <point x="89" y="63"/>
      <point x="148.0" y="42.0"/>
      <point x="216.0" y="42.0" type="curve"/>
      <point x="352.0" y="42.0"/>
      <point x="455.0" y="109.0"/>
      <point x="455.0" y="221.0" type="curve"/>
      <point x="455.0" y="317.0"/>
      <point x="373.0" y="374.0"/>
      <point x="275.0" y="423.0" type="curve"/>
      <point x="221.0" y="450.0"/>
      <point x="174.0" y="469.0"/>
      <point x="174.0" y="520.0" type="curve"/>
      <point x="174.0" y="552.0"/>
      <point x="196.0" y="578.0"/>
      <point x="232.0" y="578.0" type="curve"/>
      <point x="275.0" y="578.0"/>
      <point x="304.0" y="564.0"/>
      <point x="340.0" y="542.0" type="curve"/>
      <point x="413" y="627"/>
      <point x="340" y="542"/>
      <point x="413" y="627" type="curve"/>
      <point x="362" y="671"/>
      <point x="307.0" y="688.0"/>
      <point x="238.0" y="688.0" type="curve"/>
      <point x="117.0" y="688.0"/>
      <point x="31.0" y="623.0"/>
      <point x="31.0" y="520.0" type="curve"/>
      <point x="31.0" y="425.0"/>
      <point x="96.0" y="370.0"/>
      <point x="191.0" y="323.0" type="curve"/>
      <point x="250.0" y="295.0"/>
      <point x="312.0" y="273.0"/>
      <point x="312.0" y="216.0" type="curve"/>
      <point x="312.0" y="176.0"/>
      <point x="276.0" y="152.0"/>
      <point x="229.0" y="152.0" type="curve"/>
      <point x="185.0" y="152.0"/>
      <point x="145" y="173"/>
      <point x="119.0" y="190.0" type="curve"/>
      <point x="40" y="105"/>
      <point x="119" y="190"/>
    </contour>
  </outline>
</glyph>
<glyph name="ampersand" format="1">
  <advance width="613.0"/>
  <unicode hex="0026"/>
  <outline>
    <contour>
      <point x="620" y="0" type="curve"/>
      <point x="533" y="112"/>
      <point x="420.0" y="260.0"/>
      <point x="326.0" y="378.0" type="curve"/>
      <point x="284.0" y="432.0"/>
      <point x="225.0" y="479.0"/>
      <point x="225.0" y="549.0" type="curve"/>
      <point x="225.0" y="582.0"/>
      <point x="229.0" y="617.0"/>
      <point x="258.0" y="617.0" type="curve"/>
      <point x="288.0" y="617.0"/>
      <point x="294.0" y="586.0"/>
      <point x="294.0" y="551.0" type="curve"/>
      <point x="294.0" y="492.0"/>
      <point x="262.0" y="453.0"/>
      <point x="212.0" y="420.0" type="curve"/>
      <point x="122.0" y="359.0"/>
      <point x="41.0" y="307.0"/>
      <point x="41.0" y="201.0" type="curve"/>
      <point x="41.0" y="77.0"/>
      <point x="127.0" y="-5.0"/>
      <point x="252.0" y="-5.0" type="curve"/>
      <point x="426.0" y="-5.0"/>
      <point x="511" y="135"/>
      <point x="548" y="317" type="curve"/>
      <point x="434" y="340"/>
      <point x="548" y="317"/>
      <point x="434.0" y="340.0" type="curve"/>
      <point x="402.0" y="220.0"/>
      <point x="374.0" y="106.0"/>
      <point x="259.0" y="106.0" type="curve"/>
      <point x="209.0" y="106.0"/>
      <point x="184.0" y="147.0"/>
      <point x="184.0" y="201.0" type="curve"/>
      <point x="184.0" y="258.251908397"/>
      <point x="223" y="290"/>
      <point x="275" y="326" type="curve"/>
      <point x="362" y="386"/>
      <point x="437" y="452"/>
      <point x="437.0" y="551.0" type="curve"/>
      <point x="437.0" y="657.0"/>
      <point x="367.0" y="727.0"/>
      <point x="263.0" y="727.0" type="curve"/>
      <point x="159.0" y="727.0"/>
      <point x="92.0" y="655.0"/>
      <point x="92.0" y="549.0" type="curve"/>
      <point x="92.0" y="450.0"/>
      <point x="162.0" y="387.0"/>
      <point x="224.0" y="311.0" type="curve"/>
      <point x="295.0" y="220.0"/>
      <point x="391.0" y="85.0"/>
      <point x="457.0" y="-2.62119215222e-011" type="curve"/>
      <point x="646.0" y="-2.62190269495e-011"/>
      <point x="431" y="0"/>
    </contour>
  </outline>
</glyph>
<glyph name="parenleft" format="1">
  <advance width="329.0"/>
  <unicode hex="0028"/>
  <outline>
    <contour>
      <point x="327.625" y="-204.325" type="curve"/>
      <point x="200.922407194" y="-37.4125438322"/>
      <point x="170.0" y="116.0"/>
      <point x="170.0" y="326.0" type="curve"/>
      <point x="170.0" y="537.0"/>
      <point x="201.707579408" y="689.527205153"/>
      <point x="326.875" y="859.5875" type="curve"/>
      <point x="242.375" y="931.4125"/>
      <point x="326.875" y="859.5875"/>
      <point x="242.375" y="931.4125" type="curve"/>
      <point x="94.2414854403" y="737.47925147"/>
      <point x="30.625" y="570.946789899"/>
      <point x="30.625" y="326.0" type="curve"/>
      <point x="30.625" y="80.2704075991"/>
      <point x="94.726908355" y="-86.1103259511"/>
      <point x="243.125" y="-281.675" type="curve"/>
      <point x="327.625" y="-204.325"/>
      <point x="243.125" y="-281.675"/>
    </contour>
  </outline>
</glyph>
<glyph name="parenright" format="1">
  <advance width="337.0"/>
  <unicode hex="0029"/>
  <outline>
    <contour>
      <point x="83.375" y="-295.4125" type="curve"/>
      <point x="233.422583501" y="-92.1867290505"/>
      <point x="305.625" y="76.0265989903"/>
      <point x="305.625" y="329.2625" type="curve"/>
      <point x="305.625" y="575.538855398"/>
      <point x="240.198396766" y="741.350000604"/>
      <point x="86.375" y="933.675" type="curve"/>
      <point x="1.875" y="856.325"/>
      <point x="86.375" y="933.675"/>
      <point x="1.875" y="856.325" type="curve"/>
      <point x="131.120146038" y="687.944313145"/>
      <point x="166.0" y="536.0"/>
      <point x="166.0" y="324.0" type="curve"/>
      <point x="166.0" y="108.0"/>
      <point x="122.536258913" y="-46.4347104429"/>
      <point x="-1.125" y="-223.5875" type="curve"/>
      <point x="83.375" y="-295.4125"/>
      <point x="-1.125" y="-223.5875"/>
    </contour>
  </outline>
</glyph>
<glyph name="asterisk" format="1">
  <advance width="358.0"/>
  <unicode hex="002A"/>
  <outline>
    <contour>
      <point x="116" y="648" type="curve"/>
      <point x="121" y="605"/>
      <point x="126.992252049" y="562.340909859"/>
      <point x="128" y="518" type="curve"/>
      <point x="235" y="518"/>
      <point x="128" y="519"/>
      <point x="235" y="519" type="curve"/>
      <point x="235" y="563"/>
      <point x="239" y="602"/>
      <point x="241" y="648" type="curve"/>
      <point x="116.0" y="648.0"/>
      <point x="241" y="648"/>
    </contour>
    <contour>
      <point x="288" y="609" type="curve"/>
      <point x="249" y="589"/>
      <point x="195" y="558"/>
      <point x="160" y="541" type="curve"/>
      <point x="193" y="467"/>
      <point x="162" y="542"/>
      <point x="195" y="467" type="curve"/>
      <point x="231" y="482"/>
      <point x="285" y="492"/>
      <point x="323" y="505" type="curve"/>
      <point x="288" y="609"/>
      <point x="323" y="505"/>
    </contour>
    <contour>
      <point x="317" y="429" type="curve"/>
      <point x="289" y="459"/>
      <point x="252.000017122" y="498.999978769"/>
      <point x="227" y="530" type="curve"/>
      <point x="146" y="471"/>
      <point x="227" y="530"/>
      <point x="146" y="471" type="curve"/>
      <point x="172.0" y="437.0"/>
      <point x="199.0" y="390.0"/>
      <point x="223" y="353" type="curve"/>
      <point x="317" y="429"/>
      <point x="223" y="353"/>
    </contour>
    <contour>
      <point x="33" y="505" type="curve"/>
      <point x="77" y="492"/>
      <point x="139" y="474"/>
      <point x="175" y="463" type="curve"/>
      <point x="209" y="540"/>
      <point x="177" y="462"/>
      <point x="211" y="540" type="curve"/>
      <point x="177.825311617" y="559.10057816"/>
      <point x="121" y="583"/>
      <point x="68" y="610" type="curve"/>
      <point x="33" y="505"/>
      <point x="67.9039964195" y="609.711989258"/>
    </contour>
    <contour>
      <point x="140" y="353" type="curve"/>
      <point x="165" y="388"/>
      <point x="196" y="435"/>
      <point x="223" y="469" type="curve"/>
      <point x="142" y="529"/>
      <point x="223" y="469"/>
      <point x="141" y="528" type="curve"/>
      <point x="115" y="497"/>
      <point x="74" y="460"/>
      <point x="45" y="429" type="curve"/>
      <point x="140" y="353"/>
      <point x="45" y="429"/>
    </contour>
  </outline>
</glyph>
<glyph name="plus" format="1">
  <advance width="585.0"/>
  <unicode hex="002B"/>
  <outline>
    <contour>
      <point x="32.0" y="254.928703704" type="curve"/>
      <point x="32.0" y="254.928703704"/>
      <point x="553.0" y="255.0"/>
      <point x="553.0" y="255.0" type="curve"/>
      <point x="553.0" y="376.0"/>
      <point x="553.0" y="255.0"/>
      <point x="553.0" y="376.0" type="curve"/>
      <point x="553.0" y="376.0"/>
      <point x="32.0" y="376.478703704"/>
      <point x="32.0" y="376.478703704" type="curve"/>
      <point x="32.0" y="254.928703704"/>
      <point x="32.0" y="376.478703704"/>
    </contour>
    <contour>
      <point x="359.0" y="58.0" type="curve"/>
      <point x="359.0" y="58.0"/>
      <point x="359.0" y="578.0"/>
      <point x="359.0" y="578.0" type="curve"/>
      <point x="216.0" y="578.0"/>
      <point x="369.0" y="578.0"/>
      <point x="226.0" y="578.0" type="curve"/>
      <point x="226.0" y="578.0"/>
      <point x="226.0" y="58.0"/>
      <point x="226.0" y="58.0" type="curve"/>
      <point x="369.0" y="58.0"/>
      <point x="216.0" y="58.0"/>
    </contour>
  </outline>
</glyph>
<glyph name="comma" format="1">
  <advance width="291.0"/>
  <unicode hex="002C"/>
  <outline>
    <contour>
      <point x="144" y="-99" type="line"/>
      <point x="245" y="121" type="line"/>
      <point x="73" y="121" type="line"/>
      <point x="11" y="-99" type="line"/>
    </contour>
  </outline>
</glyph>
<glyph name="hyphen" format="1">
  <advance width="319.0"/>
  <unicode hex="002D"/>
  <outline>
    <contour>
      <point x="50.0" y="223.0" type="curve"/>
      <point x="123.0" y="223.0"/>
      <point x="196.0" y="223.0"/>
      <point x="269.0" y="223.0" type="curve"/>
      <point x="269.0" y="344.0"/>
      <point x="269.0" y="223.0"/>
      <point x="269.0" y="344.0" type="curve"/>
      <point x="196.0" y="344.0"/>
      <point x="123.0" y="344.0"/>
      <point x="50.0" y="344.0" type="curve"/>
      <point x="50.0" y="223.0"/>
      <point x="50.0" y="344.0"/>
    </contour>
  </outline>
</glyph>
<glyph name="period" format="1">
  <advance width="256.0"/>
  <unicode hex="002E"/>
  <outline>
    <contour>
      <point x="212.05" y="62.2186609687" type="curve"/>
      <point x="212.05" y="109.870903869"/>
      <point x="176.295688321" y="134.202952279"/>
      <point x="126.75" y="134.202952279" type="curve"/>
      <point x="77.2482430547" y="134.202952279"/>
      <point x="43.7" y="107.664118259"/>
      <point x="43.7" y="62.2186609687" type="curve"/>
      <point x="212.05" y="62.2186609687"/>
      <point x="43.7" y="62.2186609687"/>
      <point x="212.05" y="62.2186609687" type="curve"/>
      <point x="212.05" y="13.2650724072"/>
      <point x="176.924243738" y="-8.8945477208"/>
      <point x="126.75" y="-8.8945477208" type="curve"/>
      <point x="76.3796339292" y="-8.8945477208"/>
      <point x="43.7" y="15.3148850718"/>
      <point x="43.7" y="62.2186609687" type="curve"/>
      <point x="212.05" y="62.2186609687"/>
      <point x="43.7" y="62.2186609687"/>
    </contour>
  </outline>
</glyph>
<glyph name="slash" format="1">
  <advance width="498.0"/>
  <unicode hex="002F"/>
  <outline>
    <contour>
      <point x="161.0" y="-13.0" type="curve"/>
      <point x="267.0" y="252.0"/>
      <point x="374.0" y="517.0"/>
      <point x="480.0" y="782.0" type="curve"/>
      <point x="337.0" y="782.0"/>
      <point x="480.0" y="782.0"/>
      <point x="337.0" y="782.0" type="curve"/>
      <point x="231.0" y="517.0"/>
      <point x="124.0" y="252.0"/>
      <point x="18.0" y="-13.0" type="curve"/>
      <point x="161.0" y="-13.0"/>
      <point x="18.0" y="-13.0"/>
    </contour>
  </outline>
</glyph>
<glyph name="zero" format="1">
  <advance width="617.0"/>
  <unicode hex="0030"/>
  <outline>
    <contour>
      <point x="175.625" y="360.128917379" type="curve"/>
      <point x="175.625" y="496.955939404"/>
      <point x="186.260656148" y="611.5"/>
      <point x="303.75" y="611.5" type="curve"/>
      <point x="421.782905559" y="611.5"/>
      <point x="441.875" y="499.616983922"/>
      <point x="441.875" y="362.742165242" type="curve"/>
      <point x="441.875" y="226.089571347"/>
      <point x="431.918215235" y="110.5"/>
      <point x="314.625" y="110.5" type="curve"/>
      <point x="196.086130257" y="110.5"/>
      <point x="175.625" y="222.905439372"/>
      <point x="175.625" y="360.128917379" type="curve"/>
      <point x="39.125" y="360.128917379"/>
      <point x="175.625" y="360.128917379"/>
      <point x="39.125" y="360.128917379" type="curve"/>
      <point x="39.125" y="149.889118451"/>
      <point x="117.133533441" y="-5.0"/>
      <point x="308.125" y="-5.0" type="curve"/>
      <point x="500.52406537" y="-5.0"/>
      <point x="578.375" y="150.487193391"/>
      <point x="578.375" y="362.742165242" type="curve"/>
      <point x="578.375" y="571.858710495"/>
      <point x="505.0" y="727.0"/>
      <point x="317.0" y="727.0" type="curve"/>
      <point x="122.0" y="727.0"/>
      <point x="39.125" y="572.637772515"/>
      <point x="39.125" y="360.128917379" type="curve"/>
      <point x="175.625" y="360.128917379"/>
      <point x="39.125" y="360.128917379"/>
    </contour>
  </outline>
</glyph>
<glyph name="one" format="1">
  <advance width="360.0"/>
  <unicode hex="0031"/>
  <outline>
    <contour>
      <point x="79.0" y="475.0" type="curve"/>
      <point x="237" y="632"/>
      <point x="79" y="475"/>
      <point x="237" y="632" type="curve"/>
      <point x="161" y="722"/>
      <point x="237" y="632"/>
      <point x="161.0" y="722.0" type="curve"/>
      <point x="5.0" y="565.0"/>
      <point x="161.0" y="722.0"/>
      <point x="5.0" y="565.0" type="curve"/>
      <point x="79.0" y="475.0"/>
      <point x="5.0" y="565.0"/>
    </contour>
    <contour>
      <point x="304" y="0" type="curve"/>
      <point x="304" y="241"/>
      <point x="304" y="481"/>
      <point x="304" y="722" type="curve"/>
      <point x="161" y="722"/>
      <point x="304" y="722"/>
      <point x="161" y="722" type="curve"/>
      <point x="161" y="481"/>
      <point x="161" y="241"/>
      <point x="161" y="0" type="curve"/>
      <point x="304" y="0"/>
      <point x="161" y="0"/>
    </contour>
  </outline>
</glyph>
<glyph name="two" format="1">
  <advance width="491.0"/>
  <unicode hex="0032"/>
  <outline>
    <contour>
      <point x="36.0" y="0.0" type="curve"/>
      <point x="204.0" y="0.0"/>
      <point x="356.0" y="0.0"/>
      <point x="457.0" y="0.0" type="curve"/>
      <point x="457.0" y="110.0"/>
      <point x="457.0" y="0.0"/>
      <point x="457.0" y="110.0" type="curve"/>
      <point x="334.0" y="110.0"/>
      <point x="160.5821" y="110.5"/>
      <point x="37.25" y="110.5" type="curve"/>
      <point x="36.0" y="0.0"/>
      <point x="37.0" y="110.0"/>
    </contour>
    <contour>
      <point x="132.0" y="518.0" type="curve"/>
      <point x="163.0" y="570.0"/>
      <point x="180.699326937" y="611.5"/>
      <point x="234.875" y="611.5" type="curve"/>
      <point x="287.754641704" y="611.5"/>
      <point x="305.0" y="565.0"/>
      <point x="305.0" y="502.0" type="curve"/>
      <point x="305.0" y="410.0"/>
      <point x="263.0" y="349.0"/>
      <point x="199.0" y="282.0" type="curve"/>
      <point x="145.0" y="223.0"/>
      <point x="95.0" y="171.0"/>
      <point x="37.25" y="110.5" type="curve"/>
      <point x="36.0" y="0.0"/>
      <point x="37.0" y="110.0"/>
      <point x="36.0" y="0.0" type="curve"/>
      <point x="166.0" y="54.0"/>
      <point x="226.47125195" y="133.455405359"/>
      <point x="287.75" y="200.946011396" type="curve"/>
      <point x="380.609200421" y="296.353968574"/>
      <point x="437.0" y="375.0"/>
      <point x="437.0" y="508.0" type="curve"/>
      <point x="437.0" y="643.0"/>
      <point x="368.999137394" y="727.0"/>
      <point x="241.375" y="727.0" type="curve"/>
      <point x="139.445771952" y="727.0"/>
      <point x="71.1345412799" y="668.102047706"/>
      <point x="33.625" y="576.206267806" type="curve"/>
      <point x="132.0" y="518.0"/>
      <point x="34.0" y="576.0"/>
    </contour>
  </outline>
</glyph>
<glyph name="three" format="1">
  <advance width="464.0"/>
  <unicode hex="0033"/>
  <outline>
    <contour>
      <point x="28.25" y="60.4154202279" type="curve"/>
      <point x="81.9615533344" y="20.2962109134"/>
      <point x="127.057438756" y="-5.0"/>
      <point x="194.875" y="-5.0" type="curve"/>
      <point x="338.353801969" y="-5.0"/>
      <point x="426.875" y="72.2550269569"/>
      <point x="426.875" y="218.72724359" type="curve"/>
      <point x="426.875" y="349.06206664"/>
      <point x="334.652852928" y="428.432941595"/>
      <point x="187.25" y="428.432941595" type="curve"/>
      <point x="187.25" y="334.507941595"/>
      <point x="187.25" y="428.432941595"/>
      <point x="187.25" y="334.507941595" type="curve"/>
      <point x="247.613292903" y="334.507941595"/>
      <point x="290.375" y="284.41098762"/>
      <point x="290.375" y="213.20224359" type="curve"/>
      <point x="290.375" y="150.170578287"/>
      <point x="254.084440893" y="110.5"/>
      <point x="201.375" y="110.5" type="curve"/>
      <point x="163.567364986" y="110.5"/>
      <point x="136.909234687" y="121.633118216"/>
      <point x="106.25" y="143.290420228" type="curve"/>
      <point x="28.25" y="60.4154202279"/>
      <point x="106.25" y="143.290420228"/>
    </contour>
    <contour>
      <point x="118.75" y="561.586431624" type="curve"/>
      <point x="133.151616024" y="583.142080342"/>
      <point x="157.665149707" y="611.5"/>
      <point x="192.0" y="611.5" type="curve"/>
      <point x="241.236366312" y="611.5"/>
      <point x="265.625" y="576.641871345"/>
      <point x="265.625" y="523.307656695" type="curve"/>
      <point x="265.625" y="468.96087096"/>
      <point x="235.081022652" y="428.432941595"/>
      <point x="187.25" y="428.432941595" type="curve"/>
      <point x="187.25" y="334.507941595"/>
      <point x="187.25" y="428.432941595"/>
      <point x="187.25" y="334.507941595" type="curve"/>
      <point x="313.445958411" y="334.507941595"/>
      <point x="402.125" y="406.538419952"/>
      <point x="402.125" y="528.832656695" type="curve"/>
      <point x="402.125" y="653.576107724"/>
      <point x="327.306571952" y="727.0"/>
      <point x="205.0" y="727.0" type="curve"/>
      <point x="126.720154974" y="727.0"/>
      <point x="60" y="684"/>
      <point x="29" y="621" type="curve"/>
      <point x="119" y="562"/>
      <point x="29" y="621"/>
    </contour>
  </outline>
</glyph>
<glyph name="four" format="1">
  <advance width="490.0"/>
  <unicode hex="0034"/>
  <outline>
    <contour>
      <point x="71" y="184" type="curve"/>
      <point x="384.0" y="696.0" type="line"/>
      <point x="241.0" y="696.0"/>
      <point x="384.0" y="696.0"/>
      <point x="241.0" y="696.0" type="curve"/>
      <point x="8" y="306" type="line"/>
      <point x="71" y="184"/>
      <point x="8" y="306"/>
    </contour>
    <contour>
      <point x="460" y="306" type="curve"/>
      <point x="460" y="306"/>
      <point x="8" y="306"/>
      <point x="8" y="306" type="curve"/>
      <point x="71" y="184"/>
      <point x="8" y="306"/>
      <point x="71" y="184" type="curve"/>
      <point x="71" y="184"/>
      <point x="460" y="184"/>
      <point x="460" y="184" type="curve"/>
      <point x="460" y="306"/>
      <point x="460" y="184"/>
    </contour>
    <contour>
      <point x="244.0" y="696.0" type="curve"/>
      <point x="244.0" y="696.0"/>
      <point x="244.0" y="0.0"/>
      <point x="244" y="0" type="curve"/>
      <point x="387" y="0"/>
      <point x="241" y="0"/>
      <point x="384" y="0" type="curve"/>
      <point x="384.0" y="0.0"/>
      <point x="384.0" y="696.0"/>
      <point x="384.0" y="696.0" type="curve"/>
      <point x="241.0" y="696.0"/>
      <point x="387.0" y="696.0"/>
    </contour>
  </outline>
</glyph>
<glyph name="five" format="1">
  <advance width="463.0"/>
  <unicode hex="0035"/>
  <outline>
    <contour>
      <point x="49.625" y="722.0" type="curve"/>
      <point x="49.625" y="628.110803574"/>
      <point x="50.0" y="524.0"/>
      <point x="50.0" y="390.0" type="curve"/>
      <point x="186.0" y="347.0"/>
      <point x="50.0" y="390.0"/>
      <point x="186.0" y="347.0" type="curve"/>
      <point x="186.0" y="432.0"/>
      <point x="186.125" y="526.819044824"/>
      <point x="186.125" y="611.5" type="curve"/>
      <point x="49.625" y="722.0"/>
      <point x="186.125" y="611.5"/>
    </contour>
    <contour>
      <point x="186.0" y="347.0" type="curve"/>
      <point x="195.0" y="357.0"/>
      <point x="202.0" y="365.0"/>
      <point x="220.0" y="365.0" type="curve"/>
      <point x="275.0" y="365.0"/>
      <point x="288.25" y="308.848188941"/>
      <point x="288.25" y="241.661680912" type="curve"/>
      <point x="288.25" y="173.515552319"/>
      <point x="261.0" y="110.0"/>
      <point x="201.0" y="110.0" type="curve"/>
      <point x="164.0" y="110.0"/>
      <point x="140.163777146" y="121.414057527"/>
      <point x="110.125" y="142.431552707" type="curve"/>
      <point x="37" y="56"/>
      <point x="110" y="142"/>
      <point x="37" y="56" type="curve"/>
      <point x="89" y="10"/>
      <point x="134.0" y="-5.0"/>
      <point x="194.0" y="-5.0" type="curve"/>
      <point x="333.0" y="-5.0"/>
      <point x="431.25" y="99.5468073017"/>
      <point x="431.25" y="241.661680912" type="curve"/>
      <point x="431.25" y="379.033867489"/>
      <point x="359.0" y="483.0"/>
      <point x="226.0" y="483.0" type="curve"/>
      <point x="166.0" y="483.0"/>
      <point x="96.0" y="447.0"/>
      <point x="50.0" y="390.0" type="curve"/>
      <point x="186.0" y="347.0"/>
      <point x="50.0" y="390.0"/>
    </contour>
    <contour>
      <point x="404.0" y="722.0" type="curve"/>
      <point x="299.0" y="722.0"/>
      <point x="154.74894875" y="722.0"/>
      <point x="49.625" y="722.0" type="curve"/>
      <point x="186.125" y="611.5"/>
      <point x="49.625" y="722.0"/>
      <point x="186.125" y="611.5" type="curve"/>
      <point x="245.74940375" y="611.5"/>
      <point x="344.0" y="612.0"/>
      <point x="404.0" y="612.0" type="curve"/>
      <point x="404.0" y="722.0"/>
      <point x="404.0" y="612.0"/>
    </contour>
  </outline>
</glyph>
<glyph name="six" format="1">
  <advance width="510.0"/>
  <unicode hex="0036"/>
  <outline>
    <contour>
      <point x="151.0" y="224.0" type="curve"/>
      <point x="166.0" y="287.0"/>
      <point x="200.0" y="335.0"/>
      <point x="263.0" y="335.0" type="curve"/>
      <point x="321.0" y="335.0"/>
      <point x="338.0" y="285.0"/>
      <point x="338.0" y="220.0" type="curve"/>
      <point x="338.0" y="164.0"/>
      <point x="320.0" y="120.0"/>
      <point x="270.0" y="120.0" type="curve"/>
      <point x="198.0" y="120.0"/>
      <point x="171.0" y="180.0"/>
      <point x="171.0" y="260.0" type="curve"/>
      <point x="171.0" y="446.0"/>
      <point x="294" y="568"/>
      <point x="452" y="615" type="curve"/>
      <point x="410" y="728"/>
      <point x="452" y="615"/>
      <point x="410.0" y="728.0" type="curve"/>
      <point x="172.0" y="648.0"/>
      <point x="34.0" y="502.0"/>
      <point x="34.0" y="254.0" type="curve"/>
      <point x="34.0" y="96.0"/>
      <point x="114.0" y="-12.0"/>
      <point x="264.0" y="-12.0" type="curve"/>
      <point x="403.0" y="-12.0"/>
      <point x="481.0" y="83.0"/>
      <point x="481.0" y="226.0" type="curve"/>
      <point x="481.0" y="363.0"/>
      <point x="404.0" y="451.0"/>
      <point x="271.0" y="451.0" type="curve"/>
      <point x="152.0" y="451.0"/>
      <point x="89.0" y="332.0"/>
      <point x="84.0" y="252.0" type="curve"/>
      <point x="151.0" y="224.0"/>
      <point x="84.0" y="252.0"/>
    </contour>
  </outline>
</glyph>
<glyph name="seven" format="1">
  <advance width="447.0"/>
  <unicode hex="0037"/>
  <outline>
    <contour>
      <point x="37.0" y="612.0" type="curve"/>
      <point x="167.0" y="612.0"/>
      <point x="217.0" y="612.0"/>
      <point x="431.0" y="612.0" type="curve"/>
      <point x="431.0" y="722.0"/>
      <point x="431.0" y="612.0"/>
      <point x="431.0" y="722.0" type="curve"/>
      <point x="249.0" y="722.0"/>
      <point x="141.0" y="722.0"/>
      <point x="37.0" y="722.0" type="curve"/>
      <point x="37.0" y="612.0"/>
      <point x="37.0" y="722.0"/>
    </contour>
    <contour>
      <point x="349.0" y="722.0" type="curve"/>
      <point x="23.0" y="0.0"/>
      <point x="349.0" y="722.0"/>
      <point x="23.0" y="0.0" type="curve"/>
      <point x="165.0" y="0.0"/>
      <point x="23.0" y="0.0"/>
      <point x="165.0" y="0.0" type="curve"/>
      <point x="431.0" y="612.0"/>
      <point x="165.0" y="0.0"/>
      <point x="431.0" y="612.0" type="curve"/>
      <point x="349.0" y="722.0"/>
      <point x="431.0" y="612.0"/>
    </contour>
  </outline>
</glyph>
<glyph name="eight" format="1">
  <advance width="509.0"/>
  <unicode hex="0038"/>
  <outline>
    <contour>
      <point x="53.0" y="536.0" type="curve"/>
      <point x="53.0" y="432.0"/>
      <point x="121.0" y="390.0"/>
      <point x="213.0" y="338.0" type="curve"/>
      <point x="279.0" y="299.0"/>
      <point x="327.0" y="265.0"/>
      <point x="327.0" y="195.0" type="curve"/>
      <point x="327.0" y="144.0"/>
      <point x="304.0" y="111.0"/>
      <point x="256.0" y="111.0" type="curve"/>
      <point x="206.0" y="111.0"/>
      <point x="182.0" y="143.0"/>
      <point x="182.0" y="195.0" type="curve"/>
      <point x="182.0" y="267.0"/>
      <point x="231.0" y="297.0"/>
      <point x="298.0" y="337.0" type="curve"/>
      <point x="387.0" y="390.0"/>
      <point x="456.0" y="432.0"/>
      <point x="456.0" y="534.0" type="curve"/>
      <point x="456.0" y="659.0"/>
      <point x="383.0" y="727.0"/>
      <point x="256.0" y="727.0" type="curve"/>
      <point x="131.0" y="727.0"/>
      <point x="53.0" y="658.0"/>
      <point x="53.0" y="536.0" type="curve"/>
      <point x="196.0" y="536.0"/>
      <point x="53.0" y="536.0"/>
      <point x="196.0" y="536.0" type="curve"/>
      <point x="196.0" y="579.0"/>
      <point x="210.0" y="612.0"/>
      <point x="249.0" y="612.0" type="curve"/>
      <point x="293.0" y="612.0"/>
      <point x="313.0" y="581.0"/>
      <point x="313.0" y="534.0" type="curve"/>
      <point x="313.0" y="474.0"/>
      <point x="268.0" y="448.0"/>
      <point x="212.0" y="416.0" type="curve"/>
      <point x="111.0" y="357.0"/>
      <point x="39.0" y="309.0"/>
      <point x="39.0" y="195.0" type="curve"/>
      <point x="39.0" y="66.0"/>
      <point x="118.0" y="-5.0"/>
      <point x="249.0" y="-5.0" type="curve"/>
      <point x="384.0" y="-5.0"/>
      <point x="470.0" y="64.0"/>
      <point x="470.0" y="195.0" type="curve"/>
      <point x="470.0" y="308.0"/>
      <point x="398.0" y="359.0"/>
      <point x="299.0" y="417.0" type="curve"/>
      <point x="242.0" y="451.0"/>
      <point x="196.0" y="474.0"/>
      <point x="196.0" y="536.0" type="curve"/>
      <point x="53.0" y="536.0"/>
      <point x="196.0" y="536.0"/>
    </contour>
  </outline>
</glyph>
<glyph name="nine" format="1">
  <advance width="509.0"/>
  <unicode hex="0039"/>
  <outline>
    <contour>
      <point x="368.0" y="475.0" type="curve"/>
      <point x="344.0" y="409.0"/>
      <point x="312.393351136" y="387.21798433"/>
      <point x="249.75" y="387.21798433" type="curve"/>
      <point x="191.498318714" y="387.21798433"/>
      <point x="164.0" y="437.0"/>
      <point x="164.0" y="502.0" type="curve"/>
      <point x="164.0" y="558.0"/>
      <point x="189.0" y="602.0"/>
      <point x="239.0" y="602.0" type="curve"/>
      <point x="311.0" y="602.0"/>
      <point x="336.625" y="541.8539649"/>
      <point x="336.625" y="462.331873219" type="curve"/>
      <point x="336.625" y="276.160074866"/>
      <point x="246.973910805" y="157.617008088"/>
      <point x="71.25" y="93.6509259259" type="curve"/>
      <point x="126.0" y="-15.0"/>
      <point x="71.0" y="94.0"/>
      <point x="126.0" y="-15.0" type="curve"/>
      <point x="330.0" y="58.0"/>
      <point x="473.125" y="220.12544096"/>
      <point x="473.125" y="467.856873219" type="curve"/>
      <point x="473.125" y="625.806471266"/>
      <point x="393.653181177" y="733.980876068"/>
      <point x="243.875" y="733.980876068" type="curve"/>
      <point x="104.98923119" y="733.980876068"/>
      <point x="27.0" y="639.08595394"/>
      <point x="27.0" y="496.304095442" type="curve"/>
      <point x="27.0" y="359.432531406"/>
      <point x="103.736382188" y="271.19298433"/>
      <point x="236.75" y="271.19298433" type="curve"/>
      <point x="350.063027772" y="271.19298433"/>
      <point x="409.0" y="376.0"/>
      <point x="436.0" y="448.0" type="curve"/>
      <point x="368.0" y="475.0"/>
      <point x="436.0" y="448.0"/>
    </contour>
  </outline>
</glyph>
<glyph name="colon" format="1">
  <advance width="268.0"/>
  <unicode hex="003A"/>
  <outline>
    <contour>
      <point x="218.0" y="377.0" type="curve"/>
      <point x="218.0" y="425.0"/>
      <point x="182.0" y="449.0"/>
      <point x="133.0" y="449.0" type="curve"/>
      <point x="83.0" y="449.0"/>
      <point x="50.0" y="423.0"/>
      <point x="50.0" y="377.0" type="curve"/>
      <point x="218.0" y="377.0"/>
      <point x="50.0" y="377.0"/>
      <point x="218.0" y="377.0" type="curve"/>
      <point x="218.0" y="328.0"/>
      <point x="183.0" y="306.0"/>
      <point x="133.0" y="306.0" type="curve"/>
      <point x="82.0" y="306.0"/>
      <point x="50.0" y="330.0"/>
      <point x="50.0" y="377.0" type="curve"/>
      <point x="218.0" y="377.0"/>
      <point x="50.0" y="377.0"/>
    </contour>
    <contour>
      <point x="218.05" y="62.2186609687" type="curve"/>
      <point x="218.05" y="109.870903869"/>
      <point x="182.295688321" y="134.202952279"/>
      <point x="132.75" y="134.202952279" type="curve"/>
      <point x="83.2482430547" y="134.202952279"/>
      <point x="49.7" y="107.664118259"/>
      <point x="49.7" y="62.2186609687" type="curve"/>
      <point x="218.05" y="62.2186609687"/>
      <point x="49.7" y="62.2186609687"/>
      <point x="218.05" y="62.2186609687" type="curve"/>
      <point x="218.05" y="13.2650724072"/>
      <point x="183.0" y="-9.0"/>
      <point x="133.0" y="-9.0" type="curve"/>
      <point x="82.0" y="-9.0"/>
      <point x="49.7" y="15.3148850718"/>
      <point x="49.7" y="62.2186609687" type="curve"/>
      <point x="218.05" y="62.2186609687"/>
      <point x="49.7" y="62.2186609687"/>
    </contour>
  </outline>
</glyph>
<glyph name="semicolon" format="1">
  <advance width="293.0"/>
  <unicode hex="003B"/>
  <outline>
    <contour>
      <point x="230.0" y="377.0" type="curve"/>
      <point x="230.0" y="425.0"/>
      <point x="194.0" y="449.0"/>
      <point x="145.0" y="449.0" type="curve"/>
      <point x="95.0" y="449.0"/>
      <point x="62.0" y="423.0"/>
      <point x="62.0" y="377.0" type="curve"/>
      <point x="230.0" y="377.0"/>
      <point x="62.0" y="377.0"/>
      <point x="230.0" y="377.0" type="curve"/>
      <point x="230.0" y="328.0"/>
      <point x="195.0" y="306.0"/>
      <point x="145.0" y="306.0" type="curve"/>
      <point x="94.0" y="306.0"/>
      <point x="62.0" y="330.0"/>
      <point x="62.0" y="377.0" type="curve"/>
      <point x="230.0" y="377.0"/>
      <point x="62.0" y="377.0"/>
    </contour>
    <component base="comma" xOffset="-2.0" yOffset="-39.0"/>
  </outline>
</glyph>
<glyph name="less" format="1">
  <advance width="532.0"/>
  <unicode hex="003C"/>
  <outline>
    <contour>
      <point x="481.25" y="630.775" type="curve"/>
      <point x="24.5" y="360.775" type="line"/>
      <point x="24.5" y="239.225"/>
      <point x="24.5" y="360.775"/>
      <point x="24.5" y="239.225" type="curve"/>
      <point x="481.25" y="509.225" type="line"/>
      <point x="481.25" y="630.775"/>
      <point x="481.25" y="509.225"/>
    </contour>
    <contour>
      <point x="488.75" y="96.775" type="curve"/>
      <point x="24.5" y="360.775" type="line"/>
      <point x="24.5" y="239.225"/>
      <point x="24.5" y="360.775"/>
      <point x="24.5" y="239.225" type="curve"/>
      <point x="488.75" y="-24.775" type="line"/>
      <point x="488.75" y="96.775"/>
      <point x="488.75" y="-24.775"/>
    </contour>
  </outline>
</glyph>
<glyph name="equal" format="1">
  <advance width="575.0"/>
  <unicode hex="003D"/>
  <outline>
    <contour>
      <point x="51.5" y="159.4875" type="curve"/>
      <point x="208.7484275" y="159.4875"/>
      <point x="366.0015725" y="159.4875"/>
      <point x="523.25" y="159.4875" type="curve"/>
      <point x="523.25" y="275.5125"/>
      <point x="523.25" y="159.4875"/>
      <point x="523.25" y="275.5125" type="curve"/>
      <point x="366.0015725" y="275.5125"/>
      <point x="208.7484275" y="275.5125"/>
      <point x="51.5" y="275.5125" type="curve"/>
      <point x="51.5" y="159.4875"/>
      <point x="51.5" y="275.5125"/>
    </contour>
    <contour>
      <point x="51.5" y="381.4875" type="curve"/>
      <point x="208.7484275" y="381.4875"/>
      <point x="366.0015725" y="381.4875"/>
      <point x="523.25" y="381.4875" type="curve"/>
      <point x="523.25" y="497.5125"/>
      <point x="523.25" y="381.4875"/>
      <point x="523.25" y="497.5125" type="curve"/>
      <point x="366.0015725" y="497.5125"/>
      <point x="208.7484275" y="497.5125"/>
      <point x="51.5" y="497.5125" type="curve"/>
      <point x="51.5" y="381.4875"/>
      <point x="51.5" y="497.5125"/>
    </contour>
  </outline>
</glyph>
<glyph name="greater" format="1">
  <advance width="534.0"/>
  <unicode hex="003E"/>
  <outline>
    <contour>
      <point x="51.25" y="-24.775" type="curve"/>
      <point x="508.0" y="245.225" type="line"/>
      <point x="508.0" y="366.775"/>
      <point x="508.0" y="245.225"/>
      <point x="508.0" y="366.775" type="curve"/>
      <point x="51.25" y="96.775" type="line"/>
      <point x="51.25" y="-24.775"/>
      <point x="51.25" y="96.775"/>
    </contour>
    <contour>
      <point x="43.75" y="509.225" type="curve"/>
      <point x="508.0" y="245.225" type="line"/>
      <point x="508.0" y="366.775"/>
      <point x="508.0" y="245.225"/>
      <point x="508.0" y="366.775" type="curve"/>
      <point x="43.75" y="630.775" type="line"/>
      <point x="43.75" y="509.225"/>
      <point x="43.75" y="630.775"/>
    </contour>
  </outline>
</glyph>
<glyph name="question" format="1">
  <advance width="369.0"/>
  <unicode hex="003F"/>
  <outline>
    <contour>
      <point x="60.0" y="380.0" type="curve"/>
      <point x="60.0" y="343.0"/>
      <point x="60.25" y="258.33296"/>
      <point x="60.25" y="221.0" type="curve"/>
      <point x="203.25" y="221.0"/>
      <point x="60.25" y="221.0"/>
      <point x="203.25" y="221.0" type="curve"/>
      <point x="203.25" y="258.33296"/>
      <point x="203.0" y="343.0"/>
      <point x="203.0" y="380.0" type="curve"/>
      <point x="60.0" y="380.0"/>
      <point x="203.0" y="380.0"/>
    </contour>
    <contour>
      <point x="98.0" y="627.0" type="curve"/>
      <point x="112.558689389" y="634.279344695"/>
      <point x="120" y="636"/>
      <point x="135" y="636" type="curve"/>
      <point x="190" y="636"/>
      <point x="207.0" y="586.155172414"/>
      <point x="207.0" y="518.0" type="curve"/>
      <point x="207.0" y="444.0"/>
      <point x="174" y="380"/>
      <point x="69" y="380" type="curve"/>
      <point x="68" y="263"/>
      <point x="69" y="380"/>
      <point x="68" y="263" type="curve"/>
      <point x="241" y="263"/>
      <point x="343.0" y="372.0"/>
      <point x="343.0" y="518.0" type="curve"/>
      <point x="343.0" y="652.0"/>
      <point x="269.0" y="753.0"/>
      <point x="143.0" y="753.0" type="curve"/>
      <point x="110.0" y="753.0"/>
      <point x="71" y="746"/>
      <point x="36" y="721" type="curve"/>
      <point x="98" y="627"/>
      <point x="36" y="721"/>
    </contour>
    <contour>
      <point x="216.0" y="63.0" type="curve"/>
      <point x="216.0" y="111.0"/>
      <point x="183.0" y="135.0"/>
      <point x="132.0" y="135.0" type="curve"/>
      <point x="84.0" y="135.0"/>
      <point x="48.0" y="108.0"/>
      <point x="48.0" y="63.0" type="curve"/>
      <point x="216.0" y="63.0"/>
      <point x="48.0" y="63.0"/>
      <point x="216.0" y="63.0" type="curve"/>
      <point x="216.0" y="13.0"/>
      <point x="183.0" y="-8.0"/>
      <point x="132.0" y="-8.0" type="curve"/>
      <point x="83.0" y="-8.0"/>
      <point x="48.0" y="17.0"/>
      <point x="48.0" y="63.0" type="curve"/>
      <point x="216.0" y="63.0"/>
      <point x="48.0" y="63.0"/>
    </contour>
  </outline>
</glyph>
<glyph name="at" format="1">
  <advance width="709.0"/>
  <unicode hex="0040"/>
  <outline>
    <contour>
      <point x="460.0" y="-4.0" type="curve"/>
      <point x="430.0" y="-23.0"/>
      <point x="407.0" y="-31.0"/>
      <point x="371.0" y="-31.0" type="curve"/>
      <point x="239.0" y="-31.0"/>
      <point x="159.0" y="71.0"/>
      <point x="159.0" y="214.0" type="curve"/>
      <point x="159.0" y="350.0"/>
      <point x="233.0" y="447.0"/>
      <point x="359.0" y="447.0" type="curve"/>
      <point x="481.0" y="447.0"/>
      <point x="553.0" y="348.0"/>
      <point x="553.0" y="213.0" type="curve"/>
      <point x="553.0" y="167.0"/>
      <point x="554.0" y="127.0"/>
      <point x="537.0" y="127.0" type="curve"/>
      <point x="523.0" y="127.0"/>
      <point x="524.0" y="167.0"/>
      <point x="524.0" y="218.0" type="curve"/>
      <point x="524.0" y="332.0"/>
      <point x="465.0" y="412.0"/>
      <point x="357.0" y="412.0" type="curve"/>
      <point x="238.0" y="412.0"/>
      <point x="189.0" y="335.0"/>
      <point x="189.0" y="214.0" type="curve"/>
      <point x="189.0" y="92.0"/>
      <point x="233.0" y="10.0"/>
      <point x="346.0" y="10.0" type="curve"/>
      <point x="448.0" y="10.0"/>
      <point x="491.0" y="88.0"/>
      <point x="504.0" y="198.0" type="curve"/>
      <point x="413.0" y="220.0"/>
      <point x="504.0" y="198.0"/>
      <point x="413.0" y="220.0" type="curve"/>
      <point x="403.0" y="170.0"/>
      <point x="409.0" y="120.0"/>
      <point x="361.0" y="120.0" type="curve"/>
      <point x="325.0" y="120.0"/>
      <point x="315.0" y="165.0"/>
      <point x="315.0" y="220.0" type="curve"/>
      <point x="315.0" y="263.0"/>
      <point x="317.0" y="301.0"/>
      <point x="351.0" y="301.0" type="curve"/>
      <point x="395.0" y="301.0"/>
      <point x="394.0" y="261.0"/>
      <point x="394.0" y="212.0" type="curve"/>
      <point x="394.0" y="104.0"/>
      <point x="428.0" y="22.0"/>
      <point x="526.0" y="22.0" type="curve"/>
      <point x="630.0" y="22.0"/>
      <point x="672.0" y="104.0"/>
      <point x="672.0" y="219.0" type="curve"/>
      <point x="672.0" y="425.0"/>
      <point x="559.0" y="562.0"/>
      <point x="362.0" y="562.0" type="curve"/>
      <point x="152.0" y="562.0"/>
      <point x="34.0" y="424.0"/>
      <point x="34.0" y="208.0" type="curve"/>
      <point x="34.0" y="-5.0"/>
      <point x="158.0" y="-142.0"/>
      <point x="365.0" y="-142.0" type="curve"/>
      <point x="428.0" y="-142.0"/>
      <point x="462.0" y="-132.0"/>
      <point x="515.0" y="-98.0" type="curve"/>
      <point x="460.0" y="-4.0"/>
      <point x="515.0" y="-98.0"/>
    </contour>
  </outline>
</glyph>
<glyph name="A" format="1">
  <advance width="582.0"/>
  <unicode hex="0041"/>
  <outline>
    <contour>
      <point x="296.0" y="843.0" type="move" name="top"/>
    </contour>
    <contour>
      <point x="552.0" y="7.0" type="move" name="bottom"/>
    </contour>
    <contour>
      <point x="403" y="294" type="curve"/>
      <point x="331" y="294"/>
      <point x="258" y="294"/>
      <point x="186" y="294" type="curve"/>
      <point x="127" y="177"/>
      <point x="186" y="294"/>
      <point x="127" y="177" type="curve"/>
      <point x="234" y="177"/>
      <point x="342" y="177"/>
      <point x="449" y="177" type="curve"/>
      <point x="403" y="294"/>
      <point x="449" y="177"/>
    </contour>
    <contour>
      <point x="574.0" y="0.0" type="curve"/>
      <point x="503" y="241"/>
      <point x="431.0" y="481.0"/>
      <point x="363.0" y="722.0" type="curve"/>
      <point x="233.0" y="722.0"/>
      <point x="363.0" y="722.0"/>
      <point x="233.0" y="722.0" type="curve"/>
      <point x="299.0" y="482.0"/>
      <point x="358.0" y="240.0"/>
      <point x="425.0" y="0.0" type="curve"/>
      <point x="574.0" y="0.0"/>
      <point x="425.0" y="0.0"/>
    </contour>
    <contour>
      <point x="150.0" y="0.0" type="curve"/>
      <point x="224.0" y="240.0"/>
      <point x="287.0" y="482.0"/>
      <point x="362.0" y="722.0" type="curve"/>
      <point x="232.0" y="722.0"/>
      <point x="362.0" y="722.0"/>
      <point x="232.0" y="722.0" type="curve"/>
      <point x="156.0" y="480.0"/>
      <point x="76" y="242"/>
      <point x="-6.0" y="0.0" type="curve"/>
      <point x="150.0" y="0.0"/>
      <point x="-6.0" y="0.0"/>
    </contour>
  </outline>
</glyph>
<glyph name="B" format="1">
  <advance width="540.0"/>
  <unicode hex="0042"/>
  <outline>
    <contour>
      <point x="130.0" y="612.0" type="curve"/>
      <point x="184.0" y="612.0"/>
      <point x="219.0" y="612.0"/>
      <point x="273.0" y="612.0" type="curve"/>
      <point x="315.0" y="612.0"/>
      <point x="331.0" y="577.0"/>
      <point x="331.0" y="530.0" type="curve"/>
      <point x="331.0" y="489.0"/>
      <point x="315.0" y="459.0"/>
      <point x="277.0" y="459.0" type="curve"/>
      <point x="222.0" y="459.0"/>
      <point x="185.0" y="459.0"/>
      <point x="130.0" y="459.0" type="curve"/>
      <point x="130.0" y="417.0"/>
      <point x="130.0" y="390.0"/>
      <point x="130.0" y="348.0" type="curve"/>
      <point x="164.0" y="348.0"/>
      <point x="186.0" y="348.0"/>
      <point x="220.0" y="348.0" type="curve"/>
      <point x="338.0" y="348.0"/>
      <point x="472.0" y="398.0"/>
      <point x="472.0" y="530.0" type="curve"/>
      <point x="472.0" y="652.0"/>
      <point x="397.0" y="722.0"/>
      <point x="273.0" y="722.0" type="curve"/>
      <point x="219.0" y="722.0"/>
      <point x="184.0" y="722.0"/>
      <point x="130.0" y="722.0" type="curve"/>
      <point x="130.0" y="680.0"/>
      <point x="130.0" y="654.0"/>
    </contour>
    <contour>
      <point x="213.0" y="0.0" type="curve"/>
      <point x="213.0" y="241.0"/>
      <point x="213.0" y="481.0"/>
      <point x="213.0" y="722.0" type="curve"/>
      <point x="64.0" y="722.0"/>
      <point x="213.0" y="722.0"/>
      <point x="64.0" y="722.0" type="curve"/>
      <point x="64.0" y="481.0"/>
      <point x="64.0" y="241.0"/>
      <point x="64.0" y="0.0" type="curve"/>
      <point x="213.0" y="0.0"/>
      <point x="64.0" y="0.0"/>
    </contour>
    <contour>
      <point x="130.0" y="348.0" type="curve"/>
      <point x="185.0" y="348.0"/>
      <point x="222.0" y="348.0"/>
      <point x="277.0" y="348.0" type="curve"/>
      <point x="341.0" y="348.0"/>
      <point x="366.0" y="295.0"/>
      <point x="366.0" y="224.0" type="curve"/>
      <point x="366.0" y="157.0"/>
      <point x="339.0" y="110.0"/>
      <point x="278.0" y="110.0" type="curve"/>
      <point x="222.0" y="110.0"/>
      <point x="186.0" y="110.0"/>
      <point x="130.0" y="110.0" type="curve"/>
      <point x="130.0" y="68.0"/>
      <point x="130.0" y="42.0"/>
      <point x="130.0" y="0.0" type="curve"/>
      <point x="186.0" y="0.0"/>
      <point x="222.0" y="0.0"/>
      <point x="278.0" y="0.0" type="curve"/>
      <point x="421.0" y="0.0"/>
      <point x="509.0" y="82.0"/>
      <point x="509.0" y="224.0" type="curve"/>
      <point x="509.0" y="383.0"/>
      <point x="376.0" y="459.0"/>
      <point x="220.0" y="459.0" type="curve"/>
      <point x="186.0" y="459.0"/>
      <point x="164.0" y="459.0"/>
      <point x="130.0" y="459.0" type="curve"/>
      <point x="130.0" y="417.0"/>
      <point x="130.0" y="390.0"/>
    </contour>
  </outline>
</glyph>
<glyph name="C" format="1">
  <advance width="561.0"/>
  <unicode hex="0043"/>
  <outline>
    <contour>
      <point x="340.0" y="842.0" type="move" name="top"/>
    </contour>
    <contour>
      <point x="303.0" y="96.0" type="move" name="bottom"/>
    </contour>
    <contour>
      <point x="539" y="646" type="curve"/>
      <point x="486" y="696"/>
      <point x="420.0" y="727.0"/>
      <point x="343.0" y="727.0" type="curve"/>
      <point x="135.0" y="727.0"/>
      <point x="36.0" y="571.0"/>
      <point x="36.0" y="345.0" type="curve"/>
      <point x="36.0" y="138.0"/>
      <point x="129.0" y="-5.0"/>
      <point x="321.0" y="-5.0" type="curve"/>
      <point x="424.0" y="-5.0"/>
      <point x="494.0" y="29.0"/>
      <point x="555.0" y="99.0" type="curve"/>
      <point x="472.0" y="181.0"/>
      <point x="555.0" y="99.0"/>
      <point x="472.0" y="181.0" type="curve"/>
      <point x="428.0" y="138.0"/>
      <point x="390.0" y="110.0"/>
      <point x="328.0" y="110.0" type="curve"/>
      <point x="211.0" y="110.0"/>
      <point x="179.0" y="216.0"/>
      <point x="179.0" y="350.0" type="curve"/>
      <point x="179.0" y="496.0"/>
      <point x="210.0" y="612.0"/>
      <point x="336.0" y="612.0" type="curve"/>
      <point x="386.0" y="612.0"/>
      <point x="429.0" y="593.0"/>
      <point x="465.0" y="566.0" type="curve"/>
      <point x="539" y="646"/>
      <point x="465" y="566"/>
    </contour>
  </outline>
</glyph>
<glyph name="D" format="1">
  <advance width="622.0"/>
  <unicode hex="0044"/>
  <outline>
    <contour>
      <point x="257.0" y="842.0" type="move" name="top"/>
    </contour>
    <contour>
      <point x="64.0" y="722.0" type="curve"/>
      <point x="64.0" y="481.0"/>
      <point x="64.0" y="241.0"/>
      <point x="64.0" y="0.0" type="curve"/>
      <point x="207.0" y="0.0"/>
      <point x="64.0" y="0.0"/>
      <point x="207.0" y="0.0" type="curve"/>
      <point x="207.0" y="241.0"/>
      <point x="207.0" y="481.0"/>
      <point x="207.0" y="722.0" type="curve"/>
      <point x="64.0" y="722.0"/>
      <point x="207.0" y="722.0"/>
    </contour>
    <contour>
      <point x="137.0" y="0.0" type="curve"/>
      <point x="185.0" y="0.0"/>
      <point x="233.0" y="0.0"/>
      <point x="282.0" y="0.0" type="curve"/>
      <point x="491.0" y="0.0"/>
      <point x="586.0" y="134.0"/>
      <point x="586.0" y="354.0" type="curve"/>
      <point x="586.0" y="581.0"/>
      <point x="494.0" y="722.0"/>
      <point x="280.0" y="722.0" type="curve"/>
      <point x="233.0" y="722.0"/>
      <point x="185.0" y="722.0"/>
      <point x="137.0" y="722.0" type="curve"/>
      <point x="137.0" y="612.0"/>
      <point x="137.0" y="722.0"/>
      <point x="137.0" y="612.0" type="curve"/>
      <point x="183.0" y="612.0"/>
      <point x="228.0" y="612.0"/>
      <point x="274.0" y="612.0" type="curve"/>
      <point x="410.0" y="612.0"/>
      <point x="443.0" y="502.0"/>
      <point x="443.0" y="348.0" type="curve"/>
      <point x="443.0" y="210.0"/>
      <point x="416.0" y="110.0"/>
      <point x="295.0" y="110.0" type="curve"/>
      <point x="242.0" y="110.0"/>
      <point x="190.0" y="110.0"/>
      <point x="137.0" y="110.0" type="curve"/>
      <point x="137.0" y="0.0"/>
      <point x="137.0" y="110.0"/>
    </contour>
  </outline>
</glyph>
<glyph name="E" format="1">
  <advance width="480.0"/>
  <unicode hex="0045"/>
  <outline>
    <contour>
      <point x="230.0" y="842.0" type="move" name="top"/>
    </contour>
    <contour>
      <point x="434.0" y="14.0" type="move" name="bottom"/>
    </contour>
    <contour>
      <point x="139.0" y="317.0" type="curve"/>
      <point x="220.0" y="317.0"/>
      <point x="303.0" y="317.0"/>
      <point x="385.0" y="317.0" type="curve"/>
      <point x="385.0" y="428.0"/>
      <point x="385.0" y="317.0"/>
      <point x="385.0" y="428.0" type="curve"/>
      <point x="303.0" y="428.0"/>
      <point x="220.0" y="428.0"/>
      <point x="139.0" y="428.0" type="curve"/>
      <point x="139.0" y="317.0"/>
      <point x="139.0" y="428.0"/>
    </contour>
    <contour>
      <point x="127.0" y="612.0" type="curve"/>
      <point x="229.0" y="612.0"/>
      <point x="330.0" y="612.0"/>
      <point x="432.0" y="612.0" type="curve"/>
      <point x="432.0" y="722.0"/>
      <point x="432.0" y="612.0"/>
      <point x="432.0" y="722.0" type="curve"/>
      <point x="330.0" y="722.0"/>
      <point x="229.0" y="722.0"/>
      <point x="127.0" y="722.0" type="curve"/>
      <point x="127.0" y="612.0"/>
      <point x="127.0" y="722.0"/>
    </contour>
    <contour>
      <point x="207.0" y="0.0" type="curve"/>
      <point x="207.0" y="0.0"/>
      <point x="207.0" y="722.0"/>
      <point x="207.0" y="722.0" type="curve"/>
      <point x="64.0" y="722.0"/>
      <point x="207.0" y="722.0"/>
      <point x="64.0" y="722.0" type="curve"/>
      <point x="64.0" y="481.0"/>
      <point x="64.0" y="241.0"/>
      <point x="64.0" y="0.0" type="curve"/>
      <point x="207.0" y="0.0"/>
      <point x="64.0" y="0.0"/>
    </contour>
    <contour>
      <point x="127.0" y="0.0" type="curve"/>
      <point x="237.0" y="0.0"/>
      <point x="347.0" y="0.0"/>
      <point x="457.0" y="0.0" type="curve"/>
      <point x="457.0" y="110.0"/>
      <point x="457.0" y="0.0"/>
      <point x="457.0" y="110.0" type="curve"/>
      <point x="347.0" y="110.0"/>
      <point x="237.0" y="110.0"/>
      <point x="127.0" y="110.0" type="curve"/>
      <point x="127.0" y="0.0"/>
      <point x="127.0" y="110.0"/>
    </contour>
  </outline>
</glyph>
<glyph name="F" format="1">
  <advance width="457.0"/>
  <unicode hex="0046"/>
  <outline>
    <contour>
      <point x="138.0" y="317.0" type="curve"/>
      <point x="219.0" y="317.0"/>
      <point x="299.0" y="317.0"/>
      <point x="380.0" y="317.0" type="curve"/>
      <point x="380.0" y="428.0"/>
      <point x="380.0" y="317.0"/>
      <point x="380.0" y="428.0" type="curve"/>
      <point x="299.0" y="428.0"/>
      <point x="219.0" y="428.0"/>
      <point x="138.0" y="428.0" type="curve"/>
      <point x="138.0" y="317.0"/>
      <point x="138.0" y="428.0"/>
    </contour>
    <contour>
      <point x="207.0" y="0.0" type="curve"/>
      <point x="207.0" y="0.0"/>
      <point x="207.0" y="722.0"/>
      <point x="207.0" y="722.0" type="curve"/>
      <point x="64.0" y="722.0"/>
      <point x="207.0" y="722.0"/>
      <point x="64.0" y="722.0" type="curve"/>
      <point x="64.0" y="481.0"/>
      <point x="64.0" y="241.0"/>
      <point x="64.0" y="0.0" type="curve"/>
      <point x="207.0" y="0.0"/>
      <point x="64.0" y="0.0"/>
    </contour>
    <contour>
      <point x="127.0" y="612.0" type="curve"/>
      <point x="229.0" y="612.0"/>
      <point x="332.0" y="612.0"/>
      <point x="435.0" y="612.0" type="curve"/>
      <point x="435.0" y="722.0"/>
      <point x="435.0" y="612.0"/>
      <point x="435.0" y="722.0" type="curve"/>
      <point x="332.0" y="722.0"/>
      <point x="229.0" y="722.0"/>
      <point x="127.0" y="722.0" type="curve"/>
      <point x="127.0" y="612.0"/>
      <point x="127.0" y="722.0"/>
    </contour>
  </outline>
</glyph>
<glyph name="G" format="1">
  <advance width="637.0"/>
  <unicode hex="0047"/>
  <outline>
    <contour>
      <point x="333.0" y="842.0" type="move" name="top"/>
    </contour>
    <contour>
      <point x="354.0" y="24.0" type="move" name="bottom"/>
    </contour>
    <contour>
      <point x="558" y="370" type="curve"/>
      <point x="503" y="370"/>
      <point x="448" y="370"/>
      <point x="393" y="370" type="curve"/>
      <point x="393" y="260"/>
      <point x="393" y="370"/>
      <point x="393" y="260" type="curve"/>
      <point x="448" y="260"/>
      <point x="503" y="260"/>
      <point x="558" y="260" type="curve"/>
      <point x="558" y="370"/>
      <point x="558" y="260"/>
    </contour>
    <contour>
      <point x="595.375" y="78.7081552707" type="curve"/>
      <point x="595.375" y="175.83200596"/>
      <point x="595.375" y="272.958770394"/>
      <point x="595.375" y="370.082621083" type="curve"/>
      <point x="465.375" y="370.082621083"/>
      <point x="595.375" y="370.082621083"/>
      <point x="465.375" y="370.082621083" type="curve"/>
      <point x="465.375" y="272.958770394"/>
      <point x="465.375" y="175.83200596"/>
      <point x="465.375" y="78.7081552707" type="curve"/>
      <point x="595.375" y="78.7081552707"/>
      <point x="465.375" y="78.7081552707"/>
    </contour>
    <contour>
      <point x="582.625" y="645.332514245" type="curve"/>
      <point x="508.760839903" y="701.850578412"/>
      <point x="436.666025269" y="727.0"/>
      <point x="344.0" y="727.0" type="curve"/>
      <point x="137.868391582" y="727.0"/>
      <point x="34.75" y="579.920144953"/>
      <point x="34.75" y="359.830413105" type="curve"/>
      <point x="34.75" y="138.929640527"/>
      <point x="143.736424825" y="-5.0"/>
      <point x="352.25" y="-5.0" type="curve"/>
      <point x="451.276041855" y="-5.0"/>
      <point x="513.144928193" y="23.5745781054"/>
      <point x="595.375" y="78.7081552707" type="curve"/>
      <point x="514" y="171"/>
      <point x="595" y="79"/>
      <point x="514" y="171" type="curve"/>
      <point x="463" y="126"/>
      <point x="420.260421941" y="110.5"/>
      <point x="352.25" y="110.5" type="curve"/>
      <point x="220.734721732" y="110.5"/>
      <point x="177.75" y="221.790977442"/>
      <point x="177.75" y="370.880413105" type="curve"/>
      <point x="177.75" y="508.33025526"/>
      <point x="221.534866214" y="611.5"/>
      <point x="344.0" y="611.5" type="curve"/>
      <point x="409.361465206" y="611.5"/>
      <point x="458.758166432" y="590.780812543"/>
      <point x="511.125" y="551.407514245" type="curve"/>
      <point x="582.625" y="645.332514245"/>
      <point x="511.125" y="551.407514245"/>
    </contour>
  </outline>
</glyph>
<glyph name="H" format="1">
  <advance width="650.0"/>
  <unicode hex="0048"/>
  <outline>
    <contour>
      <point x="207" y="0" type="curve"/>
      <point x="207" y="0"/>
      <point x="207" y="722"/>
      <point x="207" y="722" type="curve"/>
      <point x="64" y="722"/>
      <point x="207" y="722"/>
      <point x="64" y="722" type="curve"/>
      <point x="64" y="481"/>
      <point x="64" y="241"/>
      <point x="64" y="0" type="curve"/>
      <point x="207" y="0"/>
      <point x="64" y="0"/>
    </contour>
    <contour>
      <point x="513.0" y="418.0" type="curve"/>
      <point x="387.0" y="418.0"/>
      <point x="261.0" y="418.0"/>
      <point x="135.0" y="418.0" type="curve"/>
      <point x="135.0" y="307.0"/>
      <point x="135.0" y="418.0"/>
      <point x="135.0" y="307.0" type="curve"/>
      <point x="261.0" y="307.0"/>
      <point x="387.0" y="307.0"/>
      <point x="513.0" y="307.0" type="curve"/>
      <point x="513.0" y="418.0"/>
      <point x="513.0" y="307.0"/>
    </contour>
    <contour>
      <point x="586" y="0" type="curve"/>
      <point x="586" y="209"/>
      <point x="586" y="513"/>
      <point x="586" y="722" type="curve"/>
      <point x="443" y="722"/>
      <point x="586" y="722"/>
      <point x="443" y="722" type="curve"/>
      <point x="443" y="722"/>
      <point x="443" y="0"/>
      <point x="443" y="0" type="curve"/>
      <point x="586" y="0"/>
      <point x="443" y="0"/>
    </contour>
  </outline>
</glyph>
<glyph name="I" format="1">
  <advance width="271.0"/>
  <unicode hex="0049"/>
  <outline>
    <contour>
      <point x="138.0" y="842.0" type="move" name="top"/>
    </contour>
    <contour>
      <point x="181.0" y="14.0" type="move" name="bottom"/>
    </contour>
    <contour>
      <point x="207.0" y="0.0" type="curve"/>
      <point x="207.0" y="241.0"/>
      <point x="207.0" y="481.0"/>
      <point x="207.0" y="722.0" type="curve"/>
      <point x="64.0" y="722.0"/>
      <point x="207.0" y="722.0"/>
      <point x="64.0" y="722.0" type="curve"/>
      <point x="64.0" y="481.0"/>
      <point x="64.0" y="241.0"/>
      <point x="64.0" y="0.0" type="curve"/>
      <point x="207.0" y="0.0"/>
      <point x="64.0" y="0.0"/>
    </contour>
  </outline>
</glyph>
<glyph name="J" format="1">
  <advance width="376.0"/>
  <unicode hex="004A"/>
  <outline>
    <contour>
      <point x="-2.0" y="45.0" type="curve"/>
      <point x="24.0" y="23.0"/>
      <point x="64.0" y="-4.0"/>
      <point x="115.0" y="-4.0" type="curve"/>
      <point x="253.0" y="-4.0"/>
      <point x="316.0" y="85.0"/>
      <point x="316.0" y="246.0" type="curve"/>
      <point x="316.0" y="403.0"/>
      <point x="316.0" y="564.0"/>
      <point x="316.0" y="722.0" type="curve"/>
      <point x="173.0" y="722.0"/>
      <point x="316.0" y="722.0"/>
      <point x="173.0" y="722.0" type="curve"/>
      <point x="173.0" y="564.0"/>
      <point x="173.0" y="403.0"/>
      <point x="173.0" y="246.0" type="curve"/>
      <point x="173.0" y="172.0"/>
      <point x="174.0" y="109.0"/>
      <point x="115.0" y="109.0" type="curve"/>
      <point x="92.0" y="109.0"/>
      <point x="80.0" y="121.0"/>
      <point x="63.0" y="133.0" type="curve"/>
      <point x="-2.0" y="45.0"/>
      <point x="63.0" y="133.0"/>
    </contour>
  </outline>
</glyph>
<glyph name="K" format="1">
  <advance width="562.0"/>
  <unicode hex="004B"/>
  <outline>
    <contour>
      <point x="287.0" y="38.0" type="move" name="bottom"/>
    </contour>
    <contour>
      <point x="377" y="722" type="curve"/>
      <point x="276" y="608"/>
      <point x="175" y="494"/>
      <point x="74" y="380" type="curve"/>
      <point x="226" y="380"/>
      <point x="94" y="380"/>
      <point x="246" y="380" type="curve"/>
      <point x="348" y="494"/>
      <point x="451" y="608"/>
      <point x="554" y="722" type="curve"/>
      <point x="397" y="722"/>
      <point x="534" y="722"/>
    </contour>
    <contour>
      <point x="207" y="0" type="curve"/>
      <point x="207" y="0"/>
      <point x="207" y="722"/>
      <point x="207" y="722" type="curve"/>
      <point x="64" y="722"/>
      <point x="207" y="722"/>
      <point x="64" y="722" type="curve"/>
      <point x="64" y="481"/>
      <point x="64" y="241"/>
      <point x="64" y="0" type="curve"/>
      <point x="207" y="0"/>
      <point x="64" y="0"/>
    </contour>
    <contour>
      <point x="572" y="0" type="curve"/>
      <point x="464" y="127"/>
      <point x="354" y="253"/>
      <point x="246" y="380" type="curve"/>
      <point x="94" y="380"/>
      <point x="226" y="380"/>
      <point x="74" y="380" type="curve"/>
      <point x="181" y="253"/>
      <point x="287" y="127"/>
      <point x="394" y="0" type="curve"/>
      <point x="552" y="0"/>
      <point x="414" y="0"/>
    </contour>
  </outline>
</glyph>
<glyph name="L" format="1">
  <advance width="463.0"/>
  <unicode hex="004C"/>
  <outline>
    <contour>
      <point x="130.0" y="841.0" type="move" name="top"/>
    </contour>
    <contour>
      <point x="245.0" y="41.0" type="move" name="bottom"/>
    </contour>
    <contour>
      <point x="207.0" y="0.0" type="curve"/>
      <point x="207.0" y="241.0"/>
      <point x="207.0" y="481.0"/>
      <point x="207.0" y="722.0" type="curve"/>
      <point x="64.0" y="722.0"/>
      <point x="207.0" y="722.0"/>
      <point x="64.0" y="722.0" type="curve"/>
      <point x="64.0" y="481.0"/>
      <point x="64.0" y="241.0"/>
      <point x="64.0" y="0.0" type="curve"/>
      <point x="207.0" y="0.0"/>
      <point x="64.0" y="0.0"/>
    </contour>
    <contour>
      <point x="135.0" y="0.0" type="curve"/>
      <point x="240.0" y="0.0"/>
      <point x="346.0" y="0.0"/>
      <point x="451.0" y="0.0" type="curve"/>
      <point x="451.0" y="110.0"/>
      <point x="451.0" y="0.0"/>
      <point x="451.0" y="110.0" type="curve"/>
      <point x="346.0" y="110.0"/>
      <point x="240.0" y="110.0"/>
      <point x="135.0" y="110.0" type="curve"/>
      <point x="135.0" y="0.0"/>
      <point x="135.0" y="110.0"/>
    </contour>
  </outline>
</glyph>
<glyph name="M" format="1">
  <advance width="750.0"/>
  <unicode hex="004D"/>
  <outline>
    <contour>
      <point x="709.0" y="0.0" type="curve"/>
      <point x="693.0" y="241.0"/>
      <point x="672.0" y="481.0"/>
      <point x="657.0" y="722.0" type="curve"/>
      <point x="527.0" y="722.0"/>
      <point x="657.0" y="722.0"/>
      <point x="527.0" y="722.0" type="curve"/>
      <point x="542.0" y="481.0"/>
      <point x="551.0" y="241.0"/>
      <point x="566.0" y="0.0" type="curve"/>
      <point x="709.0" y="0.0"/>
      <point x="566.0" y="0.0"/>
    </contour>
    <contour>
      <point x="173.0" y="0.0" type="curve"/>
      <point x="187.0" y="241.0"/>
      <point x="201.0" y="481.0"/>
      <point x="215.0" y="722.0" type="curve"/>
      <point x="88.0" y="722.0"/>
      <point x="215.0" y="722.0"/>
      <point x="88" y="722" type="curve"/>
      <point x="73" y="481"/>
      <point x="59" y="241"/>
      <point x="44" y="0" type="curve"/>
      <point x="173.0" y="0.0"/>
      <point x="44.0" y="0.0"/>
    </contour>
    <contour>
      <point x="428.0" y="0.0" type="curve"/>
      <point x="358.0" y="241.0"/>
      <point x="287.0" y="481.0"/>
      <point x="217.0" y="722.0" type="curve"/>
      <point x="97.0" y="722.0"/>
      <point x="217" y="722"/>
      <point x="97" y="722" type="curve"/>
      <point x="167" y="481"/>
      <point x="237.0" y="241.0"/>
      <point x="307.0" y="0.0" type="curve"/>
      <point x="428.0" y="0.0"/>
      <point x="307.0" y="0.0"/>
    </contour>
    <contour>
      <point x="435.0" y="0.0" type="curve"/>
      <point x="504.0" y="241.0"/>
      <point x="573.0" y="481.0"/>
      <point x="641.0" y="722.0" type="curve"/>
      <point x="521.0" y="722.0"/>
      <point x="641.0" y="722.0"/>
      <point x="521.0" y="722.0" type="curve"/>
      <point x="452.0" y="481.0"/>
      <point x="382.0" y="241.0"/>
      <point x="313.0" y="0.0" type="curve"/>
      <point x="435.0" y="0.0"/>
      <point x="313.0" y="0.0"/>
    </contour>
  </outline>
</glyph>
<glyph name="N" format="1">
  <advance width="676.0"/>
  <unicode hex="004E"/>
  <outline>
    <contour>
      <point x="338.0" y="842.0" type="move" name="top"/>
    </contour>
    <contour>
      <point x="360.0" y="29.0" type="move" name="bottom"/>
    </contour>
    <contour>
      <point x="613.0" y="0.0" type="curve"/>
      <point x="479.0" y="241.0"/>
      <point x="345.0" y="481.0"/>
      <point x="212.0" y="722.0" type="curve"/>
      <point x="64.0" y="722.0"/>
      <point x="212.0" y="722.0"/>
      <point x="64.0" y="722.0" type="curve"/>
      <point x="197.0" y="481.0"/>
      <point x="331.0" y="241.0"/>
      <point x="465.0" y="0.0" type="curve"/>
      <point x="613.0" y="0.0"/>
      <point x="465.0" y="0.0"/>
    </contour>
    <contour>
      <point x="469.0" y="722.0" type="curve"/>
      <point x="469.0" y="481.0"/>
      <point x="469.0" y="241.0"/>
      <point x="469.0" y="0.0" type="curve"/>
      <point x="612.0" y="0.0"/>
      <point x="469.0" y="0.0"/>
      <point x="612.0" y="0.0" type="curve"/>
      <point x="612.0" y="241.0"/>
      <point x="612.0" y="481.0"/>
      <point x="612.0" y="722.0" type="curve"/>
      <point x="469.0" y="722.0"/>
      <point x="612.0" y="722.0"/>
    </contour>
    <contour>
      <point x="207.0" y="0.0" type="curve"/>
      <point x="207.0" y="241.0"/>
      <point x="207.0" y="481.0"/>
      <point x="207.0" y="722.0" type="curve"/>
      <point x="64.0" y="722.0"/>
      <point x="207.0" y="722.0"/>
      <point x="64.0" y="722.0" type="curve"/>
      <point x="64.0" y="481.0"/>
      <point x="64.0" y="241.0"/>
      <point x="64.0" y="0.0" type="curve"/>
      <point x="207.0" y="0.0"/>
      <point x="64.0" y="0.0"/>
    </contour>
  </outline>
</glyph>
<glyph name="O" format="1">
  <advance width="648.0"/>
  <unicode hex="004F"/>
  <outline>
    <contour>
      <point x="323.0" y="842.0" type="move" name="top"/>
    </contour>
    <contour>
      <point x="178.75" y="360.128917379" type="curve"/>
      <point x="178.75" y="495.118210673"/>
      <point x="199.983182871" y="611.5"/>
      <point x="316.75" y="611.5" type="curve"/>
      <point x="435.397541389" y="611.5"/>
      <point x="469.25" y="498.390974257"/>
      <point x="469.25" y="362.742165242" type="curve"/>
      <point x="469.25" y="227.249757484"/>
      <point x="445.041556196" y="110.5"/>
      <point x="327.625" y="110.5" type="curve"/>
      <point x="208.84411482" y="110.5"/>
      <point x="178.75" y="224.103830714"/>
      <point x="178.75" y="360.128917379" type="curve"/>
      <point x="35.75" y="360.128917379"/>
      <point x="178.75" y="360.128917379"/>
      <point x="35.75" y="360.128917379" type="curve"/>
      <point x="35.75" y="151.28017851"/>
      <point x="128.985782991" y="-5.0"/>
      <point x="321.125" y="-5.0" type="curve"/>
      <point x="516.179234016" y="-5.0"/>
      <point x="612.25" y="152.116582717"/>
      <point x="612.25" y="362.742165242" type="curve"/>
      <point x="612.25" y="570.179501928"/>
      <point x="520.920975318" y="727.0"/>
      <point x="329.75" y="727.0" type="curve"/>
      <point x="133.672889502" y="727.0"/>
      <point x="35.75" y="570.274889954"/>
      <point x="35.75" y="360.128917379" type="curve"/>
      <point x="178.75" y="360.128917379"/>
      <point x="35.75" y="360.128917379"/>
    </contour>
  </outline>
</glyph>
<glyph name="P" format="1">
  <advance width="501.0"/>
  <unicode hex="0050"/>
  <outline>
    <contour>
      <point x="115.0" y="298.0" type="curve"/>
      <point x="159.371447499" y="271.588424108"/>
      <point x="203" y="252"/>
      <point x="257" y="252" type="curve"/>
      <point x="392" y="254"/>
      <point x="479.0" y="339.0"/>
      <point x="479.0" y="479.0" type="curve"/>
      <point x="479.0" y="624.0"/>
      <point x="387.0" y="722.0"/>
      <point x="243.0" y="722.0" type="curve"/>
      <point x="208.0" y="722.0"/>
      <point x="173.0" y="722.0"/>
      <point x="139.0" y="722.0" type="curve"/>
      <point x="139.0" y="612.0"/>
      <point x="139.0" y="722.0"/>
      <point x="139.0" y="612.0" type="curve"/>
      <point x="167.0" y="612.0"/>
      <point x="195.0" y="612.0"/>
      <point x="224.0" y="612.0" type="curve"/>
      <point x="297.0" y="612.0"/>
      <point x="336.0" y="552.0"/>
      <point x="336.0" y="474.0" type="curve"/>
      <point x="336.0" y="409.0"/>
      <point x="316.0" y="357.0"/>
      <point x="260.0" y="357.0" type="curve"/>
      <point x="220.0" y="357.0"/>
      <point x="194.0" y="369.0"/>
      <point x="160.0" y="389.0" type="curve"/>
      <point x="116.0" y="301.0"/>
      <point x="160.0" y="389.0"/>
    </contour>
    <contour>
      <point x="207.0" y="0.0" type="curve"/>
      <point x="207.0" y="241.0"/>
      <point x="207.0" y="481.0"/>
      <point x="207.0" y="722.0" type="curve"/>
      <point x="64.0" y="722.0"/>
      <point x="207.0" y="722.0"/>
      <point x="64.0" y="722.0" type="curve"/>
      <point x="64.0" y="481.0"/>
      <point x="64.0" y="241.0"/>
      <point x="64.0" y="0.0" type="curve"/>
      <point x="207.0" y="0.0"/>
      <point x="64.0" y="0.0"/>
    </contour>
  </outline>
</glyph>
<glyph name="R" format="1">
  <advance width="556.0"/>
  <unicode hex="0052"/>
  <outline>
    <contour>
      <point x="233.0" y="843.0" type="move" name="top"/>
    </contour>
    <contour>
      <point x="341.0" y="31.0" type="move" name="bottom"/>
    </contour>
    <contour>
      <point x="217.0" y="354.0" type="curve"/>
      <point x="281.0" y="236.0"/>
      <point x="345.0" y="118.0"/>
      <point x="409.0" y="0.0" type="curve"/>
      <point x="557.0" y="0.0"/>
      <point x="409.0" y="0.0"/>
      <point x="557.0" y="0.0" type="curve"/>
      <point x="493.0" y="118.0"/>
      <point x="429.0" y="236.0"/>
      <point x="365.0" y="354.0" type="curve"/>
      <point x="217.0" y="354.0"/>
      <point x="365.0" y="354.0"/>
    </contour>
    <contour>
      <point x="207.0" y="0.0" type="curve"/>
      <point x="207.0" y="241.0"/>
      <point x="207.0" y="481.0"/>
      <point x="207.0" y="722.0" type="curve"/>
      <point x="64.0" y="722.0"/>
      <point x="207.0" y="722.0"/>
      <point x="64.0" y="722.0" type="curve"/>
      <point x="64.0" y="481.0"/>
      <point x="64.0" y="241.0"/>
      <point x="64.0" y="0.0" type="curve"/>
      <point x="207.0" y="0.0"/>
      <point x="64.0" y="0.0"/>
    </contour>
    <contour>
      <point x="137.0" y="297.0" type="curve"/>
      <point x="177.0" y="297.0"/>
      <point x="217.0" y="297.0"/>
      <point x="256.0" y="297.0" type="curve"/>
      <point x="402.0" y="297.0"/>
      <point x="492.0" y="377.0"/>
      <point x="492.0" y="519.0" type="curve"/>
      <point x="492.0" y="648.0"/>
      <point x="412.0" y="722.0"/>
      <point x="282.0" y="722.0" type="curve"/>
      <point x="234.0" y="722.0"/>
      <point x="186.0" y="722.0"/>
      <point x="137.0" y="722.0" type="curve"/>
      <point x="137.0" y="612.0"/>
      <point x="137.0" y="722.0"/>
      <point x="137.0" y="612.0" type="curve"/>
      <point x="177.0" y="612.0"/>
      <point x="217.0" y="612.0"/>
      <point x="256.0" y="612.0" type="curve"/>
      <point x="317.0" y="612.0"/>
      <point x="349.0" y="570.0"/>
      <point x="349.0" y="508.0" type="curve"/>
      <point x="349.0" y="450.0"/>
      <point x="328.0" y="408.0"/>
      <point x="276.0" y="408.0" type="curve"/>
      <point x="230.0" y="408.0"/>
      <point x="183.0" y="408.0"/>
      <point x="137.0" y="408.0" type="curve"/>
      <point x="137.0" y="297.0"/>
      <point x="137.0" y="408.0"/>
    </contour>
  </outline>
</glyph>
<glyph name="S" format="1">
  <advance width="475.0"/>
  <unicode hex="0053"/>
  <outline>
    <contour>
      <point x="236.0" y="845.0" type="move" name="top"/>
    </contour>
    <contour>
      <point x="185.0" y="26.0" type="move" name="bottom"/>
    </contour>
    <contour>
      <point x="35" y="65" type="curve"/>
      <point x="74" y="29"/>
      <point x="146.0" y="-5.0"/>
      <point x="215.0" y="-5.0" type="curve"/>
      <point x="351.0" y="-5.0"/>
      <point x="454.0" y="66.0"/>
      <point x="454.0" y="194.0" type="curve"/>
      <point x="454.0" y="304.0"/>
      <point x="379.0" y="363.0"/>
      <point x="281.0" y="418.0" type="curve"/>
      <point x="224.0" y="450.0"/>
      <point x="173.0" y="492.0"/>
      <point x="173.0" y="539.0" type="curve"/>
      <point x="170.0" y="578.0"/>
      <point x="196.0" y="612.0"/>
      <point x="234.0" y="612.0" type="curve"/>
      <point x="278.0" y="612.0"/>
      <point x="313.0" y="589.0"/>
      <point x="342.0" y="573.0" type="curve"/>
      <point x="412" y="656"/>
      <point x="342" y="573"/>
      <point x="412" y="656" type="curve"/>
      <point x="353" y="700"/>
      <point x="304.0" y="717.0"/>
      <point x="237.0" y="717.0" type="curve"/>
      <point x="116.0" y="717.0"/>
      <point x="30.0" y="649.0"/>
      <point x="30.0" y="534.0" type="curve"/>
      <point x="30.0" y="429.0"/>
      <point x="100.0" y="368.0"/>
      <point x="192.0" y="316.0" type="curve"/>
      <point x="253.0" y="283.0"/>
      <point x="311.0" y="241.0"/>
      <point x="311.0" y="194.0" type="curve"/>
      <point x="311.0" y="156.0"/>
      <point x="278.0" y="111.0"/>
      <point x="228.0" y="111.0" type="curve"/>
      <point x="183.0" y="111.0"/>
      <point x="155" y="132"/>
      <point x="118" y="158" type="curve"/>
      <point x="35" y="65"/>
      <point x="118" y="158"/>
    </contour>
  </outline>
</glyph>
<glyph name="V" format="1">
  <advance width="578.0"/>
  <unicode hex="0056"/>
  <outline>
    <contour>
      <point x="428.0" y="722.0" type="curve"/>
      <point x="362.0" y="480.0"/>
      <point x="298.0" y="242.0"/>
      <point x="235.0" y="0.0" type="curve"/>
      <point x="381.0" y="0.0"/>
      <point x="219.0" y="0.0"/>
      <point x="365.0" y="0.0" type="curve"/>
      <point x="434.0" y="241.0"/>
      <point x="503.0" y="481.0"/>
      <point x="573.0" y="722.0" type="curve"/>
      <point x="428.0" y="722.0"/>
      <point x="573.0" y="722.0"/>
    </contour>
    <contour>
      <point x="3.0" y="722.0" type="curve"/>
      <point x="73.0" y="481.0"/>
      <point x="144.0" y="241.0"/>
      <point x="214.0" y="0.0" type="curve"/>
      <point x="360.0" y="0.0"/>
      <point x="201.0" y="0.0"/>
      <point x="347.0" y="0.0" type="curve"/>
      <point x="282.0" y="242.0"/>
      <point x="217.0" y="482.0"/>
      <point x="149.0" y="722.0" type="curve"/>
      <point x="3.0" y="722.0"/>
      <point x="149.0" y="722.0"/>
    </contour>
  </outline>
</glyph>
<glyph name="W" format="1">
  <advance width="743.0"/>
  <unicode hex="0057"/>
  <outline>
    <contour>
      <point x="284.0" y="0.0" type="curve"/>
      <point x="335.0" y="241.0"/>
      <point x="385.0" y="481.0"/>
      <point x="435.0" y="722.0" type="curve"/>
      <point x="315.0" y="722.0"/>
      <point x="430" y="722"/>
      <point x="310" y="722" type="curve"/>
      <point x="264" y="482"/>
      <point x="220" y="243"/>
      <point x="173" y="0" type="curve"/>
      <point x="289" y="0"/>
      <point x="168.0" y="0.0"/>
    </contour>
    <contour>
      <point x="320.0" y="722.0" type="curve"/>
      <point x="365.0" y="481.0"/>
      <point x="410.0" y="241.0"/>
      <point x="456.0" y="0.0" type="curve"/>
      <point x="572.0" y="0.0"/>
      <point x="447" y="0"/>
      <point x="563" y="0" type="curve"/>
      <point x="522" y="245"/>
      <point x="485" y="481"/>
      <point x="445" y="722" type="curve"/>
      <point x="325" y="722"/>
      <point x="440.0" y="722.0"/>
    </contour>
    <contour>
      <point x="21" y="722" type="curve"/>
      <point x="67" y="481"/>
      <point x="113" y="241"/>
      <point x="158" y="0" type="curve"/>
      <point x="275" y="0"/>
      <point x="163.0" y="0.0"/>
      <point x="280.0" y="0.0" type="curve"/>
      <point x="236.0" y="241.0"/>
      <point x="192.0" y="481.0"/>
      <point x="149.0" y="722.0" type="curve"/>
      <point x="26.0" y="722.0"/>
      <point x="144" y="722"/>
    </contour>
    <contour>
      <point x="597.0" y="722.0" type="curve"/>
      <point x="552.0" y="481.0"/>
      <point x="506.0" y="241.0"/>
      <point x="460.0" y="0.0" type="curve"/>
      <point x="577.0" y="0.0"/>
      <point x="465" y="0"/>
      <point x="582" y="0" type="curve"/>
      <point x="629" y="241"/>
      <point x="677" y="481"/>
      <point x="725" y="722" type="curve"/>
      <point x="602" y="722"/>
      <point x="720.0" y="722.0"/>
    </contour>
  </outline>
</glyph>
<glyph name="X" format="1">
  <advance width="533.0"/>
  <unicode hex="0058"/>
  <outline>
    <contour>
      <point x="379" y="722" type="curve"/>
      <point x="254" y="481"/>
      <point x="129" y="241"/>
      <point x="4" y="0" type="curve"/>
      <point x="144.0" y="0.0"/>
      <point x="14" y="0"/>
      <point x="154" y="0" type="curve"/>
      <point x="278" y="241"/>
      <point x="402" y="481"/>
      <point x="526" y="722" type="curve"/>
      <point x="389" y="722"/>
      <point x="516.0" y="722.0"/>
    </contour>
    <contour>
      <point x="9" y="722" type="curve"/>
      <point x="132" y="481"/>
      <point x="255" y="241"/>
      <point x="378" y="0" type="curve"/>
      <point x="517" y="0"/>
      <point x="388.0" y="0.0"/>
      <point x="527" y="0" type="curve"/>
      <point x="403" y="241"/>
      <point x="280" y="481"/>
      <point x="156" y="722" type="curve"/>
      <point x="19.0" y="722.0"/>
      <point x="146" y="722"/>
    </contour>
  </outline>
</glyph>
<glyph name="Y" format="1">
  <advance width="502.0"/>
  <unicode hex="0059"/>
  <outline>
    <contour>
      <point x="254.0" y="842.0" type="move" name="top"/>
    </contour>
    <contour>
      <point x="8" y="722" type="curve"/>
      <point x="67" y="594"/>
      <point x="122" y="469"/>
      <point x="179" y="337" type="curve"/>
      <point x="324" y="337"/>
      <point x="157" y="337"/>
      <point x="302" y="337" type="curve"/>
      <point x="253" y="470"/>
      <point x="206" y="591"/>
      <point x="153" y="722" type="curve"/>
      <point x="8" y="722"/>
      <point x="153" y="722"/>
    </contour>
    <contour>
      <point x="358" y="722" type="curve"/>
      <point x="299" y="589"/>
      <point x="249" y="469"/>
      <point x="189" y="337" type="curve"/>
      <point x="334" y="337"/>
      <point x="176" y="337"/>
      <point x="321" y="337" type="curve"/>
      <point x="382" y="468"/>
      <point x="440" y="594"/>
      <point x="502" y="722" type="curve"/>
      <point x="357" y="722"/>
      <point x="503" y="722"/>
    </contour>
    <contour>
      <point x="321" y="0" type="curve"/>
      <point x="321" y="115"/>
      <point x="321" y="222"/>
      <point x="321" y="337" type="curve"/>
      <point x="165" y="337"/>
      <point x="335" y="337"/>
      <point x="179" y="337" type="curve"/>
      <point x="179" y="222"/>
      <point x="179" y="115"/>
      <point x="179" y="0" type="curve"/>
      <point x="335" y="0"/>
      <point x="165" y="0"/>
    </contour>
  </outline>
</glyph>
<glyph name="Z" format="1">
  <advance width="568.0"/>
  <unicode hex="005A"/>
  <outline>
    <contour>
      <point x="288.0" y="841.0" type="move" name="top"/>
    </contour>
    <contour>
      <point x="49.0" y="612.0" type="curve"/>
      <point x="170.0" y="612.0"/>
      <point x="345.0" y="612.0"/>
      <point x="467.0" y="612.0" type="curve"/>
      <point x="455.0" y="622.0"/>
      <point x="436.0" y="620.0"/>
      <point x="425.0" y="631.0" type="curve"/>
      <point x="414.0" y="640.0"/>
      <point x="417.0" y="658.0"/>
      <point x="407.0" y="668.0" type="curve"/>
      <point x="400.0" y="658.0"/>
      <point x="384.0" y="668.0"/>
      <point x="378.0" y="658.0" type="curve"/>
      <point x="261.0" y="475.0"/>
      <point x="378.0" y="658.0"/>
      <point x="24.0" y="110.0" type="curve"/>
      <point x="24.0" y="54.0"/>
      <point x="24.0" y="110.0"/>
      <point x="24.0" y="54.0" type="curve"/>
      <point x="24.0" y="0.0"/>
      <point x="24.0" y="54.0"/>
      <point x="24.0" y="0.0" type="curve"/>
      <point x="77.0" y="0.0"/>
      <point x="24.0" y="0.0"/>
      <point x="77.0" y="0.0" type="curve"/>
      <point x="511.0" y="0.0"/>
      <point x="397.0" y="0.0"/>
      <point x="542.0" y="0.0" type="curve"/>
      <point x="542.0" y="110.0"/>
      <point x="542.0" y="0.0"/>
      <point x="542.0" y="110.0" type="curve"/>
      <point x="397.0" y="110.0"/>
      <point x="221.0" y="110.0"/>
      <point x="77.0" y="110.0" type="curve"/>
      <point x="87.0" y="102.0"/>
      <point x="103.0" y="103.0"/>
      <point x="113.0" y="95.0" type="curve"/>
      <point x="124.0" y="84.0"/>
      <point x="123.0" y="65.0"/>
      <point x="134.0" y="54.0" type="curve"/>
      <point x="141.0" y="64.0"/>
      <point x="157.0" y="55.0"/>
      <point x="164.0" y="64.0" type="curve"/>
      <point x="282.0" y="248.0"/>
      <point x="164.0" y="64.0"/>
      <point x="524.0" y="612.0" type="curve"/>
      <point x="524.0" y="668.0"/>
      <point x="524.0" y="612.0"/>
      <point x="524.0" y="668.0" type="curve"/>
      <point x="524.0" y="722.0"/>
      <point x="524.0" y="668.0"/>
      <point x="524.0" y="722.0" type="curve"/>
      <point x="467.0" y="722.0"/>
      <point x="524.0" y="722.0"/>
      <point x="467.0" y="722.0" type="curve"/>
      <point x="345.0" y="722.0"/>
      <point x="170.0" y="722.0"/>
      <point x="49.0" y="722.0" type="curve"/>
      <point x="49.0" y="612.0"/>
      <point x="49.0" y="722.0"/>
    </contour>
  </outline>
</glyph>
<glyph name="bracketleft" format="1">
  <advance width="276.0"/>
  <unicode hex="005B"/>
  <outline>
    <contour>
      <point x="236.0" y="769.0" type="curve"/>
      <point x="198.0" y="769.0"/>
      <point x="160.0" y="769.0"/>
      <point x="122.0" y="769.0" type="curve"/>
      <point x="106.0" y="769.0"/>
      <point x="70.0" y="769.0"/>
      <point x="55.0" y="769.0" type="curve"/>
      <point x="55.0" y="752.0"/>
      <point x="55.0" y="731.0"/>
      <point x="55.0" y="714.0" type="curve"/>
      <point x="55.0" y="456.0"/>
      <point x="55.0" y="199.0"/>
      <point x="55.0" y="-59.0" type="curve"/>
      <point x="55.0" y="-77.0"/>
      <point x="55.0" y="-89.0"/>
      <point x="55.0" y="-113.0" type="curve"/>
      <point x="70.0" y="-113.0"/>
      <point x="104.0" y="-113.0"/>
      <point x="121.0" y="-113.0" type="curve"/>
      <point x="159.0" y="-113.0"/>
      <point x="198.0" y="-113.0"/>
      <point x="236.0" y="-113.0" type="curve"/>
      <point x="236.0" y="9.0"/>
      <point x="236.0" y="-113.0"/>
      <point x="236.0" y="9.0" type="curve"/>
      <point x="198.0" y="9.0"/>
      <point x="159.0" y="9.0"/>
      <point x="121.0" y="9.0" type="curve"/>
      <point x="198.0" y="9.0"/>
      <point x="121.0" y="9.0"/>
      <point x="198.0" y="9.0" type="curve"/>
      <point x="198.0" y="-59.0"/>
      <point x="198.0" y="9.0"/>
      <point x="198.0" y="-59.0" type="curve"/>
      <point x="198.0" y="199.0"/>
      <point x="198.0" y="456.0"/>
      <point x="198.0" y="714.0" type="curve"/>
      <point x="198.0" y="648.0"/>
      <point x="198.0" y="714.0"/>
      <point x="198.0" y="648.0" type="curve"/>
      <point x="122.0" y="648.0"/>
      <point x="198.0" y="648.0"/>
      <point x="122.0" y="648.0" type="curve"/>
      <point x="160.0" y="648.0"/>
      <point x="198.0" y="648.0"/>
      <point x="236.0" y="648.0" type="curve"/>
      <point x="236.0" y="769.0"/>
      <point x="236.0" y="648.0"/>
    </contour>
  </outline>
</glyph>
<glyph name="backslash" format="1">
  <advance width="481.0"/>
  <unicode hex="005C"/>
  <outline>
    <contour>
      <point x="462.0" y="-68.0" type="curve"/>
      <point x="364.0" y="236.0"/>
      <point x="266.0" y="540.0"/>
      <point x="168.0" y="844.0" type="curve"/>
      <point x="19.0" y="844.0"/>
      <point x="168.0" y="844.0"/>
      <point x="19.0" y="844.0" type="curve"/>
      <point x="117.0" y="540.0"/>
      <point x="215.0" y="236.0"/>
      <point x="313.0" y="-68.0" type="curve"/>
      <point x="462.0" y="-68.0"/>
      <point x="313.0" y="-68.0"/>
    </contour>
  </outline>
</glyph>
<glyph name="bracketright" format="1">
  <advance width="276.0"/>
  <unicode hex="005D"/>
  <outline>
    <contour>
      <point x="41.0" y="648.0" type="curve"/>
      <point x="79.0" y="648.0"/>
      <point x="117.0" y="648.0"/>
      <point x="155.0" y="648.0" type="curve"/>
      <point x="143.0" y="660.0"/>
      <point x="123.0" y="661.0"/>
      <point x="111.0" y="673.0" type="curve"/>
      <point x="100.0" y="686.0"/>
      <point x="90.0" y="701.0"/>
      <point x="79.0" y="714.0" type="curve"/>
      <point x="79.0" y="456.0"/>
      <point x="78.0" y="199.0"/>
      <point x="79.0" y="-59.0" type="curve"/>
      <point x="90.0" y="-45.0"/>
      <point x="103.0" y="-33.0"/>
      <point x="115.0" y="-20.0" type="curve"/>
      <point x="126.0" y="-7.0"/>
      <point x="145.0" y="-4.0"/>
      <point x="156.0" y="9.0" type="curve"/>
      <point x="118.0" y="9.0"/>
      <point x="79.0" y="9.0"/>
      <point x="41.0" y="9.0" type="curve"/>
      <point x="40.0" y="-113.0"/>
      <point x="41.0" y="9.0"/>
      <point x="40.0" y="-113.0" type="curve"/>
      <point x="79.0" y="-113.0"/>
      <point x="118.0" y="-113.0"/>
      <point x="156.0" y="-113.0" type="curve"/>
      <point x="222.0" y="-113.0"/>
      <point x="156.0" y="-113.0"/>
      <point x="222.0" y="-113.0" type="curve"/>
      <point x="222.0" y="-59.0"/>
      <point x="222.0" y="-113.0"/>
      <point x="222.0" y="-59.0" type="curve"/>
      <point x="221.0" y="199.0"/>
      <point x="222.0" y="456.0"/>
      <point x="222.0" y="714.0" type="curve"/>
      <point x="222.0" y="769.0"/>
      <point x="222.0" y="714.0"/>
      <point x="222.0" y="769.0" type="curve"/>
      <point x="155.0" y="769.0"/>
      <point x="222.0" y="769.0"/>
      <point x="155.0" y="769.0" type="curve"/>
      <point x="117.0" y="769.0"/>
      <point x="79.0" y="769.0"/>
      <point x="41.0" y="769.0" type="curve"/>
      <point x="41.0" y="648.0"/>
      <point x="41.0" y="769.0"/>
    </contour>
  </outline>
</glyph>
<glyph name="underscore" format="1">
  <advance width="511.0"/>
  <unicode hex="005F"/>
  <outline>
    <contour>
      <point x="-0.25" y="-182.927350427" type="curve"/>
      <point x="170.248295" y="-182.927350427"/>
      <point x="340.751705" y="-182.927350427"/>
      <point x="511.25" y="-182.927350427" type="curve"/>
      <point x="511.25" y="-72.4273504274"/>
      <point x="511.25" y="-182.927350427"/>
      <point x="511.25" y="-72.4273504274" type="curve"/>
      <point x="340.751705" y="-72.4273504274"/>
      <point x="170.248295" y="-72.4273504274"/>
      <point x="-0.25" y="-72.4273504274" type="curve"/>
      <point x="-0.25" y="-182.927350427"/>
      <point x="-0.25" y="-72.4273504274"/>
    </contour>
  </outline>
</glyph>
<glyph name="grave" format="1">
  <advance width="400.0"/>
  <unicode hex="0060"/>
  <outline>
    <contour>
      <point x="147.0" y="645.0" type="move" name="_top"/>
    </contour>
    <contour>
      <point x="285" y="591" type="line"/>
      <point x="161" y="757" type="line"/>
      <point x="6" y="757" type="line"/>
      <point x="130" y="591" type="line"/>
    </contour>
  </outline>
</glyph>
<glyph name="a" format="1">
  <advance width="481.0"/>
  <unicode hex="0061"/>
  <outline>
    <contour>
      <point x="250.0" y="671.0" type="move" name="top"/>
    </contour>
    <contour>
      <point x="411.0" y="11.0" type="move" name="bottom"/>
    </contour>
    <contour>
      <point x="431.0" y="0.0" type="curve"/>
      <point x="431.0" y="123.0"/>
      <point x="431.0" y="247.0"/>
      <point x="431.0" y="370.0" type="curve"/>
      <point x="431.0" y="488.0"/>
      <point x="352.0" y="533.0"/>
      <point x="237.0" y="533.0" type="curve"/>
      <point x="157.192307692" y="533.0"/>
      <point x="90" y="500"/>
      <point x="46" y="449" type="curve"/>
      <point x="107" y="368"/>
      <point x="46" y="449"/>
      <point x="107" y="368" type="curve"/>
      <point x="140" y="398"/>
      <point x="168.747747748" y="423.0"/>
      <point x="217.0" y="423.0" type="curve"/>
      <point x="263.0" y="423.0"/>
      <point x="288.0" y="392.0"/>
      <point x="288.0" y="337.0" type="curve"/>
      <point x="288.0" y="225.0"/>
      <point x="288.0" y="112.0"/>
      <point x="288.0" y="0.0" type="curve"/>
      <point x="431.0" y="0.0"/>
      <point x="288.0" y="0.0"/>
    </contour>
    <contour>
      <point x="356.0" y="350.0" type="curve"/>
      <point x="298.0" y="341.0"/>
      <point x="263.0" y="339.0"/>
      <point x="206.0" y="330.0" type="curve"/>
      <point x="97.0" y="313.0"/>
      <point x="25.0" y="269.0"/>
      <point x="25.0" y="165.0" type="curve"/>
      <point x="25.0" y="58.0"/>
      <point x="82.0" y="-5.0"/>
      <point x="188.0" y="-5.0" type="curve"/>
      <point x="293.0" y="-5.0"/>
      <point x="334.0" y="79.0"/>
      <point x="395.0" y="147.0" type="curve"/>
      <point x="323.0" y="208.0"/>
      <point x="395.0" y="147.0"/>
      <point x="323.0" y="208.0" type="curve"/>
      <point x="288.0" y="156.0"/>
      <point x="275.0" y="105.0"/>
      <point x="214.0" y="105.0" type="curve"/>
      <point x="177.0" y="105.0"/>
      <point x="163.0" y="129.0"/>
      <point x="163.0" y="171.0" type="curve"/>
      <point x="163.0" y="202.0"/>
      <point x="185.0" y="227.0"/>
      <point x="210.0" y="231.0" type="curve"/>
      <point x="273.0" y="241.0"/>
      <point x="299.0" y="246.0"/>
      <point x="362.0" y="256.0" type="curve"/>
      <point x="356.0" y="350.0"/>
      <point x="362.0" y="256.0"/>
    </contour>
  </outline>
</glyph>
<glyph name="b" format="1">
  <advance width="542.0"/>
  <unicode hex="0062"/>
  <outline>
    <contour>
      <point x="163.0" y="349.0" type="curve"/>
      <point x="186.0" y="379.0"/>
      <point x="226.0" y="423.0"/>
      <point x="281.0" y="423.0" type="curve"/>
      <point x="354.0" y="423.0"/>
      <point x="368.0" y="346.0"/>
      <point x="368.0" y="261.0" type="curve"/>
      <point x="369.0" y="180.0"/>
      <point x="352.0" y="110.0"/>
      <point x="283.0" y="110.0" type="curve"/>
      <point x="237.0" y="110.0"/>
      <point x="204.0" y="130.0"/>
      <point x="173.0" y="165.0" type="curve"/>
      <point x="101.0" y="117.0"/>
      <point x="173.0" y="165.0"/>
      <point x="101.0" y="117.0" type="curve"/>
      <point x="148.0" y="47.0"/>
      <point x="203.0" y="-5.0"/>
      <point x="298.0" y="-5.0" type="curve"/>
      <point x="434.0" y="-5.0"/>
      <point x="511.0" y="112.0"/>
      <point x="511.0" y="267.0" type="curve"/>
      <point x="511.0" y="421.0"/>
      <point x="436.0" y="538.0"/>
      <point x="301.0" y="538.0" type="curve"/>
      <point x="204.0" y="538.0"/>
      <point x="143.0" y="464.0"/>
      <point x="103.0" y="396.0" type="curve"/>
      <point x="163.0" y="349.0"/>
      <point x="103.0" y="396.0"/>
    </contour>
    <contour>
      <point x="196.0" y="0.0" type="curve"/>
      <point x="196.0" y="267.0"/>
      <point x="196.0" y="533.0"/>
      <point x="196.0" y="800.0" type="curve"/>
      <point x="53.0" y="800.0"/>
      <point x="196.0" y="800.0"/>
      <point x="53.0" y="800.0" type="curve"/>
      <point x="53.0" y="533.0"/>
      <point x="53.0" y="267.0"/>
      <point x="53.0" y="0.0" type="curve"/>
      <point x="196.0" y="0.0"/>
      <point x="53.0" y="0.0"/>
    </contour>
  </outline>
</glyph>
<glyph name="c" format="1">
  <advance width="452.0"/>
  <unicode hex="0063"/>
  <outline>
    <contour>
      <point x="265.0" y="670.0" type="move" name="top"/>
    </contour>
    <contour>
      <point x="221.0" y="98.0" type="move" name="bottom"/>
    </contour>
    <contour>
      <point x="429.0" y="469.0" type="curve"/>
      <point x="387.0" y="507.0"/>
      <point x="332.0" y="538.0"/>
      <point x="273.0" y="538.0" type="curve"/>
      <point x="115.0" y="538.0"/>
      <point x="31.0" y="435.0"/>
      <point x="31.0" y="267.0" type="curve"/>
      <point x="31.0" y="100.0"/>
      <point x="110.0" y="-5.0"/>
      <point x="266.0" y="-5.0" type="curve"/>
      <point x="335.0" y="-5.0"/>
      <point x="402.0" y="24.0"/>
      <point x="440.0" y="95.0" type="curve"/>
      <point x="345.0" y="162.0"/>
      <point x="440.0" y="95.0"/>
      <point x="345.0" y="162.0" type="curve"/>
      <point x="326.0" y="137.0"/>
      <point x="304.0" y="110.0"/>
      <point x="273.0" y="110.0" type="curve"/>
      <point x="196.0" y="110.0"/>
      <point x="174.0" y="177.0"/>
      <point x="174.0" y="267.0" type="curve"/>
      <point x="174.0" y="356.0"/>
      <point x="192.0" y="423.0"/>
      <point x="267.0" y="423.0" type="curve"/>
      <point x="296.0" y="423.0"/>
      <point x="323.0" y="410.0"/>
      <point x="344.0" y="392.0" type="curve"/>
      <point x="429.0" y="469.0"/>
      <point x="344.0" y="392.0"/>
    </contour>
  </outline>
</glyph>
<glyph name="d" format="1">
  <advance width="549.0"/>
  <unicode hex="0064"/>
  <outline>
    <contour>
      <point x="425.0" y="451.0" type="curve"/>
      <point x="379.0" y="507.0"/>
      <point x="321.0" y="533.0"/>
      <point x="247.0" y="533.0" type="curve"/>
      <point x="100.0" y="533.0"/>
      <point x="31.0" y="413.0"/>
      <point x="31.0" y="262.0" type="curve"/>
      <point x="31.0" y="114.0"/>
      <point x="104.0" y="0.0"/>
      <point x="243.0" y="0.0" type="curve"/>
      <point x="327.0" y="0.0"/>
      <point x="387.0" y="38.0"/>
      <point x="425.0" y="112.0" type="curve"/>
      <point x="376.0" y="189.0"/>
      <point x="425.0" y="112.0"/>
      <point x="376.0" y="189.0" type="curve"/>
      <point x="352.0" y="144.0"/>
      <point x="323.0" y="110.0"/>
      <point x="272.0" y="110.0" type="curve"/>
      <point x="197.0" y="110.0"/>
      <point x="174.0" y="183.0"/>
      <point x="174.0" y="268.0" type="curve"/>
      <point x="174.0" y="352.0"/>
      <point x="202.0" y="423.0"/>
      <point x="277.0" y="423.0" type="curve"/>
      <point x="320.0" y="423.0"/>
      <point x="351.0" y="401.0"/>
      <point x="376.0" y="368.0" type="curve"/>
      <point x="425.0" y="451.0"/>
      <point x="376.0" y="368.0"/>
    </contour>
    <contour>
      <point x="496.0" y="0.0" type="curve"/>
      <point x="496.0" y="267.0"/>
      <point x="496.0" y="533.0"/>
      <point x="496.0" y="800.0" type="curve"/>
      <point x="347.0" y="800.0"/>
      <point x="496.0" y="800.0"/>
      <point x="347.0" y="800.0" type="curve"/>
      <point x="347.0" y="533.0"/>
      <point x="347.0" y="267.0"/>
      <point x="347.0" y="0.0" type="curve"/>
      <point x="496.0" y="0.0"/>
      <point x="347.0" y="0.0"/>
    </contour>
  </outline>
</glyph>
<glyph name="f" format="1">
  <advance width="349.0"/>
  <unicode hex="0066"/>
  <outline>
    <contour>
      <point x="22.75" y="430.792015579" type="curve"/>
      <point x="22.75" y="430.792015579"/>
      <point x="338.5" y="430.792015579"/>
      <point x="338.5" y="430.792015579" type="curve"/>
      <point x="338.5" y="541.292015579"/>
      <point x="338.5" y="430.792015579"/>
      <point x="338.5" y="541.292015579" type="curve"/>
      <point x="338.5" y="541.292015579"/>
      <point x="22.75" y="541.292015579"/>
      <point x="22.75" y="541.292015579" type="curve"/>
      <point x="22.75" y="430.792015579"/>
      <point x="22.75" y="541.292015579"/>
    </contour>
    <contour>
      <point x="233.0" y="0.0" type="curve"/>
      <point x="233.0" y="0.0"/>
      <point x="233.0" y="604.284493671"/>
      <point x="233.0" y="604.284493671" type="curve"/>
      <point x="233.055720144" y="652.801763179"/>
      <point x="231.0" y="699.0"/>
      <point x="264.0" y="699.0" type="curve"/>
      <point x="282.0" y="699.0"/>
      <point x="297.0" y="690.0"/>
      <point x="312.0" y="681.0" type="curve"/>
      <point x="370.0" y="769.0"/>
      <point x="312.0" y="681.0"/>
      <point x="370.0" y="769.0" type="curve"/>
      <point x="339.0" y="790.0"/>
      <point x="302.0" y="805.0"/>
      <point x="264.0" y="805.0" type="curve"/>
      <point x="153.0" y="805.0"/>
      <point x="88.889276715" y="722.72699702"/>
      <point x="90.0" y="604.284493671" type="curve"/>
      <point x="90.0" y="604.284493671"/>
      <point x="90.0" y="7.44254511536e-015"/>
      <point x="90.0" y="7.44254511536e-015" type="curve"/>
      <point x="233.0" y="0.0"/>
      <point x="90.0" y="7.44254511536e-015"/>
    </contour>
  </outline>
</glyph>
<glyph name="g" format="1">
  <advance width="482.0"/>
  <unicode hex="0067"/>
  <outline>
    <contour>
      <point x="237.0" y="669.0" type="move" name="top"/>
    </contour>
    <contour>
      <point x="382.0" y="386.0" type="curve"/>
      <point x="414.0" y="405.0"/>
      <point x="448.0" y="421.0"/>
      <point x="480.0" y="440.0" type="curve"/>
      <point x="408.0" y="545.0"/>
      <point x="480.0" y="440.0"/>
      <point x="408.0" y="545.0" type="curve"/>
      <point x="373.0" y="523.0"/>
      <point x="340.0" y="497.0"/>
      <point x="304.0" y="474.0" type="curve"/>
      <point x="382.0" y="386.0"/>
      <point x="304.0" y="474.0"/>
    </contour>
    <contour>
      <point x="181.0" y="336.0" type="curve"/>
      <point x="181.0" y="384.0"/>
      <point x="198.0" y="427.0"/>
      <point x="241.0" y="427.0" type="curve"/>
      <point x="285.0" y="427.0"/>
      <point x="298.0" y="383.0"/>
      <point x="298.0" y="334.0" type="curve"/>
      <point x="298.0" y="290.0"/>
      <point x="285.0" y="250.0"/>
      <point x="245.0" y="250.0" type="curve"/>
      <point x="202.0" y="250.0"/>
      <point x="181.0" y="289.0"/>
      <point x="181.0" y="336.0" type="curve"/>
      <point x="38.0" y="330.0"/>
      <point x="181.0" y="336.0"/>
      <point x="38.0" y="330.0" type="curve"/>
      <point x="38.0" y="216.0"/>
      <point x="117.0" y="140.0"/>
      <point x="232.0" y="140.0" type="curve"/>
      <point x="355.0" y="140.0"/>
      <point x="441.0" y="218.0"/>
      <point x="441.0" y="339.0" type="curve"/>
      <point x="441.0" y="457.0"/>
      <point x="360.0" y="537.0"/>
      <point x="241.0" y="537.0" type="curve"/>
      <point x="118.0" y="537.0"/>
      <point x="38.0" y="453.0"/>
      <point x="38.0" y="330.0" type="curve"/>
      <point x="181.0" y="336.0"/>
      <point x="38.0" y="330.0"/>
    </contour>
    <contour>
      <point x="133.0" y="246.0" type="curve"/>
      <point x="79.0" y="213.0"/>
      <point x="41.0" y="174.0"/>
      <point x="41.0" y="112.0" type="curve"/>
      <point x="41.0" y="18.0"/>
      <point x="123.0" y="-24.0"/>
      <point x="224.0" y="-34.0" type="curve"/>
      <point x="288.079253929" y="-40.0074300559"/>
      <point x="346.0" y="-55.5333333333"/>
      <point x="346.0" y="-119.0" type="curve"/>
      <point x="346.0" y="-172.906976744"/>
      <point x="298.0" y="-195.0"/>
      <point x="240.0" y="-195.0" type="curve"/>
      <point x="186.0" y="-195.0"/>
      <point x="148.0" y="-159.861386139"/>
      <point x="148.0" y="-104.0" type="curve"/>
      <point x="148.0" y="-56.5670103093"/>
      <point x="161.252429756" y="-15.3541122209"/>
      <point x="200.0" y="3.0" type="curve"/>
      <point x="128.0" y="69.0"/>
      <point x="200.0" y="3.0"/>
      <point x="128.0" y="69.0" type="curve"/>
      <point x="53.1754011497" y="33.6099870303"/>
      <point x="5.0" y="-23.1785714286"/>
      <point x="5.0" y="-109.0" type="curve"/>
      <point x="5.0" y="-234.59223301"/>
      <point x="103.0" y="-305.0"/>
      <point x="234.0" y="-305.0" type="curve"/>
      <point x="370.0" y="-305.0"/>
      <point x="477.903403063" y="-237.431408288"/>
      <point x="476.0" y="-108.0" type="curve"/>
      <point x="476.0" y="10.6272189349"/>
      <point x="373.059441745" y="59.9946840716"/>
      <point x="250.0" y="71.0" type="curve"/>
      <point x="214.0" y="74.0"/>
      <point x="184.0" y="89.0"/>
      <point x="184.0" y="123.0" type="curve"/>
      <point x="184.0" y="146.0"/>
      <point x="190.0" y="159.0"/>
      <point x="207.0" y="174.0" type="curve"/>
      <point x="133.0" y="246.0"/>
      <point x="207.0" y="174.0"/>
    </contour>
  </outline>
</glyph>
<glyph name="h" format="1">
  <advance width="524.0"/>
  <unicode hex="0068"/>
  <outline>
    <contour>
      <point x="164.0" y="301.0" type="curve"/>
      <point x="183.0" y="361.0"/>
      <point x="217.0" y="423.0"/>
      <point x="277.0" y="423.0" type="curve"/>
      <point x="331.0" y="423.0"/>
      <point x="332.0" y="371.0"/>
      <point x="332.0" y="308.0" type="curve"/>
      <point x="332.0" y="205.0"/>
      <point x="332.0" y="103.0"/>
      <point x="332.0" y="0.0" type="curve"/>
      <point x="475.0" y="0.0"/>
      <point x="332.0" y="0.0"/>
      <point x="475.0" y="0.0" type="curve"/>
      <point x="475.0" y="106.0"/>
      <point x="475.0" y="213.0"/>
      <point x="475.0" y="319.0" type="curve"/>
      <point x="475.0" y="444.0"/>
      <point x="440.0" y="533.0"/>
      <point x="320.0" y="533.0" type="curve"/>
      <point x="226.0" y="533.0"/>
      <point x="150.932654967" y="454.710123553"/>
      <point x="128.0" y="356.0" type="curve"/>
      <point x="164.0" y="301.0"/>
      <point x="128.0" y="356.0"/>
    </contour>
    <contour>
      <point x="196.0" y="0.0" type="curve"/>
      <point x="196.0" y="267.0"/>
      <point x="196.0" y="533.0"/>
      <point x="196.0" y="800.0" type="curve"/>
      <point x="53.0" y="800.0"/>
      <point x="196.0" y="800.0"/>
      <point x="53.0" y="800.0" type="curve"/>
      <point x="53.0" y="533.0"/>
      <point x="53.0" y="267.0"/>
      <point x="53.0" y="0.0" type="curve"/>
      <point x="196.0" y="0.0"/>
      <point x="53.0" y="0.0"/>
    </contour>
  </outline>
</glyph>
<glyph name="i" format="1">
  <advance width="256.0"/>
  <unicode hex="0069"/>
  <outline>
    <contour>
      <point x="124.0" y="668.0" type="move" name="top"/>
    </contour>
    <contour>
      <point x="172.0" y="14.0" type="move" name="bottom"/>
    </contour>
    <contour>
      <point x="212.0" y="670.0" type="curve"/>
      <point x="212.0" y="718.0"/>
      <point x="176.0" y="742.0"/>
      <point x="126.0" y="742.0" type="curve"/>
      <point x="77.0" y="742.0"/>
      <point x="43.0" y="715.0"/>
      <point x="43.0" y="670.0" type="curve"/>
      <point x="212.0" y="670.0"/>
      <point x="43.0" y="670.0"/>
      <point x="212.0" y="670.0" type="curve"/>
      <point x="212.0" y="621.0"/>
      <point x="176.0" y="599.0"/>
      <point x="126.0" y="599.0" type="curve"/>
      <point x="76.0" y="599.0"/>
      <point x="43.0" y="623.0"/>
      <point x="43.0" y="670.0" type="curve"/>
      <point x="212.0" y="670.0"/>
      <point x="43.0" y="670.0"/>
    </contour>
    <contour>
      <point x="203" y="0" type="curve"/>
      <point x="203" y="178"/>
      <point x="203" y="355"/>
      <point x="203" y="533" type="curve"/>
      <point x="53" y="533"/>
      <point x="203" y="533"/>
      <point x="53" y="533" type="curve"/>
      <point x="53" y="355"/>
      <point x="53" y="178"/>
      <point x="53" y="0" type="curve"/>
      <point x="203" y="0"/>
      <point x="53" y="0"/>
    </contour>
  </outline>
</glyph>
<glyph name="j" format="1">
  <advance width="249.0"/>
  <unicode hex="006A"/>
  <outline>
    <contour>
      <point x="209.0" y="670.0" type="curve"/>
      <point x="209.0" y="718.0"/>
      <point x="174.0" y="742.0"/>
      <point x="124.0" y="742.0" type="curve"/>
      <point x="74.0" y="742.0"/>
      <point x="41.0" y="715.0"/>
      <point x="41.0" y="670.0" type="curve"/>
      <point x="209.0" y="670.0"/>
      <point x="41.0" y="670.0"/>
      <point x="209.0" y="670.0" type="curve"/>
      <point x="209.0" y="621.0"/>
      <point x="174.0" y="599.0"/>
      <point x="124.0" y="599.0" type="curve"/>
      <point x="74.0" y="599.0"/>
      <point x="41.0" y="623.0"/>
      <point x="41.0" y="670.0" type="curve"/>
      <point x="209.0" y="670.0"/>
      <point x="41.0" y="670.0"/>
    </contour>
    <contour>
      <point x="-17.0" y="-304.0" type="curve"/>
      <point x="-9.0" y="-305.0"/>
      <point x="1.0" y="-305.0"/>
      <point x="11.0" y="-305.0" type="curve"/>
      <point x="121.0" y="-305.0"/>
      <point x="196.0" y="-230.0"/>
      <point x="196.0" y="-120.0" type="curve"/>
      <point x="196.0" y="98.0"/>
      <point x="196.0" y="316.0"/>
      <point x="196.0" y="534.0" type="curve"/>
      <point x="53.0" y="534.0"/>
      <point x="196.0" y="534.0"/>
      <point x="53.0" y="534.0" type="curve"/>
      <point x="53.0" y="316.138540356"/>
      <point x="53.0" y="98.0336946109"/>
      <point x="53.0" y="-120.0" type="curve"/>
      <point x="53.0" y="-160.0"/>
      <point x="52.0" y="-200.0"/>
      <point x="17.0" y="-200.0" type="curve"/>
      <point x="12.0" y="-200.0"/>
      <point x="10.0" y="-200.0"/>
      <point x="3.0" y="-199.0" type="curve"/>
      <point x="-17.0" y="-304.0"/>
      <point x="3.0" y="-199.0"/>
    </contour>
  </outline>
</glyph>
<glyph name="k" format="1">
  <advance width="496.0"/>
  <unicode hex="006B"/>
  <outline>
    <contour>
      <point x="268.0" y="23.0" type="move" name="bottom"/>
    </contour>
    <contour>
      <point x="196.0" y="0.0" type="curve"/>
      <point x="196.0" y="0.0"/>
      <point x="196.0" y="800.0"/>
      <point x="196.0" y="800.0" type="curve"/>
      <point x="53.0" y="800.0"/>
      <point x="196.0" y="800.0"/>
      <point x="53.0" y="800.0" type="curve"/>
      <point x="53.0" y="533.0"/>
      <point x="53.0" y="267.0"/>
      <point x="53.0" y="0.0" type="curve"/>
      <point x="196.0" y="0.0"/>
      <point x="53.0" y="0.0"/>
    </contour>
    <contour>
      <point x="306" y="533" type="curve"/>
      <point x="64.0" y="275.0" type="line"/>
      <point x="234.0" y="275.0"/>
      <point x="77" y="275"/>
      <point x="247" y="275" type="curve"/>
      <point x="489" y="533" type="line"/>
      <point x="319" y="533"/>
      <point x="476" y="533"/>
    </contour>
    <contour>
      <point x="509" y="0" type="curve"/>
      <point x="247" y="275" type="line"/>
      <point x="77" y="275"/>
      <point x="234.0" y="275.0"/>
      <point x="64.0" y="275.0" type="curve"/>
      <point x="326" y="0" type="line"/>
      <point x="496" y="0"/>
      <point x="339" y="0"/>
    </contour>
  </outline>
</glyph>
<glyph name="l" format="1">
  <advance width="249.0"/>
  <unicode hex="006C"/>
  <outline>
    <contour>
      <point x="116.0" y="886.0" type="move" name="top"/>
    </contour>
    <contour>
      <point x="128.0" y="39.0" type="move" name="bottom"/>
    </contour>
    <contour>
      <point x="196.0" y="0.0" type="curve"/>
      <point x="196.0" y="267.0"/>
      <point x="196.0" y="533.0"/>
      <point x="196.0" y="800.0" type="curve"/>
      <point x="53.0" y="800.0"/>
      <point x="196.0" y="800.0"/>
      <point x="53.0" y="800.0" type="curve"/>
      <point x="53.0" y="533.0"/>
      <point x="53.0" y="267.0"/>
      <point x="53.0" y="0.0" type="curve"/>
      <point x="196.0" y="0.0"/>
      <point x="53.0" y="0.0"/>
    </contour>
  </outline>
</glyph>
<glyph name="m" format="1">
  <advance width="744.0"/>
  <unicode hex="006D"/>
  <outline>
    <contour>
      <point x="413.0" y="301.0" type="curve"/>
      <point x="431.0" y="360.0"/>
      <point x="445.0" y="423.0"/>
      <point x="503.0" y="423.0" type="curve"/>
      <point x="561.0" y="423.0"/>
      <point x="551.0" y="374.0"/>
      <point x="551.0" y="308.0" type="curve"/>
      <point x="551.0" y="205.0"/>
      <point x="551.0" y="103.0"/>
      <point x="551.0" y="0.0" type="curve"/>
      <point x="694.0" y="0.0"/>
      <point x="551.0" y="0.0"/>
      <point x="694.0" y="0.0" type="curve"/>
      <point x="694.0" y="106.0"/>
      <point x="694.0" y="213.0"/>
      <point x="694.0" y="319.0" type="curve"/>
      <point x="694.0" y="451.014018692"/>
      <point x="683.0" y="538.0"/>
      <point x="555.0" y="538.0" type="curve"/>
      <point x="461.0" y="538.0"/>
      <point x="400.619263411" y="461.773223102"/>
      <point x="377.0" y="356.0" type="curve"/>
      <point x="413.0" y="301.0"/>
      <point x="377.0" y="356.0"/>
    </contour>
    <contour>
      <point x="164.0" y="301.0" type="curve"/>
      <point x="183.0" y="361.0"/>
      <point x="195.0" y="423.0"/>
      <point x="254.0" y="423.0" type="curve"/>
      <point x="311.0" y="423.0"/>
      <point x="302.0" y="374.0"/>
      <point x="302.0" y="308.0" type="curve"/>
      <point x="302.0" y="205.0"/>
      <point x="302.0" y="103.0"/>
      <point x="302.0" y="0.0" type="curve"/>
      <point x="445.0" y="0.0"/>
      <point x="302.0" y="0.0"/>
      <point x="445.0" y="0.0" type="curve"/>
      <point x="445.0" y="106.0"/>
      <point x="445.0" y="213.0"/>
      <point x="445.0" y="319.0" type="curve"/>
      <point x="445.0" y="451.014018692"/>
      <point x="434.0" y="538.0"/>
      <point x="306.0" y="538.0" type="curve"/>
      <point x="211.0" y="538.0"/>
      <point x="152.644134595" y="462.79124991"/>
      <point x="128.0" y="356.0" type="curve"/>
      <point x="164.0" y="301.0"/>
      <point x="128.0" y="356.0"/>
    </contour>
    <contour>
      <point x="196.0" y="0.0" type="curve"/>
      <point x="196.0" y="178.0"/>
      <point x="196.0" y="355.0"/>
      <point x="196.0" y="533.0" type="curve"/>
      <point x="53.0" y="533.0"/>
      <point x="196.0" y="533.0"/>
      <point x="53.0" y="533.0" type="curve"/>
      <point x="53.0" y="355.0"/>
      <point x="53.0" y="178.0"/>
      <point x="53.0" y="0.0" type="curve"/>
      <point x="196.0" y="0.0"/>
      <point x="53.0" y="0.0"/>
    </contour>
  </outline>
</glyph>
<glyph name="n" format="1">
  <advance width="524.0"/>
  <unicode hex="006E"/>
  <outline>
    <contour>
      <point x="256.0" y="670.0" type="move" name="top"/>
    </contour>
    <contour>
      <point x="295.0" y="38.0" type="move" name="bottom"/>
    </contour>
    <contour>
      <point x="164.0" y="301.0" type="curve"/>
      <point x="182.0" y="360.0"/>
      <point x="211.0" y="423.0"/>
      <point x="269.0" y="423.0" type="curve"/>
      <point x="325.0" y="423.0"/>
      <point x="332.0" y="372.0"/>
      <point x="332.0" y="308.0" type="curve"/>
      <point x="332.0" y="205.0"/>
      <point x="332.0" y="103.0"/>
      <point x="332.0" y="0.0" type="curve"/>
      <point x="475.0" y="0.0"/>
      <point x="332.0" y="0.0"/>
      <point x="475.0" y="0.0" type="curve"/>
      <point x="475.0" y="106.0"/>
      <point x="475.0" y="213.0"/>
      <point x="475.0" y="319.0" type="curve"/>
      <point x="475.0" y="445.897196262"/>
      <point x="444.0" y="538.0"/>
      <point x="322.0" y="538.0" type="curve"/>
      <point x="227.0" y="538.0"/>
      <point x="151.53739649" y="459.359871545"/>
      <point x="128.0" y="356.0" type="curve"/>
      <point x="164.0" y="301.0"/>
      <point x="128.0" y="356.0"/>
    </contour>
    <contour>
      <point x="196.0" y="0.0" type="curve"/>
      <point x="196.0" y="178.0"/>
      <point x="196.0" y="355.0"/>
      <point x="196.0" y="533.0" type="curve"/>
      <point x="53.0" y="533.0"/>
      <point x="196.0" y="533.0"/>
      <point x="53.0" y="533.0" type="curve"/>
      <point x="53.0" y="355.0"/>
      <point x="53.0" y="178.0"/>
      <point x="53.0" y="0.0" type="curve"/>
      <point x="196.0" y="0.0"/>
      <point x="53.0" y="0.0"/>
    </contour>
  </outline>
</glyph>
<glyph name="o" format="1">
  <advance width="528.0"/>
  <unicode hex="006F"/>
  <outline>
    <contour>
      <point x="259.0" y="669.0" type="move" name="top"/>
    </contour>
    <contour>
      <point x="164.0" y="265.0" type="line"/>
      <point x="164.0" y="345.0"/>
      <point x="182.0" y="423.0"/>
      <point x="258.0" y="423.0" type="curve"/>
      <point x="334.0" y="423.0"/>
      <point x="354.0" y="347.0"/>
      <point x="354.0" y="265.0" type="curve"/>
      <point x="354.0" y="180.0"/>
      <point x="338.0" y="110.0"/>
      <point x="267.0" y="110.0" type="curve"/>
      <point x="182.0" y="111.0"/>
      <point x="164.0" y="179.0"/>
      <point x="164.0" y="265.0" type="curve"/>
      <point x="31.0" y="265.0" type="line"/>
      <point x="31.0" y="105.0"/>
      <point x="109.0" y="-5.0"/>
      <point x="261.0" y="-5.0" type="curve"/>
      <point x="415.0" y="-5.0"/>
      <point x="497.0" y="103.0"/>
      <point x="497.0" y="265.0" type="curve"/>
      <point x="497.0" y="427.0"/>
      <point x="418.0" y="538.0"/>
      <point x="265.0" y="538.0" type="curve"/>
      <point x="110.0" y="538.0"/>
      <point x="31.0" y="427.0"/>
      <point x="31.0" y="265.0" type="curve"/>
    </contour>
  </outline>
</glyph>
<glyph name="p" format="1">
  <advance width="543.0"/>
  <unicode hex="0070"/>
  <outline>
    <contour>
      <point x="160.0" y="346.0" type="curve"/>
      <point x="182.0" y="379.0"/>
      <point x="224.0" y="424.0"/>
      <point x="281.0" y="424.0" type="curve"/>
      <point x="360.0" y="424.0"/>
      <point x="368.0" y="346.0"/>
      <point x="368.0" y="261.0" type="curve"/>
      <point x="369.0" y="179.0"/>
      <point x="358.0" y="105.0"/>
      <point x="283.0" y="105.0" type="curve"/>
      <point x="235.0" y="105.0"/>
      <point x="200.0" y="125.0"/>
      <point x="170.0" y="162.0" type="curve"/>
      <point x="121.0" y="102.0"/>
      <point x="170.0" y="162.0"/>
      <point x="121.0" y="102.0" type="curve"/>
      <point x="172.0" y="33.0"/>
      <point x="228.0" y="-5.0"/>
      <point x="310.0" y="-5.0" type="curve"/>
      <point x="457.0" y="-5.0"/>
      <point x="511.0" y="119.0"/>
      <point x="511.0" y="267.0" type="curve"/>
      <point x="511.0" y="413.0"/>
      <point x="459.0" y="539.0"/>
      <point x="310.0" y="539.0" type="curve"/>
      <point x="228.0" y="539.0"/>
      <point x="166.0" y="481.0"/>
      <point x="130.0" y="423.0" type="curve"/>
      <point x="160.0" y="346.0"/>
      <point x="130.0" y="423.0"/>
    </contour>
    <contour>
      <point x="196.0" y="-300.0" type="curve"/>
      <point x="196.0" y="-22.0"/>
      <point x="196.0" y="255.0"/>
      <point x="196.0" y="533.0" type="curve"/>
      <point x="53.0" y="533.0"/>
      <point x="196.0" y="533.0"/>
      <point x="53.0" y="533.0" type="curve"/>
      <point x="53.0" y="255.0"/>
      <point x="53.0" y="-22.0"/>
      <point x="53.0" y="-300.0" type="curve"/>
      <point x="196.0" y="-300.0"/>
      <point x="53.0" y="-300.0"/>
    </contour>
  </outline>
</glyph>
<glyph name="q" format="1">
  <advance width="549.0"/>
  <unicode hex="0071"/>
  <outline>
    <contour>
      <point x="416.0" y="436.0" type="curve"/>
      <point x="363.0" y="489.0"/>
      <point x="318.0" y="538.0"/>
      <point x="240.0" y="538.0" type="curve"/>
      <point x="85.0" y="538.0"/>
      <point x="31.0" y="414.0"/>
      <point x="32.0" y="265.0" type="curve"/>
      <point x="32.0" y="115.0"/>
      <point x="93.0" y="-5.0"/>
      <point x="245.0" y="-5.0" type="curve"/>
      <point x="321.0" y="-5.0"/>
      <point x="381.0" y="54.0"/>
      <point x="421.0" y="124.0" type="curve"/>
      <point x="379.0" y="185.0"/>
      <point x="421.0" y="124.0"/>
      <point x="379.0" y="185.0" type="curve"/>
      <point x="353.0" y="140.0"/>
      <point x="312.0" y="105.0"/>
      <point x="261.0" y="105.0" type="curve"/>
      <point x="183.0" y="105.0"/>
      <point x="175.0" y="184.0"/>
      <point x="175.0" y="271.0" type="curve"/>
      <point x="175.0" y="351.0"/>
      <point x="184.0" y="424.0"/>
      <point x="262.0" y="424.0" type="curve"/>
      <point x="309.0" y="424.0"/>
      <point x="352.0" y="403.0"/>
      <point x="387.0" y="370.0" type="curve"/>
      <point x="416.0" y="436.0"/>
      <point x="387.0" y="370.0"/>
    </contour>
    <contour>
      <point x="496.0" y="-300.0" type="curve"/>
      <point x="496.0" y="-22.0"/>
      <point x="496.0" y="255.0"/>
      <point x="496.0" y="533.0" type="curve"/>
      <point x="347.0" y="533.0"/>
      <point x="496.0" y="533.0"/>
      <point x="347.0" y="533.0" type="curve"/>
      <point x="347.0" y="255.0"/>
      <point x="347.0" y="-22.0"/>
      <point x="347.0" y="-300.0" type="curve"/>
      <point x="496.0" y="-300.0"/>
      <point x="347.0" y="-300.0"/>
    </contour>
  </outline>
</glyph>
<glyph name="r" format="1">
  <advance width="322.0"/>
  <unicode hex="0072"/>
  <outline>
    <contour>
      <point x="131.0" y="36.0" type="move" name="bottom"/>
    </contour>
    <contour>
      <point x="196.0" y="0.0" type="curve"/>
      <point x="196.0" y="178.0"/>
      <point x="196.0" y="355.0"/>
      <point x="196.0" y="533.0" type="curve"/>
      <point x="53.0" y="533.0"/>
      <point x="196.0" y="533.0"/>
      <point x="53.0" y="533.0" type="curve"/>
      <point x="53.0" y="355.0"/>
      <point x="53.0" y="178.0"/>
      <point x="53.0" y="0.0" type="curve"/>
      <point x="196.0" y="0.0"/>
      <point x="53.0" y="0.0"/>
    </contour>
    <contour>
      <point x="154.0" y="351.0" type="curve"/>
      <point x="185.0" y="410.0"/>
      <point x="244.0" y="423.0"/>
      <point x="312.0" y="423.0" type="curve"/>
      <point x="312.0" y="538.0"/>
      <point x="312.0" y="423.0"/>
      <point x="312.0" y="538.0" type="curve"/>
      <point x="217.0" y="538.0"/>
      <point x="153.0" y="484.0"/>
      <point x="113.0" y="397.0" type="curve"/>
      <point x="154.0" y="351.0"/>
      <point x="113.0" y="397.0"/>
    </contour>
  </outline>
</glyph>
<glyph name="s" format="1">
  <advance width="407.0"/>
  <unicode hex="0073"/>
  <outline>
    <contour>
      <point x="148.0" y="23.0" type="move" name="bottom"/>
    </contour>
    <contour>
      <point x="194.0" y="670.0" type="move" name="top"/>
    </contour>
    <contour>
      <point x="27.0" y="47.0" type="curve"/>
      <point x="83.4661484993" y="15.1736253913"/>
      <point x="137.0" y="-5.0"/>
      <point x="197.0" y="-5.0" type="curve"/>
      <point x="312.0" y="-5.0"/>
      <point x="388.0" y="50.6666666667"/>
      <point x="388.0" y="162.0" type="curve"/>
      <point x="387.0" y="259.0"/>
      <point x="316.0" y="293.0"/>
      <point x="221.0" y="327.0" type="curve"/>
      <point x="186.0" y="339.0"/>
      <point x="160.0" y="357.0"/>
      <point x="160.0" y="388.0" type="curve"/>
      <point x="160.0" y="407.0"/>
      <point x="171.666666667" y="423.0"/>
      <point x="195.0" y="423.0" type="curve"/>
      <point x="225.0" y="423.0"/>
      <point x="261.0" y="407.0"/>
      <point x="280.0" y="393.0" type="curve"/>
      <point x="345.0" y="493.0"/>
      <point x="280.0" y="393.0"/>
      <point x="345.0" y="493.0" type="curve"/>
      <point x="312.650336396" y="515.957825784"/>
      <point x="252.0" y="538.0"/>
      <point x="201.0" y="538.0" type="curve"/>
      <point x="97.0" y="538.0"/>
      <point x="30.0" y="487.310344828"/>
      <point x="30.0" y="388.0" type="curve"/>
      <point x="30.0" y="297.0"/>
      <point x="86.0" y="253.0"/>
      <point x="175.0" y="222.0" type="curve"/>
      <point x="215.697810801" y="207.75576622"/>
      <point x="251.0" y="191.0"/>
      <point x="251.0" y="153.0" type="curve"/>
      <point x="251.0" y="128.0"/>
      <point x="234.0" y="114.0"/>
      <point x="212.0" y="114.0" type="curve"/>
      <point x="170.0" y="114.0"/>
      <point x="134.80071013" y="125.273273083"/>
      <point x="99.0" y="146.0" type="curve"/>
      <point x="27.0" y="47.0"/>
      <point x="99.0" y="146.0"/>
    </contour>
  </outline>
</glyph>
<glyph name="t" format="1">
  <advance width="344.0"/>
  <unicode hex="0074"/>
  <outline>
    <contour>
      <point x="223.0" y="39.0" type="move" name="bottom"/>
    </contour>
    <contour>
      <point x="30.25" y="421.068297631" type="curve"/>
      <point x="30.25" y="421.068297631"/>
      <point x="323.5" y="421.068297631"/>
      <point x="323.5" y="421.068297631" type="curve"/>
      <point x="323.5" y="531.568297631"/>
      <point x="323.5" y="421.068297631"/>
      <point x="323.5" y="531.568297631" type="curve"/>
      <point x="323.5" y="531.568297631"/>
      <point x="30.25" y="531.568297631"/>
      <point x="30.25" y="531.568297631" type="curve"/>
      <point x="30.25" y="421.068297631"/>
      <point x="30.25" y="531.568297631"/>
    </contour>
    <contour>
      <point x="279.625" y="125.050348913" type="curve"/>
      <point x="268.0" y="115.0"/>
      <point x="260.0" y="110.0"/>
      <point x="246.0" y="110.0" type="curve"/>
      <point x="214.0" y="110.0"/>
      <point x="217.25" y="139.524878879"/>
      <point x="217.25" y="175.435605323" type="curve"/>
      <point x="217.25" y="175.435605323"/>
      <point x="217.25" y="651.456759169"/>
      <point x="217.25" y="651.456759169" type="curve"/>
      <point x="74.25" y="579.631759169"/>
      <point x="217.25" y="651.456759169"/>
      <point x="74.25" y="579.631759169" type="curve"/>
      <point x="74.25" y="579.631759169"/>
      <point x="74.25" y="169.910605323"/>
      <point x="74.25" y="169.910605323" type="curve"/>
      <point x="74.25" y="59.7722183011"/>
      <point x="123.539237543" y="-5.58747160013"/>
      <point x="224.75" y="-5.58747160013" type="curve"/>
      <point x="269.450091758" y="-5.58747160013"/>
      <point x="299.220599353" y="8.11847259016"/>
      <point x="338.125" y="31.1253489127" type="curve"/>
      <point x="279.625" y="125.050348913"/>
      <point x="338.125" y="31.1253489127"/>
    </contour>
  </outline>
</glyph>
<glyph name="u" format="1">
  <advance width="518.0"/>
  <unicode hex="0075"/>
  <outline>
    <contour>
      <point x="231.0" y="670.0" type="move" name="top"/>
    </contour>
    <contour>
      <point x="431.0" y="14.0" type="move" name="bottom"/>
    </contour>
    <contour>
      <point x="465.0" y="0.0" type="curve"/>
      <point x="465.0" y="178.0"/>
      <point x="465.0" y="355.0"/>
      <point x="465.0" y="533.0" type="curve"/>
      <point x="322.0" y="533.0"/>
      <point x="465.0" y="533.0"/>
      <point x="322.0" y="533.0" type="curve"/>
      <point x="322.0" y="355.0"/>
      <point x="322.0" y="178.0"/>
      <point x="322.0" y="0.0" type="curve"/>
      <point x="465.0" y="0.0"/>
      <point x="322.0" y="0.0"/>
    </contour>
    <contour>
      <point x="345.0" y="214.0" type="curve"/>
      <point x="326.0" y="169.0"/>
      <point x="300.0" y="111.0"/>
      <point x="250.0" y="111.0" type="curve"/>
      <point x="197.0" y="111.0"/>
      <point x="191.0" y="159.0"/>
      <point x="191.0" y="219.0" type="curve"/>
      <point x="191.0" y="324.0"/>
      <point x="191.0" y="428.0"/>
      <point x="191.0" y="533.0" type="curve"/>
      <point x="48.0" y="533.0"/>
      <point x="191.0" y="533.0"/>
      <point x="48.0" y="533.0" type="curve"/>
      <point x="48.0" y="426.0"/>
      <point x="48.0" y="320.0"/>
      <point x="48.0" y="214.0" type="curve"/>
      <point x="48.0" y="83.0"/>
      <point x="94.0" y="-5.0"/>
      <point x="228.0" y="-5.0" type="curve"/>
      <point x="316.0" y="-5.0"/>
      <point x="368.0" y="80.0"/>
      <point x="400.0" y="164.0" type="curve"/>
      <point x="345.0" y="214.0"/>
      <point x="400.0" y="164.0"/>
    </contour>
  </outline>
</glyph>
<glyph name="v" format="1">
  <advance width="485.0"/>
  <unicode hex="0076"/>
  <outline>
    <contour>
      <point x="11.0" y="533.0" type="curve"/>
      <point x="63.0" y="355.0"/>
      <point x="115.0" y="178.0"/>
      <point x="167.0" y="0.0" type="curve"/>
      <point x="300.0" y="0.0"/>
      <point x="167.0" y="0.0"/>
      <point x="300.0" y="0.0" type="curve"/>
      <point x="249.243663181" y="177.149567723"/>
      <point x="206.756336819" y="355.850432277"/>
      <point x="156.0" y="533.0" type="curve"/>
      <point x="11.0" y="533.0"/>
      <point x="156.0" y="533.0"/>
    </contour>
    <contour>
      <point x="334.0" y="533.0" type="curve"/>
      <point x="334.0" y="533.0"/>
      <point x="180.0" y="0.0"/>
      <point x="180.0" y="0.0" type="curve"/>
      <point x="314.0" y="0.0"/>
      <point x="180.0" y="0.0"/>
      <point x="314.0" y="0.0" type="curve"/>
      <point x="369.0" y="178.0"/>
      <point x="423.0" y="355.0"/>
      <point x="478.0" y="533.0" type="curve"/>
      <point x="334.0" y="533.0"/>
      <point x="478.0" y="533.0"/>
    </contour>
  </outline>
</glyph>
<glyph name="w" format="1">
  <advance width="715.0"/>
  <unicode hex="0077"/>
  <outline>
    <contour>
      <point x="270.0" y="0.0" type="curve"/>
      <point x="321.0" y="178.0"/>
      <point x="372.0" y="355.0"/>
      <point x="422.0" y="533.0" type="curve"/>
      <point x="299.0" y="533.0"/>
      <point x="422.0" y="533.0"/>
      <point x="299.0" y="533.0" type="curve"/>
      <point x="249.0" y="355.0"/>
      <point x="199.0" y="178.0"/>
      <point x="149.0" y="0.0" type="curve"/>
      <point x="270.0" y="0.0"/>
      <point x="149.0" y="0.0"/>
    </contour>
    <contour>
      <point x="582" y="533" type="curve"/>
      <point x="535" y="355"/>
      <point x="488" y="178"/>
      <point x="442" y="0" type="curve"/>
      <point x="562" y="0"/>
      <point x="442" y="0"/>
      <point x="562" y="0" type="curve"/>
      <point x="610" y="178"/>
      <point x="658" y="355"/>
      <point x="705" y="533" type="curve"/>
      <point x="582" y="533"/>
      <point x="705" y="533"/>
    </contour>
    <contour>
      <point x="304.0" y="533.0" type="curve"/>
      <point x="349.0" y="355.0"/>
      <point x="395.0" y="178.0"/>
      <point x="441.0" y="0.0" type="curve"/>
      <point x="562.0" y="0.0"/>
      <point x="441.0" y="0.0"/>
      <point x="562.0" y="0.0" type="curve"/>
      <point x="517.0" y="178.0"/>
      <point x="471.0" y="355.0"/>
      <point x="426.0" y="533.0" type="curve"/>
      <point x="304.0" y="533.0"/>
      <point x="426.0" y="533.0"/>
    </contour>
    <contour>
      <point x="12" y="533" type="curve"/>
      <point x="57" y="355"/>
      <point x="103" y="178"/>
      <point x="149" y="0" type="curve"/>
      <point x="269" y="0"/>
      <point x="149" y="0"/>
      <point x="269" y="0" type="curve"/>
      <point x="224" y="178"/>
      <point x="179" y="355"/>
      <point x="134" y="533" type="curve"/>
      <point x="12" y="533"/>
      <point x="134" y="533"/>
    </contour>
  </outline>
</glyph>
<glyph name="x" format="1">
  <advance width="472.0"/>
  <unicode hex="0078"/>
  <outline>
    <contour>
      <point x="462.0" y="0.0" type="curve"/>
      <point x="358.0" y="178.0"/>
      <point x="253.0" y="355.0"/>
      <point x="149.0" y="533.0" type="curve"/>
      <point x="25.0" y="533.0"/>
      <point x="129" y="533"/>
      <point x="5" y="533" type="curve"/>
      <point x="109" y="355"/>
      <point x="213" y="178"/>
      <point x="316" y="0" type="curve"/>
      <point x="442" y="0"/>
      <point x="336.0" y="0.0"/>
    </contour>
    <contour>
      <point x="324" y="533" type="curve"/>
      <point x="219" y="355"/>
      <point x="113" y="178"/>
      <point x="8" y="0" type="curve"/>
      <point x="134" y="0"/>
      <point x="28" y="0"/>
      <point x="154" y="0" type="curve"/>
      <point x="259" y="178"/>
      <point x="364" y="355"/>
      <point x="468" y="533" type="curve"/>
      <point x="344" y="533"/>
      <point x="448" y="533"/>
    </contour>
  </outline>
</glyph>
<glyph name="y" format="1">
  <advance width="474.0"/>
  <unicode hex="0079"/>
  <outline>
    <contour>
      <point x="243.0" y="669.0" type="move" name="top"/>
    </contour>
    <contour>
      <point x="296.0" y="77.0" type="curve"/>
      <point x="247.0" y="229.0"/>
      <point x="201.0" y="380.0"/>
      <point x="152.0" y="533.0" type="curve"/>
      <point x="6.0" y="533.0"/>
      <point x="152.0" y="533.0"/>
      <point x="6.0" y="533.0" type="curve"/>
      <point x="59.0" y="381.0"/>
      <point x="111.0" y="229.0"/>
      <point x="164.0" y="77.0" type="curve"/>
      <point x="296.0" y="77.0"/>
      <point x="164.0" y="77.0"/>
    </contour>
    <contour>
      <point x="170.0" y="-300.0" type="curve"/>
      <point x="271.0" y="-22.0"/>
      <point x="373.0" y="255.0"/>
      <point x="474.0" y="533.0" type="curve"/>
      <point x="329.0" y="533.0"/>
      <point x="474.0" y="533.0"/>
      <point x="329.0" y="533.0" type="curve"/>
      <point x="227.0" y="255.0"/>
      <point x="125.0" y="-22.0"/>
      <point x="24.0" y="-300.0" type="curve"/>
      <point x="170.0" y="-300.0"/>
      <point x="24.0" y="-300.0"/>
    </contour>
  </outline>
</glyph>
<glyph name="z" format="1">
  <advance width="455.0"/>
  <unicode hex="007A"/>
  <outline>
    <contour>
      <point x="232.0" y="669.0" type="move" name="top"/>
    </contour>
    <contour>
      <point x="41.0" y="423.0" type="curve"/>
      <point x="148.286219081" y="423.0"/>
      <point x="256.14418811" y="422.5"/>
      <point x="364.0" y="422.5" type="curve"/>
      <point x="352.668864842" y="433.506697821"/>
      <point x="333.456135158" y="430.539062413"/>
      <point x="322.125" y="441.545760234" type="curve"/>
      <point x="311.602904986" y="451.14054141"/>
      <point x="314.522095014" y="468.978805569"/>
      <point x="304.0" y="478.573586745" type="curve"/>
      <point x="296.364463301" y="468.612941122"/>
      <point x="279.010536699" y="479.474778176"/>
      <point x="271.375" y="469.514132554" type="curve"/>
      <point x="191.078957528" y="349.426026779"/>
      <point x="271.375" y="469.514132554"/>
      <point x="28.625" y="110.5" type="curve"/>
      <point x="28.625" y="54.4264132554"/>
      <point x="28.625" y="110.5"/>
      <point x="28.625" y="54.4264132554" type="curve"/>
      <point x="28.625" y="0.0"/>
      <point x="28.625" y="54.4264132554"/>
      <point x="28.625" y="0.0" type="curve"/>
      <point x="81.25" y="0.0"/>
      <point x="28.625" y="0.0"/>
      <point x="81.25" y="0.0" type="curve"/>
      <point x="420.734362783" y="0.0"/>
      <point x="307.307271306" y="0.0"/>
      <point x="421.0" y="0.0" type="curve"/>
      <point x="421.0" y="110.0"/>
      <point x="421.0" y="0.0"/>
      <point x="421.0" y="110.0" type="curve"/>
      <point x="307.307271306" y="110.0"/>
      <point x="194.410322647" y="110.5"/>
      <point x="81.25" y="110.5" type="curve"/>
      <point x="91.4317572243" y="101.713403683"/>
      <point x="107.193242776" y="103.415129456"/>
      <point x="117.375" y="94.6285331384" type="curve"/>
      <point x="128.860983608" y="83.9939896504"/>
      <point x="127.639016392" y="65.0609567434"/>
      <point x="139.125" y="54.4264132554" type="curve"/>
      <point x="146.760536699" y="64.3870588777"/>
      <point x="164.114463301" y="53.525221824"/>
      <point x="171.75" y="63.4858674464" type="curve"/>
      <point x="252.890901809" y="184.49242243"/>
      <point x="171.75" y="63.4858674464"/>
      <point x="421.0" y="422.5" type="curve"/>
      <point x="421.0" y="478.573586745"/>
      <point x="421.0" y="422.5"/>
      <point x="421.0" y="478.573586745" type="curve"/>
      <point x="421.0" y="533.0"/>
      <point x="421.0" y="478.573586745"/>
      <point x="421.0" y="533.0" type="curve"/>
      <point x="364.0" y="533.0"/>
      <point x="421.0" y="533.0"/>
      <point x="364.0" y="533.0" type="curve"/>
      <point x="256.14418811" y="533.0"/>
      <point x="148.286219081" y="533.0"/>
      <point x="41.0" y="533.0" type="curve"/>
      <point x="41.0" y="423.0"/>
      <point x="41.0" y="533.0"/>
    </contour>
  </outline>
</glyph>
<glyph name="bar" format="1">
  <advance width="255.0"/>
  <unicode hex="007C"/>
  <outline>
    <contour>
      <point x="198.5" y="-300.0" type="curve"/>
      <point x="198.5" y="66.663"/>
      <point x="198.5" y="433.337"/>
      <point x="198.5" y="800.0" type="curve"/>
      <point x="55.5" y="800.0"/>
      <point x="198.5" y="800.0"/>
      <point x="55.5" y="800.0" type="curve"/>
      <point x="55.5" y="433.337"/>
      <point x="55.5" y="66.663"/>
      <point x="55.5" y="-300.0" type="curve"/>
      <point x="198.5" y="-300.0"/>
      <point x="55.5" y="-300.0"/>
    </contour>
  </outline>
</glyph>
<glyph name="asciitilde" format="1">
  <advance width="563.0"/>
  <unicode hex="007E"/>
  <outline>
    <contour>
      <point x="410.0" y="380.0" type="curve"/>
      <point x="401" y="347"/>
      <point x="393" y="315"/>
      <point x="361" y="315" type="curve"/>
      <point x="343" y="315"/>
      <point x="331" y="323"/>
      <point x="318" y="336" type="curve"/>
      <point x="283" y="372"/>
      <point x="248" y="393"/>
      <point x="198.0" y="393.0" type="curve"/>
      <point x="110" y="393"/>
      <point x="59" y="331"/>
      <point x="39.0" y="242.0" type="curve"/>
      <point x="80" y="228"/>
      <point x="111" y="217"/>
      <point x="152" y="204" type="curve"/>
      <point x="161" y="238"/>
      <point x="168" y="272"/>
      <point x="201" y="272" type="curve"/>
      <point x="221" y="272"/>
      <point x="234" y="264"/>
      <point x="248" y="250" type="curve"/>
      <point x="284" y="214"/>
      <point x="319" y="193"/>
      <point x="369.0" y="192.0" type="curve"/>
      <point x="454" y="192"/>
      <point x="498" y="258"/>
      <point x="523.0" y="344.0" type="curve"/>
      <point x="482" y="357"/>
      <point x="451" y="367"/>
    </contour>
  </outline>
</glyph>
<glyph name="cent" format="1">
  <advance width="537.0"/>
  <unicode hex="00A2"/>
  <outline>
    <contour>
      <point x="362.0" y="-53.0" type="curve"/>
      <point x="362.0" y="-13.0"/>
      <point x="362.0" y="27.0"/>
      <point x="362.0" y="67.0" type="curve"/>
      <point x="219.0" y="67.0"/>
      <point x="362.0" y="67.0"/>
      <point x="219.0" y="67.0" type="curve"/>
      <point x="219.0" y="27.0"/>
      <point x="219.0" y="-13.0"/>
      <point x="219.0" y="-53.0" type="curve"/>
      <point x="362.0" y="-53.0"/>
      <point x="219.0" y="-53.0"/>
    </contour>
    <contour>
      <point x="235.0" y="778.0" type="curve"/>
      <point x="235.0" y="742.0"/>
      <point x="235.0" y="706.0"/>
      <point x="235.0" y="670.0" type="curve"/>
      <point x="378.0" y="670.0"/>
      <point x="235.0" y="670.0"/>
      <point x="378.0" y="670.0" type="curve"/>
      <point x="378.0" y="706.0"/>
      <point x="378.0" y="742.0"/>
      <point x="378.0" y="778.0" type="curve"/>
      <point x="235.0" y="778.0"/>
      <point x="378.0" y="778.0"/>
    </contour>
    <contour>
      <point x="510" y="592" type="curve"/>
      <point x="448" y="669"/>
      <point x="392.0" y="687.0"/>
      <point x="315.0" y="687.0" type="curve"/>
      <point x="133.0" y="687.0"/>
      <point x="31.0" y="554.0"/>
      <point x="31.0" y="363.0" type="curve"/>
      <point x="31.0" y="180.0"/>
      <point x="114.0" y="45.0"/>
      <point x="284.0" y="45.0" type="curve"/>
      <point x="376.0" y="45.0"/>
      <point x="441" y="71"/>
      <point x="504" y="153" type="curve"/>
      <point x="417" y="228"/>
      <point x="504" y="153"/>
      <point x="417.0" y="228.0" type="curve"/>
      <point x="379.0" y="191.0"/>
      <point x="350.0" y="161.0"/>
      <point x="297.0" y="161.0" type="curve"/>
      <point x="204.0" y="161.0"/>
      <point x="174.0" y="256.0"/>
      <point x="174.0" y="369.0" type="curve"/>
      <point x="174.0" y="480.0"/>
      <point x="214.0" y="571.0"/>
      <point x="302.0" y="571.0" type="curve"/>
      <point x="353.0" y="571.0"/>
      <point x="387.0" y="553.0"/>
      <point x="426.0" y="519.0" type="curve"/>
      <point x="510" y="592"/>
      <point x="426" y="519"/>
    </contour>
  </outline>
</glyph>
<glyph name="sterling" format="1">
  <advance width="407.0"/>
  <unicode hex="00A3"/>
  <outline>
    <contour>
      <point x="351.0" y="111.0" type="curve"/>
      <point x="251.0" y="111.0"/>
      <point x="141.2489925" y="110.5"/>
      <point x="40.5" y="110.5" type="curve"/>
      <point x="40.5" y="0.0"/>
      <point x="40.5" y="110.5"/>
      <point x="40.5" y="0.0" type="curve"/>
      <point x="141.2489925" y="-1.23377856357e-014"/>
      <point x="250.0" y="0.0"/>
      <point x="351.0" y="0.0" type="curve"/>
      <point x="351.0" y="111.0"/>
      <point x="351.0" y="0.0"/>
    </contour>
    <contour>
      <point x="307.5" y="430.187321937" type="curve"/>
      <point x="227.2508025" y="430.187321937"/>
      <point x="136.0" y="430.0"/>
      <point x="56.0" y="430.0" type="curve"/>
      <point x="56.0" y="320.0"/>
      <point x="56.0" y="430.0"/>
      <point x="56.0" y="320.0" type="curve"/>
      <point x="136.0" y="320.0"/>
      <point x="227.2508025" y="319.687321937"/>
      <point x="307.5" y="319.687321937" type="curve"/>
      <point x="307.5" y="430.187321937"/>
      <point x="307.5" y="319.687321937"/>
    </contour>
    <contour>
      <point x="382.0" y="660.0" type="curve"/>
      <point x="342.0" y="707.0"/>
      <point x="305.043251191" y="719.673041311"/>
      <point x="252.625" y="719.673041311" type="curve"/>
      <point x="93.5547893681" y="719.673041311"/>
      <point x="58.0" y="557.0"/>
      <point x="92.0" y="362.0" type="curve"/>
      <point x="114.0" y="234.0"/>
      <point x="111.0" y="111.0"/>
      <point x="40.5" y="110.5" type="curve"/>
      <point x="40.5" y="0.0"/>
      <point x="40.5" y="110.5"/>
      <point x="40.5" y="0.0" type="curve"/>
      <point x="214.759995124" y="-2.13399897246e-014"/>
      <point x="253.078734038" y="177.358961726"/>
      <point x="217.75" y="385.987321937" type="curve"/>
      <point x="198.335949319" y="501.643442492"/>
      <point x="190.0" y="615.0"/>
      <point x="246.125" y="614.698041311" type="curve"/>
      <point x="274.154097901" y="614.698041311"/>
      <point x="289.108118544" y="598.40706295"/>
      <point x="310.375" y="579.28215812" type="curve"/>
      <point x="382.0" y="660.0"/>
      <point x="310.0" y="579.0"/>
    </contour>
  </outline>
</glyph>
<glyph name="currency" format="1">
  <advance width="484.0"/>
  <unicode hex="00A4"/>
  <outline>
    <contour>
      <point x="369.0" y="373.0" type="curve"/>
      <point x="393.0" y="400.0"/>
      <point x="417.0" y="428.0"/>
      <point x="441.0" y="455.0" type="curve"/>
      <point x="344.0" y="544.0"/>
      <point x="441.0" y="455.0"/>
      <point x="344.0" y="544.0" type="curve"/>
      <point x="320.0" y="516.0"/>
      <point x="296.0" y="489.0"/>
      <point x="272.0" y="461.0" type="curve"/>
      <point x="369.0" y="373.0"/>
      <point x="272.0" y="461.0"/>
    </contour>
    <contour>
      <point x="134.0" y="91.0" type="curve"/>
      <point x="157.0" y="118.0"/>
      <point x="179.0" y="144.0"/>
      <point x="202.0" y="171.0" type="curve"/>
      <point x="111.0" y="265.0"/>
      <point x="202.0" y="171.0"/>
      <point x="111.0" y="265.0" type="curve"/>
      <point x="86.0" y="236.0"/>
      <point x="61.0" y="208.0"/>
      <point x="36.0" y="180.0" type="curve"/>
      <point x="134.0" y="91.0"/>
      <point x="36.0" y="180.0"/>
    </contour>
    <contour>
      <point x="276.0" y="174.0" type="curve"/>
      <point x="299.0" y="147.0"/>
      <point x="322.0" y="120.0"/>
      <point x="345.0" y="94.0" type="curve"/>
      <point x="449.0" y="176.0"/>
      <point x="345.0" y="94.0"/>
      <point x="449.0" y="176.0" type="curve"/>
      <point x="424.0" y="205.0"/>
      <point x="399.0" y="234.0"/>
      <point x="374.0" y="262.0" type="curve"/>
      <point x="276.0" y="174.0"/>
      <point x="374.0" y="262.0"/>
    </contour>
    <contour>
      <point x="42.0" y="454.0" type="curve"/>
      <point x="65.0" y="428.0"/>
      <point x="87.0" y="401.0"/>
      <point x="110.0" y="374.0" type="curve"/>
      <point x="214.0" y="457.0"/>
      <point x="110.0" y="374.0"/>
      <point x="214.0" y="457.0" type="curve"/>
      <point x="189.0" y="486.0"/>
      <point x="164.0" y="514.0"/>
      <point x="139.0" y="543.0" type="curve"/>
      <point x="42.0" y="454.0"/>
      <point x="139.0" y="543.0"/>
    </contour>
    <contour>
      <point x="195.0" y="317.0" type="curve"/>
      <point x="195.0" y="359.0"/>
      <point x="201.0" y="400.0"/>
      <point x="238.0" y="400.0" type="curve"/>
      <point x="278.0" y="400.0"/>
      <point x="285.0" y="364.0"/>
      <point x="285.0" y="318.0" type="curve"/>
      <point x="285.0" y="274.0"/>
      <point x="279.0" y="228.0"/>
      <point x="241.0" y="228.0" type="curve"/>
      <point x="200.0" y="228.0"/>
      <point x="195.0" y="270.0"/>
      <point x="195.0" y="317.0" type="curve"/>
      <point x="52.0" y="317.0"/>
      <point x="203.0" y="317.0"/>
      <point x="60.0" y="317.0" type="curve"/>
      <point x="60.0" y="198.0"/>
      <point x="127.0" y="118.0"/>
      <point x="242.0" y="118.0" type="curve"/>
      <point x="357.0" y="118.0"/>
      <point x="423.0" y="201.0"/>
      <point x="423.0" y="320.0" type="curve"/>
      <point x="423.0" y="433.0"/>
      <point x="360.0" y="510.0"/>
      <point x="250.0" y="510.0" type="curve"/>
      <point x="133.0" y="510.0"/>
      <point x="60.0" y="434.0"/>
      <point x="60.0" y="317.0" type="curve"/>
      <point x="203.0" y="317.0"/>
      <point x="52.0" y="317.0"/>
    </contour>
  </outline>
</glyph>
<glyph name="yen" format="1">
  <advance width="587.0"/>
  <unicode hex="00A5"/>
  <outline>
    <contour>
      <point x="445.0" y="420.0" type="curve"/>
      <point x="392.0" y="420.0"/>
      <point x="339.0" y="420.0"/>
      <point x="287.0" y="420.0" type="curve"/>
      <point x="287.0" y="298.0"/>
      <point x="287.0" y="420.0"/>
      <point x="287.0" y="298.0" type="curve"/>
      <point x="339.0" y="298.0"/>
      <point x="392.0" y="298.0"/>
      <point x="445.0" y="298.0" type="curve"/>
      <point x="445.0" y="420.0"/>
      <point x="445.0" y="298.0"/>
    </contour>
    <contour>
      <point x="265.0" y="420.0" type="curve"/>
      <point x="213.0" y="420.0"/>
      <point x="161.0" y="420.0"/>
      <point x="110.0" y="420.0" type="curve"/>
      <point x="110.0" y="298.0"/>
      <point x="110.0" y="420.0"/>
      <point x="110.0" y="298.0" type="curve"/>
      <point x="161.0" y="298.0"/>
      <point x="213.0" y="298.0"/>
      <point x="265.0" y="298.0" type="curve"/>
      <point x="265.0" y="420.0"/>
      <point x="265.0" y="298.0"/>
    </contour>
    <contour>
      <point x="445.0" y="276.0" type="curve"/>
      <point x="333.0" y="276.0"/>
      <point x="221.0" y="276.0"/>
      <point x="110.0" y="276.0" type="curve"/>
      <point x="110.0" y="155.0"/>
      <point x="110.0" y="276.0"/>
      <point x="110.0" y="155.0" type="curve"/>
      <point x="221.0" y="155.0"/>
      <point x="333.0" y="155.0"/>
      <point x="445.0" y="155.0" type="curve"/>
      <point x="445.0" y="276.0"/>
      <point x="445.0" y="155.0"/>
    </contour>
    <contour>
      <point x="22.0" y="722.0" type="curve"/>
      <point x="81.0" y="592.0"/>
      <point x="145.0" y="465.0"/>
      <point x="205.0" y="335.0" type="curve"/>
      <point x="348.0" y="335.0"/>
      <point x="205.0" y="335.0"/>
      <point x="348.0" y="335.0" type="curve"/>
      <point x="290.0" y="463.0"/>
      <point x="236.0" y="594.0"/>
      <point x="178.0" y="722.0" type="curve"/>
      <point x="22.0" y="722.0"/>
      <point x="178.0" y="722.0"/>
    </contour>
    <contour>
      <point x="412" y="722" type="curve"/>
      <point x="341.780609278" y="594.601962547"/>
      <point x="274.744738567" y="466.055913434"/>
      <point x="205.0" y="338.0" type="curve"/>
      <point x="348.0" y="338.0"/>
      <point x="205.0" y="338.0"/>
      <point x="348.0" y="338.0" type="curve"/>
      <point x="418.737017239" y="468.06483815"/>
      <point x="496.782321493" y="592.604499613"/>
      <point x="568" y="722" type="curve"/>
      <point x="412" y="722"/>
      <point x="568" y="722"/>
    </contour>
    <contour>
      <point x="348.0" y="0.0" type="curve"/>
      <point x="348.0" y="112.0"/>
      <point x="348.0" y="223.0"/>
      <point x="348.0" y="335.0" type="curve"/>
      <point x="205.0" y="335.0"/>
      <point x="348.0" y="335.0"/>
      <point x="205.0" y="335.0" type="curve"/>
      <point x="205.0" y="223.0"/>
      <point x="205.0" y="112.0"/>
      <point x="205.0" y="0.0" type="curve"/>
      <point x="348.0" y="0.0"/>
      <point x="205.0" y="0.0"/>
    </contour>
  </outline>
</glyph>
<glyph name="brokenbar" format="1">
  <advance width="267.0"/>
  <unicode hex="00A6"/>
  <outline>
    <contour>
      <point x="204.5" y="-300.0" type="curve"/>
      <point x="204.5" y="-176.00124"/>
      <point x="204.5" y="-51.99876"/>
      <point x="204.5" y="72.0" type="curve"/>
      <point x="61.5" y="72.0"/>
      <point x="204.5" y="72.0"/>
      <point x="61.5" y="72.0" type="curve"/>
      <point x="61.5" y="-51.99876"/>
      <point x="61.5" y="-176.00124"/>
      <point x="61.5" y="-300.0" type="curve"/>
      <point x="204.5" y="-300.0"/>
      <point x="61.5" y="-300.0"/>
    </contour>
    <contour>
      <point x="204.5" y="428.0" type="curve"/>
      <point x="204.5" y="551.99876"/>
      <point x="204.5" y="676.00124"/>
      <point x="204.5" y="800.0" type="curve"/>
      <point x="61.5" y="800.0"/>
      <point x="204.5" y="800.0"/>
      <point x="61.5" y="800.0" type="curve"/>
      <point x="61.5" y="676.00124"/>
      <point x="61.5" y="551.99876"/>
      <point x="61.5" y="428.0" type="curve"/>
      <point x="204.5" y="428.0"/>
      <point x="61.5" y="428.0"/>
    </contour>
  </outline>
</glyph>
<glyph name="section" format="1">
  <advance width="449.0"/>
  <unicode hex="00A7"/>
  <outline>
    <contour>
      <point x="371" y="686" type="curve"/>
      <point x="330" y="732"/>
      <point x="283.0" y="748.0"/>
      <point x="230.0" y="748.0" type="curve"/>
      <point x="125.0" y="748.0"/>
      <point x="57.0" y="690.0"/>
      <point x="57.0" y="594.0" type="curve"/>
      <point x="57.0" y="510.0"/>
      <point x="102.0" y="458.0"/>
      <point x="181.0" y="426.0" type="curve"/>
      <point x="226.0" y="407.0"/>
      <point x="277.0" y="400.0"/>
      <point x="277.0" y="361.0" type="curve"/>
      <point x="277.0" y="318.0"/>
      <point x="252.0" y="291.0"/>
      <point x="209.0" y="282.0" type="curve"/>
      <point x="294.0" y="193.0"/>
      <point x="209.0" y="282.0"/>
      <point x="294.0" y="193.0" type="curve"/>
      <point x="377.0" y="216.0"/>
      <point x="420.0" y="275.0"/>
      <point x="420.0" y="361.0" type="curve"/>
      <point x="419.0" y="456.0"/>
      <point x="345.0" y="496.0"/>
      <point x="252.0" y="531.0" type="curve"/>
      <point x="221.0" y="543.0"/>
      <point x="191.0" y="561.0"/>
      <point x="191.0" y="594.0" type="curve"/>
      <point x="191.0" y="616.0"/>
      <point x="205.0" y="638.0"/>
      <point x="231.0" y="638.0" type="curve"/>
      <point x="263.0" y="638.0"/>
      <point x="275.0" y="627.0"/>
      <point x="298.0" y="610.0" type="curve"/>
      <point x="371" y="686"/>
      <point x="298" y="610"/>
    </contour>
    <contour>
      <point x="157.0" y="528.0" type="curve"/>
      <point x="78.0" y="499.0"/>
      <point x="31.0" y="449.0"/>
      <point x="31.0" y="366.0" type="curve"/>
      <point x="31.0" y="275.0"/>
      <point x="91.0" y="227.0"/>
      <point x="179.0" y="194.0" type="curve"/>
      <point x="217.0" y="179.0"/>
      <point x="260.0" y="172.0"/>
      <point x="260.0" y="133.0" type="curve"/>
      <point x="260.0" y="107.0"/>
      <point x="246.0" y="84.0"/>
      <point x="224.0" y="84.0" type="curve"/>
      <point x="189.0" y="84.0"/>
      <point x="172.0" y="99.0"/>
      <point x="145.0" y="121.0" type="curve"/>
      <point x="60" y="45"/>
      <point x="145" y="121"/>
      <point x="60" y="45" type="curve"/>
      <point x="115" y="-8"/>
      <point x="159.0" y="-26.0"/>
      <point x="222.0" y="-26.0" type="curve"/>
      <point x="326.0" y="-26.0"/>
      <point x="398.0" y="31.0"/>
      <point x="398.0" y="133.0" type="curve"/>
      <point x="397.0" y="217.0"/>
      <point x="350.0" y="269.0"/>
      <point x="270.0" y="299.0" type="curve"/>
      <point x="224.0" y="317.0"/>
      <point x="174.0" y="325.0"/>
      <point x="174.0" y="366.0" type="curve"/>
      <point x="174.0" y="405.0"/>
      <point x="192.0" y="432.0"/>
      <point x="228.0" y="445.0" type="curve"/>
      <point x="157.0" y="528.0"/>
      <point x="228.0" y="445.0"/>
    </contour>
  </outline>
</glyph>
<glyph name="dieresis" format="1">
  <advance width="397.0"/>
  <unicode hex="00A8"/>
  <outline>
    <contour>
      <point x="201.0" y="670.0" type="move" name="_top"/>
    </contour>
    <component base="period" xOffset="-26.0" yOffset="608.0"/>
    <component base="period" xOffset="174.0" yOffset="608.0"/>
  </outline>
</glyph>
<glyph name="copyright" format="1">
  <advance width="643.0"/>
  <unicode hex="00A9"/>
  <outline>
    <contour>
      <point x="149.0" y="324.0" type="curve"/>
      <point x="149.0" y="452.0"/>
      <point x="208.0" y="556.0"/>
      <point x="324.0" y="556.0" type="curve"/>
      <point x="438.0" y="556.0"/>
      <point x="495.0" y="450.0"/>
      <point x="495.0" y="322.0" type="curve"/>
      <point x="495.0" y="199.0"/>
      <point x="441.0" y="94.0"/>
      <point x="331.0" y="94.0" type="curve"/>
      <point x="215.0" y="94.0"/>
      <point x="149.0" y="197.0"/>
      <point x="149.0" y="324.0" type="curve"/>
      <point x="34.0" y="324.0"/>
      <point x="152.0" y="324.0"/>
      <point x="37.0" y="324.0" type="curve"/>
      <point x="37.0" y="142.0"/>
      <point x="149.0" y="6.0"/>
      <point x="326.0" y="6.0" type="curve"/>
      <point x="499.0" y="6.0"/>
      <point x="605.0" y="144.0"/>
      <point x="605.0" y="326.0" type="curve"/>
      <point x="605.0" y="508.0"/>
      <point x="497.0" y="645.0"/>
      <point x="324.0" y="645.0" type="curve"/>
      <point x="148.0" y="645.0"/>
      <point x="37.0" y="508.0"/>
      <point x="37.0" y="324.0" type="curve"/>
      <point x="152.0" y="324.0"/>
      <point x="34.0" y="324.0"/>
    </contour>
    <contour>
      <point x="455" y="448" type="curve"/>
      <point x="427" y="486"/>
      <point x="383" y="513"/>
      <point x="333" y="513" type="curve"/>
      <point x="223" y="513"/>
      <point x="169" y="436"/>
      <point x="169" y="323" type="curve"/>
      <point x="169" y="214"/>
      <point x="216" y="138"/>
      <point x="319" y="138" type="curve"/>
      <point x="375" y="138"/>
      <point x="418" y="156"/>
      <point x="454" y="206" type="curve"/>
      <point x="383" y="257"/>
      <point x="454" y="206"/>
      <point x="383" y="257" type="curve"/>
      <point x="364" y="239"/>
      <point x="350" y="227"/>
      <point x="324" y="227" type="curve"/>
      <point x="279" y="227"/>
      <point x="274" y="274"/>
      <point x="274" y="327" type="curve"/>
      <point x="274" y="380"/>
      <point x="282" y="425"/>
      <point x="328" y="425" type="curve"/>
      <point x="358" y="425"/>
      <point x="366" y="416"/>
      <point x="381" y="402" type="curve"/>
      <point x="455" y="448"/>
      <point x="381" y="402"/>
    </contour>
  </outline>
</glyph>
<glyph name="ordfeminine" format="1">
  <advance width="380.0"/>
  <unicode hex="00AA"/>
  <outline>
    <contour>
      <point x="332" y="424" type="curve"/>
      <point x="332" y="503"/>
      <point x="332" y="583"/>
      <point x="332" y="662" type="curve"/>
      <point x="332.0" y="738.0"/>
      <point x="270.074074074" y="767.0"/>
      <point x="180" y="767" type="curve"/>
      <point x="123.609756098" y="767.0"/>
      <point x="75" y="745"/>
      <point x="44" y="710" type="curve"/>
      <point x="97" y="641"/>
      <point x="44" y="710"/>
      <point x="97" y="641" type="curve"/>
      <point x="119.69550413" y="661.306503695"/>
      <point x="136.0" y="676.0"/>
      <point x="168" y="676" type="curve"/>
      <point x="197.0" y="676.0"/>
      <point x="213.0" y="663.555555556"/>
      <point x="213" y="641" type="curve"/>
      <point x="213" y="569"/>
      <point x="213" y="496"/>
      <point x="213" y="424" type="curve"/>
      <point x="332.0" y="424.0"/>
      <point x="213.0" y="424.0"/>
    </contour>
    <contour>
      <point x="257" y="649" type="curve"/>
      <point x="220" y="644"/>
      <point x="197" y="642"/>
      <point x="160" y="636" type="curve"/>
      <point x="82.3043061792" y="624.900615168"/>
      <point x="31.0" y="597.0"/>
      <point x="31" y="530" type="curve"/>
      <point x="31.0" y="461.0"/>
      <point x="72.580952381" y="421.0"/>
      <point x="149" y="421" type="curve"/>
      <point x="216" y="421"/>
      <point x="243" y="475"/>
      <point x="282" y="519" type="curve"/>
      <point x="229.679971813" y="563.112964942"/>
      <point x="288.320028187" y="526.887035058"/>
      <point x="236" y="571" type="curve"/>
      <point x="214.010972576" y="538.494481199"/>
      <point x="210" y="505"/>
      <point x="176" y="505" type="curve"/>
      <point x="153" y="505"/>
      <point x="145.0" y="515.0"/>
      <point x="145" y="533" type="curve"/>
      <point x="145.0" y="547.0"/>
      <point x="158" y="557"/>
      <point x="173" y="560" type="curve"/>
      <point x="210" y="566"/>
      <point x="224.062696612" y="569.693631129"/>
      <point x="261" y="576" type="curve"/>
      <point x="255.786779788" y="648.985082962"/>
      <point x="262.213220212" y="576.014917038"/>
    </contour>
  </outline>
</glyph>
<glyph name="guillemotleft" format="1">
  <advance width="376.0"/>
  <unicode hex="00AB"/>
  <outline>
    <contour>
      <point x="322.0" y="240.0" type="curve"/>
      <point x="277.0" y="276.0"/>
      <point x="231.0" y="312.0"/>
      <point x="186.0" y="348.0" type="curve"/>
      <point x="186.0" y="226.0"/>
      <point x="186.0" y="348.0"/>
      <point x="186.0" y="226.0" type="curve"/>
      <point x="231.0" y="190.0"/>
      <point x="277.0" y="154.0"/>
      <point x="322.0" y="118.0" type="curve"/>
      <point x="322.0" y="240.0"/>
      <point x="322.0" y="118.0"/>
    </contour>
    <contour>
      <point x="322.0" y="452.0" type="curve"/>
      <point x="277.0" y="417.0"/>
      <point x="231.0" y="383.0"/>
      <point x="186.0" y="348.0" type="curve"/>
      <point x="186.0" y="226.0"/>
      <point x="186.0" y="348.0"/>
      <point x="186.0" y="226.0" type="curve"/>
      <point x="231.0" y="261.0"/>
      <point x="277.0" y="296.0"/>
      <point x="322.0" y="331.0" type="curve"/>
      <point x="322.0" y="452.0"/>
      <point x="322.0" y="331.0"/>
    </contour>
    <contour>
      <point x="170.0" y="239.718732194" type="curve"/>
      <point x="124.7504525" y="275.723120484"/>
      <point x="79.4995475" y="311.728588917"/>
      <point x="34.25" y="347.732977208" type="curve"/>
      <point x="34.25" y="226.182977208"/>
      <point x="34.25" y="347.732977208"/>
      <point x="34.25" y="226.182977208" type="curve"/>
      <point x="79.4995475" y="190.178588917"/>
      <point x="124.7504525" y="154.173120484"/>
      <point x="170.0" y="118.168732194" type="curve"/>
      <point x="170.0" y="239.718732194"/>
      <point x="170.0" y="118.168732194"/>
    </contour>
    <contour>
      <point x="170.75" y="452.262891738" type="curve"/>
      <point x="125.250455" y="417.419935328"/>
      <point x="79.749545" y="382.575933618"/>
      <point x="34.25" y="347.732977208" type="curve"/>
      <point x="34.25" y="226.182977208"/>
      <point x="34.25" y="347.732977208"/>
      <point x="34.25" y="226.182977208" type="curve"/>
      <point x="79.749545" y="261.025933618"/>
      <point x="125.250455" y="295.869935328"/>
      <point x="170.75" y="330.712891738" type="curve"/>
      <point x="170.75" y="452.262891738"/>
      <point x="170.75" y="330.712891738"/>
    </contour>
  </outline>
</glyph>
<glyph name="logicalnot" format="1">
  <advance width="489.0"/>
  <unicode hex="00AC"/>
  <outline>
    <contour>
      <point x="52.0" y="255.0" type="curve"/>
      <point x="52.0" y="255.0"/>
      <point x="433.0" y="255.0"/>
      <point x="433.0" y="255.0" type="curve"/>
      <point x="433.0" y="376.0"/>
      <point x="433.0" y="255.0"/>
      <point x="433.0" y="376.0" type="curve"/>
      <point x="433.0" y="376.0"/>
      <point x="52.0" y="376.0"/>
      <point x="52.0" y="376.0" type="curve"/>
      <point x="52.0" y="255.0"/>
      <point x="52.0" y="376.0"/>
    </contour>
    <contour>
      <point x="433.0" y="138.0" type="curve"/>
      <point x="433.0" y="138.0"/>
      <point x="433.0" y="376.0"/>
      <point x="433.0" y="376.0" type="curve"/>
      <point x="290.0" y="376.0"/>
      <point x="434.0" y="376.0"/>
      <point x="291.0" y="376.0" type="curve"/>
      <point x="291.0" y="376.0"/>
      <point x="291.0" y="138.0"/>
      <point x="291.0" y="138.0" type="curve"/>
      <point x="434.0" y="138.0"/>
      <point x="290.0" y="138.0"/>
    </contour>
  </outline>
</glyph>
<glyph name="registered" format="1">
  <advance width="664.0"/>
  <unicode hex="00AE"/>
  <outline>
    <contour>
      <point x="143.0" y="322.0" type="curve"/>
      <point x="143.0" y="462.0"/>
      <point x="205.0" y="564.0"/>
      <point x="335.0" y="564.0" type="curve"/>
      <point x="464.0" y="564.0"/>
      <point x="522.0" y="460.0"/>
      <point x="522.0" y="320.0" type="curve"/>
      <point x="522.0" y="183.0"/>
      <point x="467.0" y="82.0"/>
      <point x="342.0" y="82.0" type="curve"/>
      <point x="210.0" y="82.0"/>
      <point x="143.0" y="181.0"/>
      <point x="143.0" y="322.0" type="curve"/>
      <point x="104.0" y="322.0"/>
      <point x="77.0" y="322.0"/>
      <point x="38.0" y="322.0" type="curve"/>
      <point x="38.0" y="129.0"/>
      <point x="148.0" y="4.0"/>
      <point x="337.0" y="4.0" type="curve"/>
      <point x="522.0" y="4.0"/>
      <point x="626.0" y="132.0"/>
      <point x="626.0" y="324.0" type="curve"/>
      <point x="626.0" y="516.0"/>
      <point x="521.0" y="643.0"/>
      <point x="335.0" y="643.0" type="curve"/>
      <point x="146.0" y="643.0"/>
      <point x="38.0" y="516.0"/>
      <point x="38.0" y="322.0" type="curve"/>
      <point x="77.0" y="322.0"/>
      <point x="104.0" y="322.0"/>
    </contour>
    <contour>
      <point x="298" y="316" type="curve"/>
      <point x="326" y="258"/>
      <point x="342" y="198"/>
      <point x="369" y="141" type="curve"/>
      <point x="465" y="141"/>
      <point x="369" y="141"/>
      <point x="465" y="141" type="curve"/>
      <point x="396" y="316" type="line"/>
      <point x="298" y="316"/>
      <point x="396" y="316"/>
    </contour>
    <contour>
      <point x="320" y="141" type="line"/>
      <point x="320" y="263"/>
      <point x="320.0" y="386.771428571"/>
      <point x="320" y="509" type="curve"/>
      <point x="217" y="509" type="line"/>
      <point x="217" y="386"/>
      <point x="217.0" y="263.666666667"/>
      <point x="217" y="141" type="curve"/>
    </contour>
    <contour>
      <point x="276" y="269" type="curve"/>
      <point x="289" y="269"/>
      <point x="303" y="269"/>
      <point x="316" y="269" type="curve"/>
      <point x="401" y="269"/>
      <point x="457" y="307"/>
      <point x="457" y="392" type="curve"/>
      <point x="457" y="464"/>
      <point x="410" y="509"/>
      <point x="338" y="509" type="curve"/>
      <point x="331.428571429" y="509.0"/>
      <point x="322" y="509"/>
      <point x="315" y="509" type="curve"/>
      <point x="217" y="420"/>
      <point x="315" y="509"/>
      <point x="217" y="420" type="curve"/>
      <point x="250" y="420"/>
      <point x="284" y="420"/>
      <point x="317" y="420" type="curve"/>
      <point x="340" y="420"/>
      <point x="357" y="410"/>
      <point x="357" y="388" type="curve"/>
      <point x="357" y="370"/>
      <point x="349" y="357"/>
      <point x="332" y="357" type="curve"/>
      <point x="313" y="357"/>
      <point x="294" y="357"/>
      <point x="276" y="357" type="curve"/>
      <point x="276" y="269"/>
      <point x="276" y="357"/>
    </contour>
  </outline>
</glyph>
<glyph name="degree" format="1">
  <advance width="375.0"/>
  <unicode hex="00B0"/>
  <outline>
    <contour>
      <point x="228.0" y="830.0" type="move" name="_top"/>
    </contour>
    <contour>
      <point x="218.0" y="391.0" type="move" name="_bottom"/>
    </contour>
    <contour>
      <point x="144" y="593" type="line"/>
      <point x="144" y="629"/>
      <point x="151" y="664"/>
      <point x="184" y="664" type="curve"/>
      <point x="216" y="664"/>
      <point x="225" y="631"/>
      <point x="225" y="593" type="curve"/>
      <point x="225" y="555"/>
      <point x="219" y="524"/>
      <point x="190" y="524" type="curve"/>
      <point x="152" y="524"/>
      <point x="144" y="555"/>
      <point x="144" y="593" type="curve"/>
      <point x="29" y="593" type="line"/>
      <point x="29" y="490"/>
      <point x="82" y="420"/>
      <point x="186" y="420" type="curve"/>
      <point x="290" y="420"/>
      <point x="347" y="489"/>
      <point x="347" y="593" type="curve"/>
      <point x="347" y="697"/>
      <point x="293" y="768"/>
      <point x="188" y="768" type="curve"/>
      <point x="82" y="768"/>
      <point x="29" y="697"/>
      <point x="29" y="593" type="curve"/>
    </contour>
  </outline>
</glyph>
<glyph name="acute" format="1">
  <advance width="223.0"/>
  <unicode hex="00B4"/>
  <outline>
    <contour>
      <point x="63.0" y="645.0" type="move" name="_top"/>
    </contour>
    <contour>
      <point x="101" y="591" type="line"/>
      <point x="225" y="757" type="line"/>
      <point x="70" y="757" type="line"/>
      <point x="-54" y="591" type="line"/>
    </contour>
  </outline>
</glyph>
<glyph name="paragraph" format="1">
  <advance width="702.0"/>
  <unicode hex="00B6"/>
  <outline>
    <contour>
      <point x="344.0" y="389.0" type="curve"/>
      <point x="310.0" y="369.0"/>
      <point x="284.0" y="357.0"/>
      <point x="244.0" y="357.0" type="curve"/>
      <point x="188.0" y="357.0"/>
      <point x="168.0" y="409.0"/>
      <point x="168.0" y="474.0" type="curve"/>
      <point x="168.0" y="552.0"/>
      <point x="207.0" y="612.0"/>
      <point x="280.0" y="612.0" type="curve"/>
      <point x="309.0" y="612.0"/>
      <point x="337.0" y="612.0"/>
      <point x="365.0" y="612.0" type="curve"/>
      <point x="365.0" y="722.0"/>
      <point x="365.0" y="612.0"/>
      <point x="365.0" y="722.0" type="curve"/>
      <point x="331.0" y="722.0"/>
      <point x="296.0" y="722.0"/>
      <point x="261.0" y="722.0" type="curve"/>
      <point x="117.0" y="722.0"/>
      <point x="25.0" y="624.0"/>
      <point x="25.0" y="479.0" type="curve"/>
      <point x="25.0" y="339.0"/>
      <point x="116.0" y="254.0"/>
      <point x="257.0" y="252.0" type="curve"/>
      <point x="307.0" y="252.0"/>
      <point x="347.0" y="273.0"/>
      <point x="389.0" y="298.0" type="curve"/>
      <point x="344.0" y="389.0"/>
      <point x="388.0" y="301.0"/>
    </contour>
    <contour>
      <point x="440" y="0" type="curve"/>
      <point x="440" y="241"/>
      <point x="440" y="481"/>
      <point x="440" y="722" type="curve"/>
      <point x="297" y="722"/>
      <point x="440" y="722"/>
      <point x="297" y="722" type="curve"/>
      <point x="297" y="481"/>
      <point x="297" y="241"/>
      <point x="297" y="0" type="curve"/>
      <point x="440" y="0"/>
      <point x="297" y="0"/>
    </contour>
    <contour>
      <point x="644" y="0" type="curve"/>
      <point x="644" y="241"/>
      <point x="644" y="481"/>
      <point x="644" y="722" type="curve"/>
      <point x="501" y="722"/>
      <point x="644" y="722"/>
      <point x="501" y="722" type="curve"/>
      <point x="501" y="481"/>
      <point x="501" y="241"/>
      <point x="501" y="0" type="curve"/>
      <point x="644" y="0"/>
      <point x="501" y="0"/>
    </contour>
  </outline>
</glyph>
<glyph name="cedilla" format="1">
  <advance width="286.0"/>
  <unicode hex="00B8"/>
  <outline>
    <contour>
      <point x="65.0" y="76.0" type="move" name="_bottom"/>
    </contour>
    <contour>
      <point x="97.0" y="166.0" type="curve"/>
      <point x="87.0" y="145.0"/>
      <point x="47.0" y="49.0"/>
      <point x="37.0" y="27.0" type="curve"/>
      <point x="135.0" y="-61.0"/>
      <point x="37.0" y="27.0"/>
      <point x="135.0" y="-61.0" type="curve"/>
      <point x="147.0" y="-35.0"/>
      <point x="195.0" y="63.0"/>
      <point x="207.0" y="89.0" type="curve"/>
      <point x="97.0" y="166.0"/>
      <point x="207.0" y="89.0"/>
    </contour>
    <contour>
      <point x="135.0" y="-61.0" type="curve"/>
      <point x="140.0" y="-57.0"/>
      <point x="144.0" y="-53.0"/>
      <point x="150.0" y="-53.0" type="curve"/>
      <point x="156.0" y="-53.0"/>
      <point x="161.0" y="-55.0"/>
      <point x="161.0" y="-60.0" type="curve"/>
      <point x="161.0" y="-72.0"/>
      <point x="147.0" y="-76.0"/>
      <point x="133.0" y="-76.0" type="curve"/>
      <point x="117.0" y="-76.0"/>
      <point x="104.0" y="-69.0"/>
      <point x="90.0" y="-60.0" type="curve"/>
      <point x="31.0" y="-148.0"/>
      <point x="90.0" y="-60.0"/>
      <point x="31.0" y="-148.0" type="curve"/>
      <point x="58.0" y="-166.0"/>
      <point x="81.0" y="-176.0"/>
      <point x="113.0" y="-176.0" type="curve"/>
      <point x="192.0" y="-176.0"/>
      <point x="247.0" y="-137.0"/>
      <point x="247.0" y="-63.0" type="curve"/>
      <point x="247.0" y="7.0"/>
      <point x="203.0" y="51.0"/>
      <point x="134.0" y="51.0" type="curve"/>
      <point x="97.0" y="51.0"/>
      <point x="70.0" y="46.0"/>
      <point x="37.0" y="27.0" type="curve"/>
      <point x="135.0" y="-61.0"/>
      <point x="37.0" y="27.0"/>
    </contour>
  </outline>
</glyph>
<glyph name="ordmasculine" format="1">
  <advance width="375.0"/>
  <unicode hex="00BA"/>
  <outline>
    <contour>
      <point x="144" y="593" type="line"/>
      <point x="144.0" y="628.938271605"/>
      <point x="151.0" y="664.0"/>
      <point x="184" y="664" type="curve"/>
      <point x="216.0" y="664.0"/>
      <point x="225.0" y="630.691358025"/>
      <point x="225" y="593" type="curve"/>
      <point x="225.0" y="555.443037975"/>
      <point x="219.0" y="524.0"/>
      <point x="190" y="524" type="curve"/>
      <point x="152.0" y="524.0"/>
      <point x="144.0" y="554.569620253"/>
      <point x="144" y="593" type="curve"/>
      <point x="29" y="593" type="line"/>
      <point x="29.0" y="490.0"/>
      <point x="82.4013605442" y="420.0"/>
      <point x="186" y="420" type="curve"/>
      <point x="290.490066225" y="420.0"/>
      <point x="347.0" y="489.0"/>
      <point x="347" y="593" type="curve"/>
      <point x="347.0" y="697.0"/>
      <point x="292.577181208" y="768.0"/>
      <point x="188" y="768" type="curve"/>
      <point x="82.355704698" y="768.0"/>
      <point x="29.0" y="697.0"/>
      <point x="29" y="593" type="curve"/>
    </contour>
  </outline>
</glyph>
<glyph name="guillemotright" format="1">
  <advance width="372.0"/>
  <unicode hex="00BB"/>
  <outline>
    <contour>
      <point x="51.5" y="330.712891738" type="curve"/>
      <point x="96.7495475" y="294.708503447"/>
      <point x="142.0004525" y="258.703035014"/>
      <point x="187.25" y="222.698646724" type="curve"/>
      <point x="187.25" y="344.248646724"/>
      <point x="187.25" y="222.698646724"/>
      <point x="187.25" y="344.248646724" type="curve"/>
      <point x="142.0004525" y="380.253035014"/>
      <point x="96.7495475" y="416.258503447"/>
      <point x="51.5" y="452.262891738" type="curve"/>
      <point x="51.5" y="330.712891738"/>
      <point x="51.5" y="452.262891738"/>
    </contour>
    <contour>
      <point x="52.0" y="118.0" type="curve"/>
      <point x="97.0" y="153.0"/>
      <point x="142.0" y="188.0"/>
      <point x="187.0" y="223.0" type="curve"/>
      <point x="187.0" y="344.0"/>
      <point x="187.0" y="223.0"/>
      <point x="187.0" y="344.0" type="curve"/>
      <point x="142.0" y="309.0"/>
      <point x="97.0" y="275.0"/>
      <point x="52.0" y="240.0" type="curve"/>
      <point x="52.0" y="118.0"/>
      <point x="52.0" y="240.0"/>
    </contour>
    <contour>
      <point x="204.0" y="331.0" type="curve"/>
      <point x="249.0" y="295.0"/>
      <point x="294.0" y="259.0"/>
      <point x="339.0" y="223.0" type="curve"/>
      <point x="339.0" y="344.0"/>
      <point x="339.0" y="223.0"/>
      <point x="339.0" y="344.0" type="curve"/>
      <point x="294.0" y="380.0"/>
      <point x="249.0" y="416.0"/>
      <point x="204.0" y="452.0" type="curve"/>
      <point x="204.0" y="331.0"/>
      <point x="204.0" y="452.0"/>
    </contour>
    <contour>
      <point x="203.0" y="118.0" type="curve"/>
      <point x="248.0" y="153.0"/>
      <point x="294.0" y="188.0"/>
      <point x="339.0" y="223.0" type="curve"/>
      <point x="339.0" y="344.0"/>
      <point x="339.0" y="223.0"/>
      <point x="339.0" y="344.0" type="curve"/>
      <point x="294.0" y="309.0"/>
      <point x="248.0" y="275.0"/>
      <point x="203.0" y="240.0" type="curve"/>
      <point x="203.0" y="118.0"/>
      <point x="203.0" y="240.0"/>
    </contour>
  </outline>
</glyph>
<glyph name="AE" format="1">
  <advance width="800.0"/>
  <unicode hex="00C6"/>
  <outline>
    <contour>
      <point x="394" y="277" type="curve"/>
      <point x="322" y="277"/>
      <point x="249" y="277"/>
      <point x="177" y="277" type="curve"/>
      <point x="118" y="160"/>
      <point x="177" y="277"/>
      <point x="118" y="160" type="curve"/>
      <point x="225" y="160"/>
      <point x="333" y="160"/>
      <point x="440" y="160" type="curve"/>
      <point x="394" y="277"/>
      <point x="440" y="160"/>
    </contour>
    <contour>
      <point x="141" y="0" type="curve"/>
      <point x="509" y="722" type="line"/>
      <point x="379" y="722"/>
      <point x="509" y="722"/>
      <point x="379" y="722" type="curve"/>
      <point x="-15" y="0" type="line"/>
      <point x="141" y="0"/>
      <point x="-15" y="0"/>
    </contour>
    <component base="E" xOffset="320.0"/>
  </outline>
</glyph>
<glyph name="multiply" format="1">
  <advance width="527.0"/>
  <unicode hex="00D7"/>
  <outline>
    <contour>
      <point x="122.0" y="89.0" type="curve"/>
      <point x="122.0" y="89.0"/>
      <point x="490.0" y="457.0"/>
      <point x="490.0" y="457.0" type="curve"/>
      <point x="405.0" y="542.0"/>
      <point x="490.0" y="457.0"/>
      <point x="405.0" y="542.0" type="curve"/>
      <point x="405.0" y="542.0"/>
      <point x="37.0" y="174.0"/>
      <point x="37.0" y="174.0" type="curve"/>
      <point x="122.0" y="89.0"/>
      <point x="37.0" y="174.0"/>
    </contour>
    <contour>
      <point x="490.0" y="174.0" type="curve"/>
      <point x="490.0" y="174.0"/>
      <point x="122.0" y="542.0"/>
      <point x="122.0" y="542.0" type="curve"/>
      <point x="37.0" y="457.0"/>
      <point x="122.0" y="542.0"/>
      <point x="37.0" y="457.0" type="curve"/>
      <point x="37.0" y="457.0"/>
      <point x="405.0" y="89.0"/>
      <point x="405.0" y="89.0" type="curve"/>
      <point x="490.0" y="174.0"/>
      <point x="405.0" y="89.0"/>
    </contour>
  </outline>
</glyph>
<glyph name="Oslash" format="1">
  <advance width="648.0"/>
  <unicode hex="00D8"/>
  <outline>
    <contour>
      <point x="200.0" y="-59.0" type="line"/>
      <point x="543.0" y="736.0" type="line"/>
      <point x="451.0" y="769.0" type="line"/>
      <point x="111.0" y="-15.0" type="line"/>
    </contour>
    <component base="O"/>
  </outline>
</glyph>
<glyph name="Thorn" format="1">
  <advance width="500.0"/>
  <unicode hex="00DE"/>
  <outline>
    <contour>
      <point x="115.0" y="210.0" type="curve"/>
      <point x="162.725596667" y="181.591906746"/>
      <point x="211.0" y="163.0"/>
      <point x="270.0" y="163.0" type="curve"/>
      <point x="397.0" y="165.0"/>
      <point x="479.0" y="247.387096774"/>
      <point x="479.0" y="381.0" type="curve"/>
      <point x="479.0" y="502.0"/>
      <point x="387.0" y="584.0"/>
      <point x="243.0" y="584.0" type="curve"/>
      <point x="208.0" y="584.0"/>
      <point x="173.0" y="584.0"/>
      <point x="139.0" y="584.0" type="curve"/>
      <point x="139.0" y="474.0"/>
      <point x="139.0" y="584.0"/>
      <point x="139.0" y="474.0" type="curve"/>
      <point x="167.0" y="474.0"/>
      <point x="195.0" y="474.0"/>
      <point x="224.0" y="474.0" type="curve"/>
      <point x="297.0" y="474.0"/>
      <point x="336.0" y="431.0"/>
      <point x="336.0" y="376.0" type="curve"/>
      <point x="336.0" y="317.0"/>
      <point x="316.0" y="269.0"/>
      <point x="260.0" y="269.0" type="curve"/>
      <point x="220.0" y="269.0"/>
      <point x="194.0" y="281.0"/>
      <point x="160.0" y="301.0" type="curve"/>
      <point x="116.0" y="213.0"/>
      <point x="160.0" y="301.0"/>
    </contour>
    <contour>
      <point x="207" y="0" type="curve"/>
      <point x="207" y="241"/>
      <point x="207" y="481"/>
      <point x="207" y="722" type="curve"/>
      <point x="64" y="722"/>
      <point x="207" y="722"/>
      <point x="64" y="722" type="curve"/>
      <point x="64" y="481"/>
      <point x="64" y="241"/>
      <point x="64" y="0" type="curve"/>
      <point x="207" y="0"/>
      <point x="64" y="0"/>
    </contour>
  </outline>
</glyph>
<glyph name="germandbls" format="1">
  <advance width="504.0"/>
  <unicode hex="00DF"/>
  <outline>
    <contour>
      <point x="196.0" y="0.0" type="curve"/>
      <point x="196.0" y="195.982258065"/>
      <point x="196.0" y="391.0"/>
      <point x="196.0" y="587.0" type="curve"/>
      <point x="53.0" y="587.0"/>
      <point x="196.0" y="587.0"/>
      <point x="53.0" y="587.0" type="curve"/>
      <point x="53.0" y="391.0"/>
      <point x="53.0" y="195.982258065"/>
      <point x="53.0" y="0.0" type="curve"/>
      <point x="196.0" y="0.0"/>
      <point x="53.0" y="0.0"/>
    </contour>
    <contour>
      <point x="196.0" y="587.0" type="curve"/>
      <point x="196.0" y="638.0"/>
      <point x="201.0" y="684.0"/>
      <point x="246.0" y="684.0" type="curve"/>
      <point x="295.0" y="684.0"/>
      <point x="319.0" y="645.0"/>
      <point x="319.0" y="591.0" type="curve"/>
      <point x="319.0" y="536.0"/>
      <point x="292.0" y="496.0"/>
      <point x="241.0" y="496.0" type="curve"/>
      <point x="241.0" y="402.0"/>
      <point x="241.0" y="496.0"/>
      <point x="241.0" y="402.0" type="curve"/>
      <point x="368.0" y="402.0"/>
      <point x="456.0" y="473.0"/>
      <point x="456.0" y="597.0" type="curve"/>
      <point x="456.0" y="718.0"/>
      <point x="380.0" y="795.0"/>
      <point x="259.0" y="795.0" type="curve"/>
      <point x="132.0" y="795.0"/>
      <point x="53.0" y="713.0"/>
      <point x="53.0" y="587.0" type="curve"/>
      <point x="196.0" y="587.0"/>
      <point x="53.0" y="587.0"/>
    </contour>
    <contour>
      <point x="333.0" y="76.0" type="curve"/>
      <point x="427.0" y="102.0"/>
      <point x="480.0" y="173.0"/>
      <point x="480.0" y="287.0" type="curve"/>
      <point x="480.0" y="417.0"/>
      <point x="388.0" y="496.0"/>
      <point x="241.0" y="496.0" type="curve"/>
      <point x="241.0" y="402.0"/>
      <point x="241.0" y="496.0"/>
      <point x="241.0" y="402.0" type="curve"/>
      <point x="301.0" y="402.0"/>
      <point x="344.0" y="352.0"/>
      <point x="344.0" y="281.0" type="curve"/>
      <point x="344.0" y="233.0"/>
      <point x="325.0" y="199.0"/>
      <point x="287.0" y="186.0" type="curve"/>
      <point x="333.0" y="76.0"/>
      <point x="287.0" y="186.0"/>
    </contour>
  </outline>
</glyph>
<glyph name="ae" format="1">
  <advance width="742.0"/>
  <unicode hex="00E6"/>
  <outline>
    <contour>
      <point x="431" y="283" type="curve"/>
      <point x="431" y="312"/>
      <point x="431" y="341"/>
      <point x="431" y="370" type="curve"/>
      <point x="431" y="488"/>
      <point x="352" y="533"/>
      <point x="237" y="533" type="curve"/>
      <point x="154" y="533"/>
      <point x="95" y="505"/>
      <point x="44" y="449" type="curve"/>
      <point x="106" y="368"/>
      <point x="44" y="449"/>
      <point x="106" y="368" type="curve"/>
      <point x="132" y="394"/>
      <point x="165" y="423"/>
      <point x="217" y="423" type="curve"/>
      <point x="263" y="423"/>
      <point x="288" y="392"/>
      <point x="288" y="337" type="curve"/>
      <point x="288" y="319"/>
      <point x="288" y="301"/>
      <point x="288" y="283" type="curve"/>
      <point x="431" y="283"/>
      <point x="288" y="283"/>
    </contour>
    <contour>
      <point x="356.0" y="331.0" type="curve"/>
      <point x="297.0" y="330.0"/>
      <point x="263.0" y="330.0"/>
      <point x="202.0" y="320.0" type="curve"/>
      <point x="93.0" y="303.0"/>
      <point x="25.0" y="261.436363636"/>
      <point x="25.0" y="165.0" type="curve"/>
      <point x="25.0" y="58.0"/>
      <point x="82.0" y="-5.0"/>
      <point x="188.0" y="-5.0" type="curve"/>
      <point x="293.0" y="-5.0"/>
      <point x="334.0" y="79.0"/>
      <point x="395.0" y="147.0" type="curve"/>
      <point x="323.0" y="208.0"/>
      <point x="395.0" y="147.0"/>
      <point x="323.0" y="208.0" type="curve"/>
      <point x="288.0" y="156.0"/>
      <point x="275.0" y="105.0"/>
      <point x="214.0" y="105.0" type="curve"/>
      <point x="177.0" y="105.0"/>
      <point x="163.0" y="129.0"/>
      <point x="163.0" y="171.0" type="curve"/>
      <point x="163.0" y="195.8"/>
      <point x="185.0" y="215.0"/>
      <point x="210.0" y="219.0" type="curve"/>
      <point x="266.0" y="228.0"/>
      <point x="305.0" y="227.0"/>
      <point x="361.0" y="227.0" type="curve"/>
      <point x="355.0" y="321.0"/>
      <point x="362.0" y="237.0"/>
    </contour>
    <component base="e" xOffset="255"/>
  </outline>
</glyph>
<glyph name="eth" format="1">
  <advance width="508.0"/>
  <unicode hex="00F0"/>
  <outline>
    <contour>
      <point x="105.0" y="548.0" type="curve"/>
      <point x="163.0" y="606.0"/>
      <point x="246.0" y="689.0"/>
      <point x="303.0" y="747.0" type="curve"/>
      <point x="371.0" y="679.0"/>
      <point x="303.0" y="747.0"/>
      <point x="371.0" y="679.0" type="curve"/>
      <point x="314.0" y="621.0"/>
      <point x="231.0" y="538.0"/>
      <point x="173.0" y="480.0" type="curve"/>
      <point x="105.0" y="548.0"/>
      <point x="173.0" y="480.0"/>
    </contour>
    <component base="nine" yScale="-1" xOffset="2.0" yOffset="728.0"/>
  </outline>
</glyph>
<glyph name="oslash" format="1">
  <advance width="528.0"/>
  <unicode hex="00F8"/>
  <outline>
    <contour>
      <point x="175.0" y="-63.0" type="line"/>
      <point x="441.0" y="554.0" type="line"/>
      <point x="351.0" y="592.0" type="line"/>
      <point x="85.0" y="-23.0" type="line"/>
    </contour>
    <component base="o"/>
  </outline>
</glyph>
<glyph name="thorn" format="1">
  <advance width="543.0"/>
  <unicode hex="00FE"/>
  <outline>
    <contour>
      <point x="160.0" y="346.0" type="curve"/>
      <point x="182.0" y="379.0"/>
      <point x="224.0" y="424.0"/>
      <point x="281.0" y="424.0" type="curve"/>
      <point x="360.0" y="424.0"/>
      <point x="368.0" y="346.0"/>
      <point x="368.0" y="261.0" type="curve"/>
      <point x="369.0" y="179.0"/>
      <point x="358.0" y="105.0"/>
      <point x="283.0" y="105.0" type="curve"/>
      <point x="235.0" y="105.0"/>
      <point x="200.0" y="125.0"/>
      <point x="170.0" y="162.0" type="curve"/>
      <point x="121.0" y="102.0"/>
      <point x="170.0" y="162.0"/>
      <point x="121.0" y="102.0" type="curve"/>
      <point x="172.0" y="33.0"/>
      <point x="228.0" y="-5.0"/>
      <point x="310.0" y="-5.0" type="curve"/>
      <point x="457.0" y="-5.0"/>
      <point x="511.0" y="119.0"/>
      <point x="511.0" y="267.0" type="curve"/>
      <point x="511.0" y="413.0"/>
      <point x="459.0" y="539.0"/>
      <point x="310.0" y="539.0" type="curve"/>
      <point x="228.0" y="539.0"/>
      <point x="166.0" y="481.0"/>
      <point x="130.0" y="423.0" type="curve"/>
      <point x="160.0" y="346.0"/>
      <point x="130.0" y="423.0"/>
    </contour>
    <contour>
      <point x="196" y="-300" type="curve"/>
      <point x="196" y="-22"/>
      <point x="196" y="472"/>
      <point x="196" y="750" type="curve"/>
      <point x="53" y="750"/>
      <point x="196" y="750"/>
      <point x="53" y="750" type="curve"/>
      <point x="53" y="472"/>
      <point x="53" y="-22"/>
      <point x="53" y="-300" type="curve"/>
      <point x="196" y="-300"/>
      <point x="53" y="-300"/>
    </contour>
  </outline>
</glyph>
<glyph name="dotlessi" format="1">
  <advance width="256.0"/>
  <unicode hex="0131"/>
  <outline>
    <contour>
      <point x="130.0" y="670.0" type="move" name="top"/>
    </contour>
    <contour>
      <point x="203.0" y="0.0" type="curve"/>
      <point x="203.0" y="178.0"/>
      <point x="203.0" y="355.0"/>
      <point x="203.0" y="533.0" type="curve"/>
      <point x="53.0" y="533.0"/>
      <point x="203.0" y="533.0"/>
      <point x="53.0" y="533.0" type="curve"/>
      <point x="53.0" y="355.0"/>
      <point x="53.0" y="178.0"/>
      <point x="53.0" y="0.0" type="curve"/>
      <point x="203.0" y="0.0"/>
      <point x="53.0" y="0.0"/>
    </contour>
  </outline>
</glyph>
<glyph name="florin" format="1">
  <advance width="365.0"/>
  <unicode hex="0192"/>
  <outline>
    <contour>
      <point x="345.0" y="569.0" type="curve"/>
      <point x="280.0" y="569.0"/>
      <point x="172.0" y="569.0"/>
      <point x="108.0" y="569.0" type="curve"/>
      <point x="108.0" y="458.0"/>
      <point x="108.0" y="569.0"/>
      <point x="108.0" y="458.0" type="curve"/>
      <point x="172.0" y="458.0"/>
      <point x="280.0" y="458.0"/>
      <point x="345.0" y="458.0" type="curve"/>
      <point x="345.0" y="569.0"/>
      <point x="345.0" y="458.0"/>
    </contour>
    <contour>
      <point x="387.0" y="814.0" type="curve"/>
      <point x="273.0" y="842.0"/>
      <point x="193.0" y="775.0"/>
      <point x="174.0" y="667.0" type="curve"/>
      <point x="143.0" y="480.0"/>
      <point x="114.0" y="293.0"/>
      <point x="83.0" y="106.0" type="curve"/>
      <point x="79.0" y="79.0"/>
      <point x="68.0" y="47.0"/>
      <point x="42.0" y="53.0" type="curve"/>
      <point x="16.0" y="-57.0"/>
      <point x="42.0" y="53.0"/>
      <point x="16.0" y="-57.0" type="curve"/>
      <point x="134.0" y="-83.0"/>
      <point x="208.0" y="-18.0"/>
      <point x="226.0" y="89.0" type="curve"/>
      <point x="258.0" y="280.0"/>
      <point x="292.0" y="471.0"/>
      <point x="323.0" y="662.0" type="curve"/>
      <point x="327.0" y="684.0"/>
      <point x="340.0" y="709.0"/>
      <point x="361.0" y="704.0" type="curve"/>
      <point x="387.0" y="814.0"/>
      <point x="361.0" y="704.0"/>
    </contour>
  </outline>
</glyph>
<glyph name="circumflex" format="1">
  <advance width="223.0"/>
  <unicode hex="02C6"/>
  <outline>
    <contour>
      <point x="168.0" y="612.0" type="move" name="_top"/>
    </contour>
    <component base="acute" yOffset="-10"/>
    <component base="grave" xOffset="107" yOffset="-10"/>
  </outline>
</glyph>
<glyph name="caron" format="1">
  <advance width="500.0"/>
  <unicode hex="02C7"/>
  <outline>
    <contour>
      <point x="168.0" y="612.0" type="move" name="_top"/>
    </contour>
    <component base="acute" xScale="-1.0" xyScale="2.77555756156e-017" yxScale="-2.77555756156e-017" yScale="-1.0" xOffset="337" yOffset="1348"/>
    <component base="grave" xScale="-1.0" xyScale="2.77555756156e-017" yxScale="-2.77555756156e-017" yScale="-1.0" xOffset="230" yOffset="1348"/>
  </outline>
</glyph>
<glyph name="dotaccent" format="1">
  <advance width="500.0"/>
  <unicode hex="02D9"/>
  <outline>
    <contour>
      <point x="248.0" y="670.0" type="move" name="_top"/>
    </contour>
    <component base="period" xOffset="122.0" yOffset="608.0"/>
  </outline>
</glyph>
<glyph name="ring" format="1">
  <advance width="259.0"/>
  <unicode hex="02DA"/>
  <outline>
    <contour>
      <point x="102.0" y="534.0" type="move" name="_top"/>
    </contour>
    <contour>
      <point x="-43.875" y="625.809116809" type="curve"/>
      <point x="-43.875" y="536.382589977"/>
      <point x="11.9564054864" y="478.224358974"/>
      <point x="100.5" y="478.224358974" type="curve"/>
      <point x="190.960619739" y="478.224358974"/>
      <point x="247.125" y="535.41441103"/>
      <point x="247.125" y="625.809116809" type="curve"/>
      <point x="247.125" y="715.993174815"/>
      <point x="190.300357903" y="773.393874644"/>
      <point x="99.0" y="773.393874644" type="curve"/>
      <point x="10.0318459268" y="773.393874644"/>
      <point x="-43.875" y="715.434572179"/>
      <point x="-43.875" y="625.809116809" type="curve"/>
      <point x="86.0664414414" y="625.809116809"/>
      <point x="-55" y="626"/>
      <point x="75" y="626" type="curve"/>
      <point x="75" y="648"/>
      <point x="75.0" y="674.0"/>
      <point x="99" y="674" type="curve"/>
      <point x="124.5" y="674.0"/>
      <point x="126" y="649"/>
      <point x="126" y="626" type="curve"/>
      <point x="126" y="605"/>
      <point x="126.0" y="583.0"/>
      <point x="101" y="583" type="curve"/>
      <point x="77.6" y="583.0"/>
      <point x="75" y="605"/>
      <point x="75" y="626" type="curve"/>
      <point x="-55" y="626"/>
      <point x="86.0664414414" y="625.809116809"/>
    </contour>
  </outline>
</glyph>
<glyph name="ogonek" format="1">
  <advance width="250.0"/>
  <unicode hex="02DB"/>
  <outline>
    <contour>
      <point x="125.0" y="16.0" type="move" name="_bottom"/>
    </contour>
    <contour>
      <point x="87.25" y="92.1828347578" type="curve"/>
      <point x="24.6017896305" y="56.8785318255"/>
      <point x="-30.375" y="30.1032666344"/>
      <point x="-30.375" y="-39.698005698" type="curve"/>
      <point x="-30.375" y="-116.394063874"/>
      <point x="13.9571423576" y="-168.118945869"/>
      <point x="89.5" y="-168.118945869" type="curve"/>
      <point x="126.846465946" y="-168.118945869"/>
      <point x="151.806620955" y="-156.711926281"/>
      <point x="181.75" y="-135.291880342" type="curve"/>
      <point x="116.75" y="-46.8918803419"/>
      <point x="182.0" y="-135.0"/>
      <point x="117.0" y="-47.0" type="curve"/>
      <point x="111.0" y="-51.0"/>
      <point x="104.0" y="-58.0"/>
      <point x="97.0" y="-58.0" type="curve"/>
      <point x="88.0" y="-58.0"/>
      <point x="82.0" y="-50.0"/>
      <point x="82.0" y="-40.0" type="curve"/>
      <point x="82.0" y="-12.0"/>
      <point x="115.0" y="-1.0"/>
      <point x="139.0" y="15.0" type="curve"/>
      <point x="87.0" y="92.0"/>
      <point x="139.25" y="14.8328347578"/>
    </contour>
  </outline>
</glyph>
<glyph name="tilde" format="1">
  <advance width="399.0"/>
  <unicode hex="02DC"/>
  <outline>
    <contour>
      <point x="154.0" y="604.0" type="move" name="_top"/>
    </contour>
    <contour>
      <point x="275" y="721" type="curve"/>
      <point x="260" y="693"/>
      <point x="246.0" y="670.0"/>
      <point x="217" y="670" type="curve"/>
      <point x="193" y="670"/>
      <point x="179" y="685"/>
      <point x="160" y="701" type="curve" smooth="yes"/>
      <point x="136" y="722"/>
      <point x="115" y="730"/>
      <point x="84" y="730" type="curve"/>
      <point x="6.53125" y="730.0"/>
      <point x="-29" y="673"/>
      <point x="-50" y="604" type="curve"/>
      <point x="30" y="564"/>
      <point x="-50" y="604"/>
      <point x="30" y="564" type="curve"/>
      <point x="46" y="595"/>
      <point x="55" y="624"/>
      <point x="90" y="624" type="curve"/>
      <point x="113" y="624"/>
      <point x="127" y="610"/>
      <point x="143" y="594" type="curve" smooth="yes"/>
      <point x="167.079606554" y="569.920393446"/>
      <point x="191" y="556"/>
      <point x="225" y="556" type="curve"/>
      <point x="304" y="556"/>
      <point x="335.238532739" y="621.702346399"/>
      <point x="353" y="674" type="curve"/>
      <point x="275" y="721"/>
      <point x="353" y="674"/>
    </contour>
  </outline>
</glyph>
<glyph name="hungarumlaut" format="1">
  <advance width="503.0"/>
  <unicode hex="02DD"/>
  <outline>
    <contour>
      <point x="228.0" y="701.0" type="move" name="_top"/>
    </contour>
    <component base="quoteright" xOffset="12.0" yOffset="120.0"/>
    <component base="quoteright" xOffset="225.0" yOffset="120.0"/>
  </outline>
</glyph>
<glyph name="guilsinglleft" format="1">
  <advance width="244.0"/>
  <unicode hex="2039"/>
  <outline>
    <contour>
      <point x="193.0" y="489.0" type="curve"/>
      <point x="35.0" y="358.0" type="line"/>
      <point x="35.0" y="236.0"/>
      <point x="35.0" y="338.0"/>
      <point x="35.0" y="216.0" type="curve"/>
      <point x="193.0" y="358.0" type="line"/>
      <point x="193.0" y="479.0"/>
      <point x="193.0" y="368.0"/>
    </contour>
    <contour>
      <point x="193.0" y="219.0" type="curve"/>
      <point x="35.0" y="358.0" type="line"/>
      <point x="35.0" y="236.0"/>
      <point x="35.0" y="338.0"/>
      <point x="35.0" y="216.0" type="curve"/>
      <point x="193.0" y="88.0" type="line"/>
      <point x="193.0" y="209.0"/>
      <point x="193.0" y="98.0"/>
    </contour>
  </outline>
</glyph>
<glyph name="trademark" format="1">
  <advance width="761.0"/>
  <unicode hex="2122"/>
  <outline>
    <contour>
      <point x="29.0" y="675.0" type="curve"/>
      <point x="29.0" y="646.159663866"/>
      <point x="29" y="617"/>
      <point x="29" y="587" type="curve"/>
      <point x="133" y="587"/>
      <point x="29" y="587"/>
      <point x="133" y="587" type="curve"/>
      <point x="133" y="587"/>
      <point x="133.0" y="587.0"/>
      <point x="133.0" y="587.0" type="curve"/>
      <point x="29.0" y="675.0"/>
      <point x="133.0" y="587.0"/>
    </contour>
    <contour>
      <point x="268.0" y="587.0" type="curve"/>
      <point x="268.0" y="587.0"/>
      <point x="268" y="587"/>
      <point x="268" y="587" type="curve"/>
      <point x="372" y="587"/>
      <point x="268" y="587"/>
      <point x="372" y="587" type="curve"/>
      <point x="372" y="617"/>
      <point x="372.0" y="646.159663866"/>
      <point x="372.0" y="675.0" type="curve"/>
      <point x="268.0" y="587.0"/>
      <point x="372.0" y="675.0"/>
    </contour>
    <contour>
      <point x="144.0" y="252.0" type="curve"/>
      <point x="179.205882353" y="252.0"/>
      <point x="222.313043478" y="252.0"/>
      <point x="258" y="252" type="curve"/>
      <point x="258" y="341"/>
      <point x="258" y="252"/>
      <point x="258" y="341" type="curve"/>
      <point x="258.0" y="341.0"/>
      <point x="258.0" y="341.0"/>
      <point x="258.0" y="341.0" type="curve"/>
      <point x="144.0" y="252.0"/>
      <point x="258.0" y="341.0"/>
    </contour>
    <contour>
      <point x="258.0" y="341.0" type="curve"/>
      <point x="222.794117647" y="341.0"/>
      <point x="179" y="341"/>
      <point x="144" y="341" type="curve"/>
      <point x="144" y="252"/>
      <point x="144" y="341"/>
      <point x="144" y="252" type="curve"/>
      <point x="144" y="252"/>
      <point x="144.0" y="252.0"/>
      <point x="144.0" y="252.0" type="curve"/>
      <point x="258.0" y="341.0"/>
      <point x="144.0" y="252.0"/>
    </contour>
    <contour>
      <point x="258.0" y="341.0" type="curve"/>
      <point x="258.0" y="452.0"/>
      <point x="258.0" y="564.0"/>
      <point x="258.0" y="675.0" type="curve"/>
      <point x="144.0" y="587.0"/>
      <point x="258.0" y="675.0"/>
      <point x="144.0" y="587.0" type="curve"/>
      <point x="144.0" y="475.0"/>
      <point x="144.0" y="364.0"/>
      <point x="144.0" y="252.0" type="curve"/>
      <point x="258.0" y="341.0"/>
      <point x="144.0" y="252.0"/>
    </contour>
    <contour>
      <point x="133.0" y="587.0" type="curve"/>
      <point x="176.0" y="587.0"/>
      <point x="225.0" y="587.0"/>
      <point x="268.0" y="587.0" type="curve"/>
      <point x="372.0" y="675.0"/>
      <point x="268.0" y="587.0"/>
      <point x="372.0" y="675.0" type="curve"/>
      <point x="259.0" y="675.0"/>
      <point x="141.0" y="675.0"/>
      <point x="29.0" y="675.0" type="curve"/>
      <point x="133.0" y="587.0"/>
      <point x="29.0" y="675.0"/>
    </contour>
    <contour>
      <point x="721" y="252" type="curve"/>
      <point x="663" y="675" type="line"/>
      <point x="572" y="675" type="line"/>
      <point x="610.0" y="252.0" type="line"/>
      <point x="721" y="252"/>
      <point x="610" y="252"/>
    </contour>
    <contour>
      <point x="475.0" y="252.0" type="curve"/>
      <point x="513" y="675" type="line"/>
      <point x="420" y="675" type="line"/>
      <point x="363" y="252" type="line"/>
      <point x="475" y="252"/>
      <point x="363" y="252"/>
    </contour>
    <contour>
      <point x="576.0" y="288.0" type="curve"/>
      <point x="513.0" y="675.0" type="line"/>
      <point x="420" y="675"/>
      <point x="513" y="675"/>
      <point x="420" y="675" type="curve"/>
      <point x="511.0" y="288.0" type="line"/>
      <point x="625.0" y="288.0"/>
      <point x="462.0" y="288.0"/>
    </contour>
    <contour>
      <point x="576.0" y="288.0" type="curve"/>
      <point x="663" y="675" type="line"/>
      <point x="572" y="675"/>
      <point x="663" y="675"/>
      <point x="572.0" y="675.0" type="curve"/>
      <point x="511.0" y="288.0" type="line"/>
      <point x="631.0" y="288.0"/>
      <point x="456.0" y="288.0"/>
    </contour>
  </outline>
</glyph>
